<svg width="182" height="79" viewBox="0 0 182 79" fill="none" xmlns="http://www.w3.org/2000/svg">
<g clip-path="url(#clip0_635_7380)">
<path d="M123.516 72.3096H124.607L126.376 78.8727H125.529L125.062 77.0684H122.954L122.467 78.8727H121.619L123.516 72.3096ZM123.124 76.4036H124.893L124.056 73.2381H124.035L123.124 76.4036Z" fill="white"/>
<path d="M128.146 78.894V72.2676H130.095C130.688 72.2676 131.123 72.3836 131.419 72.6052C131.716 72.8268 131.864 73.1645 131.864 73.6182V74.1352C131.864 74.4518 131.801 74.7156 131.684 74.916C131.568 75.1165 131.366 75.2748 131.091 75.3909C131.409 75.4964 131.642 75.6441 131.79 75.8446C131.938 76.0451 132.002 76.3088 132.002 76.636V77.2163C132.002 77.7861 131.843 78.2081 131.525 78.4825C131.207 78.7568 130.72 78.894 130.053 78.894H128.146ZM129.629 74.916C129.936 74.9055 130.137 74.8527 130.254 74.7683C130.37 74.6839 130.423 74.5362 130.423 74.3146V73.9031C130.423 73.7132 130.37 73.576 130.254 73.5021C130.137 73.4283 129.936 73.3861 129.639 73.3861V74.9055L129.629 74.916ZM129.629 77.7861C129.978 77.7861 130.212 77.7228 130.317 77.6384C130.423 77.5539 130.487 77.364 130.487 77.1002V76.6571C130.487 76.4038 130.423 76.2139 130.296 76.1189C130.169 76.0134 129.947 75.9606 129.618 75.9606V77.7861H129.629Z" fill="white"/>
<path d="M132.616 78.894V72.2676H134.121V78.894H132.616Z" fill="white"/>
<path d="M137.395 78.8942V78.3772C137.236 78.5777 137.056 78.7254 136.855 78.8309C136.653 78.9364 136.42 78.9892 136.176 78.9892C135.731 78.9892 135.392 78.8204 135.159 78.4722C134.926 78.124 134.82 77.6175 134.82 76.9422V74.2199C134.82 73.5446 134.99 73.0275 135.318 72.6899C135.647 72.3522 136.145 72.1729 136.802 72.1729C137.458 72.1729 137.956 72.3417 138.285 72.6793C138.613 73.017 138.783 73.534 138.783 74.2093V74.5259H137.257V73.9666C137.257 73.7556 137.215 73.5973 137.141 73.4918C137.066 73.3863 136.95 73.3441 136.791 73.3441C136.632 73.3441 136.515 73.3968 136.441 73.4918C136.367 73.5868 136.335 73.745 136.335 73.9666V77.1743C136.335 77.3854 136.367 77.5436 136.441 77.6386C136.515 77.7336 136.632 77.7863 136.791 77.7863C136.95 77.7863 137.066 77.7336 137.141 77.6386C137.215 77.5436 137.247 77.3854 137.247 77.1743V76.4357H136.727V75.2223H138.762V78.8837H137.374L137.395 78.8942Z" fill="white"/>
<path d="M139.419 76.8053V75.5391H141.58V76.8053H139.419Z" fill="white"/>
<path d="M142.236 72.2676H144.101C144.906 72.2676 145.447 72.3942 145.722 72.658C145.998 72.9218 146.146 73.3861 146.146 74.0614V77.1108C146.146 77.4695 146.103 77.765 146.019 77.976C145.934 78.187 145.796 78.377 145.595 78.5352C145.436 78.6619 145.235 78.7568 145.002 78.8096C144.769 78.8623 144.377 78.894 143.826 78.894H142.236V72.2676ZM143.932 73.4072H143.741V77.765H143.932C144.228 77.765 144.408 77.7228 144.493 77.6384C144.578 77.5539 144.62 77.3851 144.62 77.1424V74.0192C144.62 73.7765 144.578 73.6076 144.493 73.5232C144.408 73.4388 144.218 73.3966 143.932 73.3966V73.4072Z" fill="white"/>
<path d="M152.016 76.6153C151.942 77.8604 151.454 78.9999 150.014 78.9999C148.138 78.9999 147.895 77.2484 147.895 75.5918C147.895 73.9352 148.202 72.1836 150.014 72.1836C151.359 72.1836 151.921 72.9328 151.963 74.22H151.115C151.094 73.4709 150.861 72.8378 150.014 72.8378C148.89 72.8378 148.742 74.0723 148.742 75.5812C148.742 77.0901 148.89 78.3246 150.014 78.3246C150.999 78.3246 151.137 77.4066 151.168 76.6047H152.016V76.6153Z" fill="white"/>
<path d="M156.922 75.5918C156.922 77.2484 156.614 78.9999 154.803 78.9999C152.991 78.9999 152.684 77.2484 152.684 75.5918C152.684 73.9352 152.991 72.1836 154.803 72.1836C156.614 72.1836 156.922 73.9352 156.922 75.5918ZM153.531 75.5918C153.531 77.1112 153.68 78.3352 154.803 78.3352C155.926 78.3352 156.074 77.1006 156.074 75.5918C156.074 74.0829 155.926 72.8483 154.803 72.8483C153.68 72.8483 153.531 74.0829 153.531 75.5918Z" fill="white"/>
<path d="M157.928 72.3096H159.294L160.619 77.5115H160.64L161.964 72.3096H163.331V78.8727H162.515V73.1431H162.494L161.032 78.8727H160.216L158.754 73.1431H158.733V78.8727H157.917V72.3096H157.928Z" fill="white"/>
<path d="M164.401 72.3096H166.075C166.647 72.3096 168.109 72.3096 168.109 74.1983C168.109 75.4223 167.325 76.0976 166.213 76.0976H165.206V78.8727H164.391V72.3096H164.401ZM165.217 75.4328H166.181C166.774 75.4328 167.272 75.0319 167.272 74.1561C167.272 73.4386 166.933 72.9743 166.128 72.9743H165.217V75.4328Z" fill="white"/>
<path d="M169.794 72.3096H170.885L172.655 78.8727H171.807L171.341 77.0684H169.232L168.745 78.8727H167.897L169.794 72.3096ZM169.402 76.4036H171.171L170.334 73.2381H170.313L169.402 76.4036Z" fill="white"/>
<path d="M173.121 72.3096H174.17L176.353 77.7859H176.374V72.3096H177.19V78.8727H176.077L173.969 73.5652H173.947V78.8727H173.132V72.3096H173.121Z" fill="white"/>
<path d="M177.698 72.3096H178.599L179.849 75.3801L181.152 72.3096H182L180.251 76.2981V78.8727H179.436V76.2981L177.688 72.3096H177.698Z" fill="white"/>
<path d="M34.37 0L0 65.2618H181.449V18.0644H44.3081L34.37 0Z" fill="#333333"/>
<path d="M67.8181 43.9268L69.9794 23.8682H73.6029L76.6331 32.7843L79.7056 23.8682H83.2337L85.6917 43.9268H81.1041L80.14 34.7152L76.8132 44.0112L73.2109 34.7152L72.3845 43.9268H67.7969H67.8181Z" fill="white"/>
<path d="M95.4501 43.8112C95.0792 43.9167 94.6978 44.0011 94.3058 44.0539C93.9244 44.1066 93.5324 44.1383 93.1509 44.1383C91.424 44.1805 89.7712 43.3997 88.7117 42.0385C87.5144 40.4663 86.9105 38.5248 87.0059 36.5622C86.9211 34.6524 87.5568 32.7847 88.807 31.3286C90.2585 29.7881 92.3881 29.06 94.4859 29.3977C94.8144 29.4504 95.1428 29.5454 95.4606 29.6615V34.3675C95.0686 34.2514 94.7402 34.1565 94.4647 34.1037C94.221 34.0509 93.9774 34.0298 93.7337 34.0193C93.0344 33.9771 92.3457 34.2303 91.8372 34.7157C90.926 35.8658 90.9366 37.4908 91.869 38.6198C92.3669 39.1263 93.045 39.3901 93.7549 39.3584C93.9985 39.3584 94.2528 39.3373 94.4965 39.3056C94.7614 39.274 95.0898 39.2212 95.4606 39.1368V43.7901L95.4501 43.8112Z" fill="white"/>
<path d="M96.4032 43.9268L102.4 23.8682H107.422L113.101 43.9268H108.386L107.761 41.6899H101.679L101.023 43.9268H96.3926H96.4032ZM102.94 36.6673H106.468L104.699 29.8931L102.94 36.6673Z" fill="white"/>
<path d="M125.465 38.4188L124.066 43.9373H114.637V23.8682H119.065V38.4188H125.454H125.465Z" fill="white"/>
<path d="M128.771 43.9268L124.024 23.8682H128.75L131.589 37.638L134.111 23.8682H138.561L134.206 43.9268H128.771Z" fill="white"/>
<path d="M137.85 43.9268L143.847 23.8682H148.869L154.548 43.9268H149.833L149.208 41.6899H143.127L142.47 43.9268H137.84H137.85ZM144.377 36.6673H147.905L146.136 29.8931L144.377 36.6673Z" fill="white"/>
<path d="M160.661 43.9268H156.232V23.8682H160.661V43.9268Z" fill="white"/>
<path d="M163.809 43.9268V23.8682H165.758L172.157 32.6471V23.8682H176.586V43.9268H174.562L168.237 35.2217V43.9268H163.809Z" fill="white"/>
<path d="M34.4969 3.65039L3.14648 63.2671H66.4301L34.4969 3.65039Z" fill="white"/>
<path d="M34.3916 7.05859L5.58398 61.621H63.782L34.3916 7.05859Z" fill="#333333"/>
<path d="M34.4973 11.332L9.00586 59.5741H60.3702L34.4973 11.332Z" fill="white"/>
<path d="M52.6564 57.1472L51.9148 55.3534C52.1478 54.9102 52.328 54.4354 52.4233 53.9395H51.332L50.4527 51.808H52.4339C52.0313 49.8454 50.5904 48.3893 48.8104 47.809L38.9889 23.9834L34.4967 36.1389L30.0998 23.9834L17.1104 57.2421H24.5268L29.2098 44.1053L34.5814 57.2421L39.169 43.8204L42.3051 50.6579C41.8496 51.6498 41.68 52.7893 41.9131 53.9395C42.5064 56.8306 45.3353 58.6982 48.2383 58.1073C49.0117 57.9491 49.7216 57.622 50.3361 57.1788L52.6458 57.1472H52.6564Z" fill="#333333"/>
<path d="M49.2669 54.3299C48.4511 55.4695 46.8619 55.7438 45.7176 54.9314C44.5734 54.1189 44.2979 52.5361 45.1137 51.3966C45.9295 50.257 47.5188 49.9826 48.663 50.7951C48.9067 50.9639 49.1186 51.175 49.2881 51.4282H51.958C51.1528 48.8325 48.377 47.3764 45.7706 48.1783C43.1642 48.9802 41.7021 51.7448 42.5073 54.3405C43.3126 56.9362 46.0884 58.3923 48.6948 57.5904C50.2523 57.105 51.4813 55.8916 51.958 54.3405H49.2669V54.3299Z" fill="white"/>
<path d="M74.6625 59.1423C74.4506 59.2056 74.2281 59.2478 74.0056 59.2795C73.7726 59.3112 73.5183 59.3217 73.2428 59.3217C71.5582 59.3217 70.2021 58.8258 69.1532 57.8339C68.1149 56.8421 67.5957 55.5442 67.5957 53.9509C67.5957 52.3576 68.136 51.0281 69.2167 49.9835C70.2974 48.9389 71.6748 48.4219 73.3382 48.4219C73.5289 48.4219 73.7408 48.4324 73.9527 48.4535C74.1646 48.4746 74.3871 48.5168 74.6202 48.5696L74.7685 51.6929C74.5142 51.5874 74.2705 51.5029 74.0162 51.4502C73.7726 51.3974 73.5289 51.3658 73.3064 51.3658C72.4694 51.3658 71.7913 51.5979 71.2616 52.0622C70.7318 52.5265 70.4669 53.1173 70.4669 53.8454C70.4669 54.5735 70.7318 55.1644 71.251 55.6392C71.7701 56.1246 72.427 56.3672 73.211 56.3672C73.4971 56.3672 73.7726 56.3356 74.048 56.2617C74.3235 56.1879 74.599 56.0824 74.8744 55.9452L74.6625 59.1423Z" fill="white"/>
<path d="M81.2843 48.3055C81.9624 48.3055 82.5981 48.4215 83.2126 48.6431C83.8165 48.8647 84.3568 49.1918 84.8124 49.6139C85.4269 50.1626 85.8931 50.8062 86.2215 51.5343C86.55 52.2623 86.7089 53.0326 86.7089 53.8451C86.7089 54.6575 86.55 55.4278 86.2215 56.1664C85.8931 56.905 85.4269 57.5487 84.8124 58.0974C84.3462 58.5194 83.8059 58.8465 83.202 59.0681C82.5981 59.2897 81.9624 59.4058 81.2843 59.4058C80.6062 59.4058 79.9811 59.2897 79.3772 59.0681C78.7733 58.8465 78.2435 58.5194 77.7668 58.0974C77.1628 57.5487 76.6967 56.905 76.3682 56.177C76.0398 55.4384 75.8809 54.6681 75.8809 53.8556C75.8809 53.0432 76.0398 52.2623 76.3682 51.5343C76.6967 50.8062 77.1523 50.1626 77.7668 49.6139C78.2435 49.1918 78.7733 48.8647 79.3772 48.6326C79.9811 48.411 80.6168 48.2949 81.2843 48.2949V48.3055ZM81.3055 51.2388C80.585 51.2388 79.9811 51.4921 79.4937 51.988C79.0064 52.4945 78.7627 53.1065 78.7627 53.8451C78.7627 54.5837 79.0064 55.2062 79.4937 55.7022C79.9811 56.1981 80.585 56.4513 81.3055 56.4513C82.0259 56.4513 82.6298 56.1981 83.1172 55.7022C83.6046 55.1957 83.8483 54.5837 83.8483 53.8451C83.8483 53.1065 83.6046 52.4945 83.1172 51.988C82.6298 51.4815 82.0259 51.2283 81.3055 51.2283V51.2388Z" fill="white"/>
<path d="M87.4932 59.1417L88.8387 48.6006H91.0954L92.9813 53.2855L94.8884 48.6006H97.0816L98.6073 59.1417H95.7572L95.1639 54.2985L93.0979 59.1839L90.8624 54.2985L90.3538 59.1417H87.5038H87.4932Z" fill="white"/>
<path d="M99.8574 59.1417V48.6006H102.633C104.159 48.6006 105.293 48.9066 106.034 49.5291C106.776 50.1517 107.147 51.1013 107.147 52.3886C107.147 53.6759 106.787 54.5939 106.066 55.2798C105.346 55.9656 104.339 56.3138 103.036 56.3138H102.623V59.1417H99.8574ZM102.623 53.6654H102.951C103.407 53.6654 103.756 53.5598 104.011 53.3383C104.265 53.1167 104.381 52.8107 104.381 52.4203C104.381 51.9982 104.254 51.6817 104.011 51.4601C103.767 51.2385 103.407 51.1224 102.941 51.1224H102.623V53.6759V53.6654Z" fill="white"/>
<path d="M106.755 59.1417L110.495 48.6006H113.62L117.149 59.1417H114.214L113.832 57.9599H110.05L109.637 59.1417H106.755ZM110.823 55.322H113.016L111.915 51.7661L110.823 55.322Z" fill="white"/>
<path d="M118.102 59.1417V48.6006H119.309L123.282 53.2222V48.6006H126.037V59.1417H124.787L120.867 54.5728V59.1417H118.102Z" fill="white"/>
<path d="M130.742 59.1417H127.977V48.6006H130.742V59.1417Z" fill="white"/>
<path d="M139.355 56.2302L138.614 59.1319H132.681V48.5908H138.582L139.038 51.3976H135.446V52.4738H137.851V55.2594H135.446V56.2407H139.355V56.2302Z" fill="white"/>
<path d="M140.277 59.1632L140.203 56.2615C140.415 56.3459 140.617 56.4093 140.797 56.462C140.987 56.5042 141.167 56.5253 141.337 56.5253C141.644 56.5253 141.898 56.4515 142.089 56.2826C142.28 56.1244 142.386 55.9239 142.386 55.6917C142.386 55.3752 142.121 54.9848 141.591 54.4994C141.411 54.3411 141.273 54.204 141.178 54.109C140.807 53.7397 140.521 53.3493 140.341 52.9483C140.161 52.5474 140.076 52.1147 140.076 51.661C140.076 50.7114 140.415 49.9411 141.083 49.3291C141.75 48.7171 142.619 48.4111 143.689 48.4111C144.028 48.4111 144.335 48.4322 144.632 48.4744C144.929 48.5166 145.215 48.58 145.48 48.6749V51.2917C145.246 51.1757 145.035 51.0912 144.833 51.0279C144.632 50.9752 144.452 50.9435 144.304 50.9435C143.954 50.9435 143.689 51.0174 143.498 51.1546C143.308 51.3023 143.212 51.5028 143.212 51.7665C143.212 52.062 143.467 52.4102 143.975 52.8112C144.176 52.9694 144.335 53.1066 144.452 53.2016C144.865 53.5603 145.183 53.9613 145.395 54.4256C145.607 54.8898 145.723 55.3752 145.723 55.9028C145.723 56.9579 145.374 57.781 144.664 58.3824C143.954 58.9839 142.979 59.2793 141.718 59.2793C141.464 59.2793 141.21 59.2582 140.977 59.2371C140.733 59.216 140.511 59.1843 140.288 59.1421L140.277 59.1632Z" fill="white"/>
<path d="M154.092 59.1417H151.327V48.6006H154.092V59.1417Z" fill="white"/>
<path d="M156.031 59.1417V48.6006H157.239L161.212 53.2222V48.6006H163.967V59.1417H162.717L158.797 54.5728V59.1417H156.031Z" fill="white"/>
<path d="M172.379 59.1423C172.167 59.2056 171.945 59.2478 171.722 59.2795C171.489 59.3112 171.235 59.3217 170.96 59.3217C169.275 59.3217 167.919 58.8258 166.87 57.8339C165.832 56.8421 165.312 55.5442 165.312 53.9509C165.312 52.3576 165.853 51.0281 166.934 49.9835C168.014 48.9389 169.392 48.4219 171.055 48.4219C171.246 48.4219 171.458 48.4324 171.669 48.4535C171.881 48.4746 172.104 48.5168 172.337 48.5696L172.485 51.6929C172.231 51.5874 171.987 51.5029 171.733 51.4502C171.489 51.3974 171.246 51.3658 171.023 51.3658C170.186 51.3658 169.508 51.5979 168.978 52.0622C168.449 52.5265 168.184 53.1173 168.184 53.8454C168.184 54.5735 168.449 55.1644 168.968 55.6392C169.487 56.1246 170.144 56.3672 170.928 56.3672C171.214 56.3672 171.489 56.3356 171.765 56.2617C172.04 56.1879 172.316 56.0824 172.591 55.9452L172.379 59.1423Z" fill="white"/>
<path d="M174.064 59.1419V56.3984H176.586V59.1419H174.064Z" fill="white"/>
</g>
<defs>
<clipPath id="clip0_635_7380">
<rect width="182" height="79" fill="white"/>
</clipPath>
</defs>
</svg>
