<svg width="92" height="31" viewBox="0 0 92 31" fill="none" xmlns="http://www.w3.org/2000/svg">
<g clip-path="url(#clip0_635_5607)">
<path d="M30.6611 0.227539H0V30.7729H30.6611V0.227539Z" fill="white"/>
<path d="M29.5578 13.7184V1.56641H1.45117V13.7184V14.8344L7.92397 14.8261L5.79117 8.77081H25.2261L23.085 14.8261L29.5661 14.8344V13.7184H29.5578Z" fill="#333333"/>
<path d="M29.5578 17.8107H18.8566L20.9894 11.7554H10.0278L12.1606 17.8107H1.45117V18.9308V29.57H29.5578V18.9308V17.8107Z" fill="#333333"/>
<path d="M31 31H0V0H30.9959V31H31ZM0.4464 30.5577H30.5577V0.442267H0.4464V30.5619V30.5577Z" fill="#333333"/>
<path d="M41.6098 10.7796C41.6098 11.5401 41.2998 12.2717 40.7542 12.8008C40.2251 13.3547 39.4894 13.6647 38.7206 13.6523H35.8604V1.52507H38.733C39.4935 1.5168 40.2293 1.82267 40.7542 2.37653C41.2998 2.91387 41.6015 3.6496 41.5933 4.41427L41.6098 10.7796ZM37.6955 11.8749H38.795C39.0761 11.8791 39.3447 11.7675 39.5307 11.5608C39.725 11.3665 39.8325 11.0979 39.8283 10.8251V4.44733C39.8325 4.1704 39.725 3.90173 39.5266 3.70333C39.3365 3.5008 39.0719 3.3892 38.795 3.39333H37.6955V11.8749Z" fill="white"/>
<path d="M46.7608 1.3765C48.3604 1.36824 49.6624 2.6537 49.6748 4.2533C49.6748 4.26157 49.6748 4.27397 49.6748 4.28224V10.8997C49.6748 12.4993 48.3769 13.7972 46.7773 13.7972C45.1777 13.7972 43.8799 12.4993 43.8799 10.8997V4.28224C43.8799 2.68264 45.1736 1.38477 46.7732 1.38064H46.7608V1.3765ZM47.7569 4.2409C47.7569 3.66637 47.2981 3.1993 46.7236 3.19517C46.7153 3.19517 46.7071 3.19517 46.6988 3.19517C46.4219 3.19104 46.1532 3.2985 45.9548 3.4969C45.7564 3.69117 45.6489 3.95984 45.6572 4.2409V10.8749C45.6572 11.1518 45.7647 11.4205 45.9672 11.6106C46.1615 11.809 46.4301 11.9165 46.7112 11.9124C47.2857 11.9124 47.7528 11.4536 47.7569 10.879C47.7569 10.879 47.7569 10.8708 47.7569 10.8666V4.2409Z" fill="white"/>
<path d="M53.6302 13.6524L51.4561 1.5376H53.3698L54.8909 10.9823L56.4243 1.5376H58.3463L56.1391 13.6565H53.6302V13.6524Z" fill="white"/>
<path d="M60.4248 13.6526V1.52539H65.6245V3.36059H62.2476V6.66726H64.7152V8.50246H62.2476V11.8091H65.6245V13.6443H60.4248V13.6526Z" fill="white"/>
<path d="M69.2415 3.3728H67.2988V1.5376H73.007V3.3728H71.0767V13.6565H69.2456V3.3728H69.2415Z" fill="white"/>
<path d="M75.8262 10.8707L75.3798 13.6565H73.4785L75.541 1.5376H78.0541L80.0877 13.6565H78.1657L77.7359 10.8707H75.8221H75.8262ZM76.7893 4.33173L76.1114 9.08506H77.4672L76.7893 4.33173Z" fill="white"/>
<path d="M83.8613 13.6524H82.0303V1.5376H83.8613V13.6524Z" fill="white"/>
<path d="M91.4582 13.6524H86.4775V1.5376H88.3086V11.8337H91.4582V13.6524Z" fill="white"/>
<path d="M38.5266 17.8315C38.4687 17.2363 38.1505 16.7692 37.5387 16.7692C36.3483 16.7692 36.2863 18.4804 36.2863 18.8896C36.2863 19.2988 36.2863 20.9646 37.5181 20.9646C38.2538 20.9646 38.5101 20.3363 38.5886 19.8114L39.0185 19.9354C38.9771 20.729 38.3241 21.349 37.5305 21.3572C37.0179 21.3862 36.5261 21.1423 36.2409 20.7166C35.935 20.2247 35.7821 19.6502 35.8069 19.0715C35.7738 18.4308 35.9019 17.7902 36.183 17.2115C36.4517 16.6742 37.0097 16.3476 37.609 16.3807C38.3489 16.3724 38.9565 16.9552 38.9771 17.6951L38.5307 17.8398L38.5266 17.8315Z" fill="white"/>
<path d="M43.5156 20.4768C43.3048 21.0224 42.7757 21.3737 42.1888 21.3613C41.7341 21.3861 41.296 21.2001 40.9984 20.8571C40.614 20.3197 40.4239 19.6667 40.4652 19.0095C40.4321 18.4019 40.5313 17.7901 40.7628 17.228C41.1307 16.4757 42.0358 16.1616 42.7881 16.5295C43.0154 16.6411 43.2139 16.8064 43.3585 17.0131C43.6685 17.5835 43.8214 18.2241 43.7925 18.8731C43.8214 19.4228 43.7222 19.9684 43.5114 20.4768H43.5156ZM42.1516 16.7733C41.7093 16.7981 41.3249 17.0916 41.1885 17.5173C41.0356 17.972 40.9653 18.4473 40.9819 18.9268C40.9612 19.4145 41.048 19.8981 41.2299 20.3487C41.4283 20.8571 42.0028 21.1051 42.507 20.9067C42.7633 20.8075 42.9659 20.6049 43.0651 20.3487C43.2593 19.894 43.342 19.4021 43.3131 18.9103C43.3131 18.1621 43.2056 16.7775 42.1475 16.7775L42.1516 16.7733Z" fill="white"/>
<path d="M46.5537 16.4756L47.7896 19.4475C47.9012 19.7285 48.0582 20.1832 48.174 20.4643C48.2236 20.5841 48.269 20.7453 48.3352 20.7453C48.4013 20.7453 48.393 20.7081 48.393 20.6379V16.4756H48.8642V21.1876H48.0003L46.6984 17.9843C46.5496 17.6164 46.5372 17.5792 46.4008 17.2237C46.3222 17.0171 46.3015 16.9013 46.2478 16.9013C46.2147 16.9013 46.1899 16.9261 46.1899 16.9592C46.1899 16.9592 46.1899 16.9633 46.1899 16.9675V21.1876H45.7188V16.4756H46.5496H46.5537Z" fill="white"/>
<path d="M53.3116 17.5628C53.2083 17.0875 52.7826 16.7568 52.2948 16.7651C51.8567 16.7403 51.4806 17.0792 51.4558 17.5173C51.4558 17.5297 51.4558 17.5463 51.4558 17.5587C51.4558 18.0712 51.9435 18.282 52.1791 18.3853L52.8611 18.654C53.5514 18.9433 53.9192 19.2492 53.9192 20.0139C53.9192 20.4107 53.7415 20.7909 53.4315 21.0431C53.1174 21.2497 52.7495 21.3531 52.3734 21.3324C51.6955 21.3241 51.092 20.8943 50.8564 20.2577L51.2863 20.0511C51.3896 20.3611 51.6004 20.6256 51.8815 20.7951C52.0923 20.9067 52.3279 20.9604 52.5635 20.948C53.0388 20.9769 53.448 20.6173 53.477 20.142C53.477 20.1131 53.477 20.08 53.477 20.0511C53.4894 19.7039 53.2868 19.3856 52.9727 19.2492L52.7412 19.1376C52.4519 18.9888 52.146 18.8813 51.836 18.7449C51.5467 18.6333 51.3111 18.4225 51.1623 18.1497C51.0796 17.9761 51.0342 17.786 51.03 17.5917C51.0218 16.9345 51.5508 16.3972 52.208 16.3931C52.2659 16.3931 52.3279 16.3931 52.3858 16.4055C53.0182 16.3848 53.5886 16.7816 53.7952 17.3809L53.3034 17.5669L53.3116 17.5628Z" fill="white"/>
<path d="M58.495 16.4756V16.8848H56.9863V21.1876H56.4821V16.8848H54.9775V16.4756H58.495Z" fill="white"/>
<path d="M60.3174 16.4757H61.855C62.2848 16.4179 62.7189 16.5501 63.0454 16.8395C63.2893 17.0833 63.4133 17.4181 63.3885 17.7612C63.4546 18.4143 62.9834 18.9971 62.3303 19.0673C62.2559 19.0756 62.1815 19.0756 62.1071 19.0673L63.5951 21.1877H62.9999L61.6401 19.1004H60.8258V21.1877H60.3381L60.3215 16.4757H60.3174ZM61.6028 18.6747C62.0782 18.6747 62.8759 18.6747 62.8759 17.7819C62.8759 16.8891 62.2807 16.9015 61.8178 16.9015H60.8093V18.6829L61.607 18.6705L61.6028 18.6747Z" fill="white"/>
<path d="M65.6583 16.4756V19.8443C65.6005 20.394 66.0014 20.8817 66.5511 20.9396C66.5842 20.9396 66.6173 20.9437 66.6503 20.9437C67.2414 20.9851 67.7539 20.5428 67.7953 19.9559C67.7994 19.8897 67.7953 19.8236 67.7953 19.7575V16.4756H68.2706V19.7864C68.345 20.5841 67.7581 21.2909 66.9603 21.3653C66.8611 21.3736 66.7578 21.3736 66.6586 21.3653C65.8691 21.4067 65.1954 20.7949 65.1582 20.0055C65.1582 19.9393 65.1582 19.8691 65.1623 19.8029V16.4797H65.6625L65.6583 16.4756Z" fill="white"/>
<path d="M72.9653 17.8315C72.9074 17.2363 72.5892 16.7692 71.9774 16.7692C70.787 16.7692 70.7168 18.4804 70.7168 18.8896C70.7168 19.2988 70.7168 20.9645 71.9485 20.9645C72.6842 20.9645 72.9405 20.3363 73.019 19.8113L73.4489 19.9436C73.4076 20.7372 72.7545 21.3572 71.9609 21.3655C71.4484 21.3903 70.9606 21.1464 70.6754 20.7165C70.3696 20.2247 70.2166 19.6501 70.2414 19.0715C70.2084 18.4308 70.3365 17.7901 70.6176 17.2115C70.8862 16.6783 71.4401 16.3517 72.0394 16.3807C72.771 16.3807 73.3704 16.9635 73.3869 17.6951L72.9653 17.8397V17.8315Z" fill="white"/>
<path d="M78.3514 16.4756V16.8848H76.8428V21.1876H76.3385V16.8848H74.834V16.4756H78.3514Z" fill="white"/>
<path d="M79.7695 20.915H80.2862V16.7527H79.7695V16.4717H81.303V16.7527H80.7863V20.915H81.303V21.1961H79.7695V20.915Z" fill="white"/>
<path d="M85.8535 20.4765C85.6427 21.0221 85.1136 21.3734 84.5267 21.361C84.072 21.3858 83.6339 21.1998 83.3363 20.8568C82.9519 20.3194 82.7617 19.6664 82.8031 19.0092C82.77 18.4016 82.8692 17.7898 83.1007 17.2277C83.3404 16.6986 83.8736 16.3638 84.4564 16.3762C84.9607 16.3514 85.4443 16.5953 85.7212 17.0169C86.0312 17.5873 86.1841 18.228 86.1552 18.8769C86.1717 19.4266 86.0684 19.9722 85.8535 20.4765ZM84.4936 16.773C84.0596 16.8061 83.6876 17.0996 83.5553 17.517C83.4024 17.9717 83.3321 18.447 83.3487 18.9265C83.328 19.4142 83.4148 19.8978 83.5967 20.3484C83.7951 20.8568 84.3696 21.1048 84.8739 20.9064C85.1301 20.8072 85.3327 20.6046 85.4319 20.3484C85.6261 19.8937 85.7088 19.4018 85.6799 18.91C85.6551 18.1618 85.5476 16.7772 84.4895 16.7772L84.4936 16.773Z" fill="white"/>
<path d="M88.9035 16.4756L90.1394 19.4475C90.251 19.7285 90.4081 20.1832 90.5238 20.4643C90.5734 20.5841 90.6189 20.7453 90.685 20.7453C90.7511 20.7453 90.7429 20.7081 90.7429 20.6379V16.4756H91.2141V21.1876H90.3502L89.0441 17.9843C88.8953 17.6164 88.8829 17.5792 88.7465 17.2237C88.6679 17.0171 88.6473 16.9013 88.5935 16.9013C88.5605 16.9013 88.5357 16.9261 88.5357 16.9592C88.5357 16.9592 88.5357 16.9633 88.5357 16.9675V21.1876H88.0645V16.4756H88.9035Z" fill="white"/>
<path d="M91.2144 23.9277H35.7988V24.2625H91.2144V23.9277Z" fill="white"/>
<path d="M62.1448 26.2798H62.6862L63.5666 29.5575H63.145L62.9094 28.6565H61.8637L61.6198 29.5575H61.1982L62.1448 26.2798ZM61.9464 28.3258H62.8268L62.4093 26.7427H62.401L61.9464 28.3258Z" fill="white"/>
<path d="M64.4434 29.5701V26.2593H65.4147C65.7082 26.2593 65.9272 26.3171 66.0719 26.4287C66.2166 26.5403 66.291 26.7098 66.291 26.9371V27.1934C66.291 27.3546 66.262 27.4827 66.2 27.5819C66.138 27.6811 66.043 27.7597 65.9066 27.8175C66.0636 27.8671 66.1794 27.9457 66.2538 28.0449C66.324 28.1441 66.3612 28.2763 66.3612 28.4417V28.731C66.3612 29.0162 66.2827 29.227 66.1215 29.3634C65.9644 29.4998 65.7206 29.5701 65.3899 29.5701H64.4434ZM65.1832 27.5861C65.3362 27.5819 65.4395 27.5571 65.4932 27.5117C65.547 27.4662 65.5759 27.3918 65.5759 27.2843V27.0777C65.5759 26.9826 65.547 26.9165 65.4932 26.8793C65.4395 26.8421 65.3362 26.8214 65.1874 26.8214V27.5819L65.1832 27.5861ZM65.1832 29.0162C65.3568 29.0162 65.4726 28.9873 65.5263 28.9418C65.58 28.8963 65.6131 28.8054 65.6131 28.6731V28.4541C65.6131 28.3259 65.5842 28.235 65.5222 28.1854C65.4602 28.1358 65.3486 28.1069 65.1832 28.1069V29.0203V29.0162Z" fill="white"/>
<path d="M66.6709 29.5701V26.2593H67.419V29.5701H66.6709Z" fill="white"/>
<path d="M69.0479 29.5701V29.3139C68.9694 29.4131 68.8826 29.4875 68.7793 29.5412C68.6759 29.5949 68.5643 29.6197 68.4403 29.6197C68.2171 29.6197 68.0518 29.5329 67.9361 29.3593C67.8203 29.1857 67.7666 28.9295 67.7666 28.5947V27.2348C67.7666 26.8959 67.8493 26.6396 68.0146 26.4701C68.1799 26.3007 68.4279 26.2139 68.7545 26.2139C69.081 26.2139 69.329 26.3007 69.4943 26.4701C69.6597 26.6396 69.7382 26.8959 69.7382 27.2389V27.396H68.9818V27.1191C68.9818 27.0116 68.9653 26.9331 68.9281 26.8835C68.8909 26.8339 68.833 26.8091 68.7503 26.8091C68.6677 26.8091 68.6139 26.8339 68.5809 26.8835C68.5478 26.9331 68.5271 27.0116 68.5271 27.1191V28.7228C68.5271 28.8303 68.5437 28.9088 68.5809 28.9584C68.6181 29.008 68.6759 29.0328 68.7545 29.0328C68.833 29.0328 68.8909 29.008 68.9281 28.9584C68.9653 28.9088 68.9818 28.8303 68.9818 28.7228V28.3508H68.7255V27.7432H69.7382V29.5743H69.0479V29.5701Z" fill="white"/>
<path d="M70.0527 28.5284V27.896H71.1274V28.5284H70.0527Z" fill="white"/>
<path d="M71.4531 26.2637H72.379C72.7799 26.2637 73.0486 26.3298 73.1891 26.4579C73.3297 26.5861 73.3999 26.8217 73.3999 27.1606V28.6817C73.3999 28.8635 73.3793 29.0082 73.3379 29.1157C73.2966 29.2231 73.2263 29.3182 73.1271 29.3967C73.0445 29.4629 72.9494 29.5083 72.8337 29.5331C72.7179 29.5579 72.5237 29.5745 72.2509 29.5745H71.4573V26.2637H71.4531ZM72.2963 26.8258H72.2013V29.0041H72.2963C72.441 29.0041 72.5361 28.9834 72.5774 28.9421C72.6187 28.9007 72.6394 28.8181 72.6394 28.6982V27.1399C72.6394 27.0201 72.6187 26.9374 72.5774 26.8919C72.5361 26.8465 72.441 26.8258 72.2963 26.8258Z" fill="white"/>
<path d="M76.3177 28.4332C76.2805 29.0532 76.0366 29.6236 75.3216 29.6236C74.3916 29.6236 74.2676 28.7474 74.2676 27.9207C74.2676 27.094 74.4205 26.2178 75.3216 26.2178C75.9912 26.2178 76.2722 26.5939 76.2888 27.2387H75.8672C75.8589 26.8667 75.739 26.5484 75.3216 26.5484C74.7636 26.5484 74.6892 27.1643 74.6892 27.9207C74.6892 28.6771 74.7636 29.293 75.3216 29.293C75.8134 29.293 75.8837 28.8342 75.8961 28.4332H76.3177Z" fill="white"/>
<path d="M78.7652 27.9207C78.7652 28.7474 78.6123 29.6236 77.7112 29.6236C76.8102 29.6236 76.6572 28.7474 76.6572 27.9207C76.6572 27.094 76.8102 26.2178 77.7112 26.2178C78.6123 26.2178 78.7652 27.094 78.7652 27.9207ZM77.0747 27.9207C77.0747 28.6771 77.1491 29.293 77.7071 29.293C78.2651 29.293 78.3395 28.6771 78.3395 27.9207C78.3395 27.1643 78.2651 26.5484 77.7071 26.5484C77.1491 26.5484 77.0747 27.1643 77.0747 27.9207Z" fill="white"/>
<path d="M79.2607 26.2798H79.9386L80.5958 28.8797H80.6041L81.2613 26.2798H81.9391V29.5575H81.5341V26.6931H81.5258L80.8025 29.5575H80.3974L79.6741 26.6931H79.6658V29.5575H79.2607V26.2798Z" fill="white"/>
<path d="M82.4846 26.2798H83.3195C83.6047 26.2798 84.3322 26.2798 84.3322 27.2222C84.3322 27.8339 83.9437 28.1729 83.3857 28.1729H82.8855V29.5575H82.4805V26.2798H82.4846ZM82.8897 27.8422H83.3733C83.6667 27.8422 83.9147 27.6397 83.9147 27.2057C83.9147 26.8461 83.7453 26.6146 83.3443 26.6146H82.8897V27.8463V27.8422Z" fill="white"/>
<path d="M85.1672 26.2798H85.7087L86.5891 29.5575H86.1675L85.9319 28.6565H84.8862L84.6423 29.5575H84.2207L85.1672 26.2798ZM84.9688 28.3258H85.8492L85.4318 26.7427H85.4235L84.9688 28.3258Z" fill="white"/>
<path d="M86.8203 26.2798H87.3452L88.4282 29.016H88.4364V26.2798H88.8415V29.5575H88.2876L87.2378 26.9039H87.2295V29.5575H86.8244V26.2798H86.8203Z" fill="white"/>
<path d="M89.0986 26.2798H89.545L90.1692 27.8133L90.8181 26.2798H91.2397L90.3717 28.2721V29.5575H89.9666V28.2721L89.0986 26.2798Z" fill="white"/>
</g>
<defs>
<clipPath id="clip0_635_5607">
<rect width="91.4583" height="31" fill="white"/>
</clipPath>
</defs>
</svg>
