<svg xmlns="http://www.w3.org/2000/svg" width="216.16" height="75" viewBox="0 0 216.16 75"><defs><style>.cls-1{fill:#d0cfcd;}.cls-2{fill:#333;}</style></defs><g id="Black_Logos" data-name="Black Logos"><rect class="cls-1" x="1.57" y="1.58" width="71.38" height="71.85"/><polygon class="cls-2" points="70.08 33.32 70.08 4.7 4.37 4.7 4.37 33.32 4.37 33.32 4.37 35.95 19.5 35.93 14.51 21.66 59.95 21.66 54.94 35.93 70.09 35.95 70.09 33.32 70.08 33.32"/><polygon class="cls-2" points="70.08 42.96 45.06 42.96 50.04 28.69 24.42 28.69 29.41 42.96 4.37 42.96 4.37 45.59 4.37 45.59 4.37 70.67 70.08 70.67 70.08 45.59 70.08 45.59 70.08 42.96"/><path class="cls-2" d="M74.43,75H0V0H74.43ZM2,73H72.41V2H2Z"/><path class="cls-1" d="M98.73,26.4a6.64,6.64,0,0,1-2,4.76,6.49,6.49,0,0,1-4.79,2H85.19V4.59H92a6.48,6.48,0,0,1,4.76,2,6.56,6.56,0,0,1,2,4.8ZM89.5,29h2.59a2.26,2.26,0,0,0,1.74-.74,2.49,2.49,0,0,0,.7-1.74v-15a2.39,2.39,0,0,0-.72-1.75A2.34,2.34,0,0,0,92.09,9H89.5Z"/><path class="cls-1" d="M110.85,4.24A6.82,6.82,0,0,1,117.71,11V26.68a6.83,6.83,0,0,1-13.65,0h0V11.09a6.83,6.83,0,0,1,6.82-6.83ZM113.21,11a2.46,2.46,0,0,0-2.44-2.46h-.06a2.44,2.44,0,0,0-1.75.71,2.39,2.39,0,0,0-.7,1.75V26.62a2.38,2.38,0,0,0,.73,1.74,2.42,2.42,0,0,0,1.75.71,2.46,2.46,0,0,0,2.47-2.44V11Z"/><path class="cls-1" d="M127,33.16,121.92,4.62h4.5L130,26.87l3.61-22.25h4.53L133,33.17Z"/><path class="cls-1" d="M143.05,33.16V4.59H155.3V8.92h-8v7.79h5.81V21h-5.81v7.79h8v4.33Z"/><path class="cls-1" d="M163.81,9h-4.58V4.62h13.45V9h-4.55V33.17h-4.32Z"/><path class="cls-1" d="M179.33,26.61l-1.05,6.56H173.8l4.86-28.55h5.92l4.79,28.55h-4.53l-1-6.56ZM181.6,11.2,180,22.41h3.19Z"/><path class="cls-1" d="M198.26,33.16H194V4.62h4.31Z"/><path class="cls-1" d="M216.16,33.16H204.42V4.62h4.31V28.88h7.43Z"/><path class="cls-1" d="M91.46,43c-.14-1.4-.88-2.51-2.33-2.51-2.8,0-2.95,4-2.95,5s0,4.89,2.9,4.89c1.74,0,2.34-1.49,2.52-2.72l1,.3a3.53,3.53,0,0,1-3.5,3.34,3.43,3.43,0,0,1-3-1.51,6.72,6.72,0,0,1-1-3.88,9,9,0,0,1,.88-4.38,3.56,3.56,0,0,1,3.36-2,3.17,3.17,0,0,1,3.22,3.09Z"/><path class="cls-1" d="M103.21,49.24a3.28,3.28,0,0,1-3.12,2.09,3.52,3.52,0,0,1-2.81-1.19A6.87,6.87,0,0,1,96,45.78a9.74,9.74,0,0,1,.7-4.2,3.57,3.57,0,0,1,4.78-1.64,3.44,3.44,0,0,1,1.34,1.14,8.36,8.36,0,0,1,1,4.38A8.91,8.91,0,0,1,103.21,49.24ZM100,40.52a2.51,2.51,0,0,0-2.27,1.75,9.3,9.3,0,0,0-.49,3.31,8,8,0,0,0,.59,3.35,2.33,2.33,0,0,0,4.33,0,7.72,7.72,0,0,0,.59-3.39C102.75,43.78,102.49,40.52,100,40.52Z"/><path class="cls-1" d="M110.36,39.82l2.92,7c.26.66.63,1.73.91,2.39.11.28.22.66.37.66s.14-.08.14-.25v-9.8h1.11v11.1h-2l-3.07-7.55c-.35-.87-.37-.95-.7-1.79-.18-.49-.23-.76-.36-.76a.14.14,0,0,0-.14.14v10H108.4V39.82Z"/><path class="cls-1" d="M126.28,42.38a2.38,2.38,0,0,0-2.39-1.88,1.88,1.88,0,0,0-2,1.78v.1c0,1.2,1.14,1.71,1.7,1.94l1.61.63c1.63.69,2.5,1.41,2.5,3.21a3.14,3.14,0,0,1-1.15,2.42,4.16,4.16,0,0,1-2.49.69,3.86,3.86,0,0,1-3.57-2.53l1-.49a3.23,3.23,0,0,0,1.4,1.75,3.12,3.12,0,0,0,1.61.36,2,2,0,0,0,2.16-1.9v-.21a2,2,0,0,0-1.19-1.89l-.55-.27c-.68-.35-1.4-.6-2.12-.93a3,3,0,0,1-1.59-1.4,3.3,3.3,0,0,1-.3-1.31,2.8,2.8,0,0,1,2.77-2.83l.42,0a3.4,3.4,0,0,1,3.32,2.29Z"/><path class="cls-1" d="M138.5,39.82v1h-3.56V50.92h-1.19V40.78h-3.54v-1Z"/><path class="cls-1" d="M142.79,39.82h3.63a3.49,3.49,0,0,1,2.8.85,2.78,2.78,0,0,1,.81,2.17,2.8,2.8,0,0,1-2.49,3.08,3.13,3.13,0,0,1-.53,0l3.5,5h-1.4L145.9,46H144v4.92h-1.14Zm3,5.18c1.12,0,3,0,3-2.1s-1.4-2.08-2.5-2.08h-2.38V45Z"/><path class="cls-1" d="M155.37,39.82v7.94a2.35,2.35,0,0,0,2.1,2.57l.24,0a2.53,2.53,0,0,0,2.7-2.33,3.65,3.65,0,0,0,0-.47V39.82h1.12v7.8a3.42,3.42,0,0,1-3.09,3.71,4,4,0,0,1-4.25-3.21,3.85,3.85,0,0,1,0-.48V39.82Z"/><path class="cls-1" d="M172.59,43c-.14-1.4-.88-2.51-2.32-2.51-2.8,0-3,4-3,5s0,4.89,2.9,4.89c1.73,0,2.34-1.49,2.52-2.72l1,.31a3.54,3.54,0,0,1-3.5,3.35,3.43,3.43,0,0,1-3-1.53,6.79,6.79,0,0,1-1-3.88,9.07,9.07,0,0,1,.88-4.38,3.55,3.55,0,0,1,3.35-2,3.18,3.18,0,0,1,3.18,3.09Z"/><path class="cls-1" d="M185.28,39.82v1h-3.56V50.92h-1.19V40.78H177v-1Z"/><path class="cls-1" d="M188.61,50.28h1.22V40.47h-1.22v-.65h3.61v.65H191v9.81h1.21v.65h-3.61Z"/><path class="cls-1" d="M203,49.24a3.28,3.28,0,0,1-3.12,2.09,3.5,3.5,0,0,1-2.8-1.19,6.75,6.75,0,0,1-1.26-4.36,9.74,9.74,0,0,1,.7-4.2,3.39,3.39,0,0,1,3.19-2,3.35,3.35,0,0,1,3,1.51,8.28,8.28,0,0,1,1,4.38A8.7,8.7,0,0,1,203,49.24Zm-3.21-8.72a2.51,2.51,0,0,0-2.21,1.75,9.3,9.3,0,0,0-.49,3.31,7.84,7.84,0,0,0,.59,3.35,2.33,2.33,0,0,0,4.33,0,7.57,7.57,0,0,0,.58-3.39C202.49,43.78,202.24,40.52,199.74,40.52Z"/><path class="cls-1" d="M210.13,39.82l2.92,7c.26.66.63,1.73.91,2.39.11.28.22.66.37.66s.14-.08.14-.25v-9.8h1.11v11.1h-2l-3.08-7.55c-.35-.87-.38-.95-.7-1.79-.18-.49-.24-.76-.36-.76a.14.14,0,0,0-.14.14v10h-1.11V39.82Z"/><rect class="cls-1" x="85.03" y="57.37" width="130.55" height="0.79"/><path class="cls-1" d="M149.74,62.91H151l2,7.42h-1l-.53-2H149.1l-.55,2h-1Zm-.45,4.63h2L150.34,64h0Z"/><path class="cls-1" d="M154.94,70.36V62.87h2.2a2.39,2.39,0,0,1,1.49.38,1.35,1.35,0,0,1,.5,1.15V65a1.66,1.66,0,0,1-.21.88,1.41,1.41,0,0,1-.67.53,1.6,1.6,0,0,1,.79.51,1.54,1.54,0,0,1,.24.9v.66a1.79,1.79,0,0,1-.54,1.43,2.48,2.48,0,0,1-1.65.47Zm1.68-4.5a1.22,1.22,0,0,0,.7-.17.62.62,0,0,0,.19-.51v-.46a.54.54,0,0,0-.19-.46,1.43,1.43,0,0,0-.7-.12Zm0,3.24a1.44,1.44,0,0,0,.78-.17.77.77,0,0,0,.19-.61v-.5a.75.75,0,0,0-.21-.61,1.2,1.2,0,0,0-.76-.17Z"/><path class="cls-1" d="M160,70.36V62.87h1.69v7.49Z"/><path class="cls-1" d="M165.37,70.36v-.58a1.82,1.82,0,0,1-.6.51,1.65,1.65,0,0,1-.77.18,1.29,1.29,0,0,1-1.14-.59,3.15,3.15,0,0,1-.38-1.73V65.07a2.37,2.37,0,0,1,.56-1.73,2.69,2.69,0,0,1,3.34,0,2.4,2.4,0,0,1,.56,1.73v.36h-1.71V64.8a.89.89,0,0,0-.13-.53.45.45,0,0,0-.4-.17.43.43,0,0,0-.39.17.9.9,0,0,0-.12.53v3.63a.92.92,0,0,0,.12.53.47.47,0,0,0,.4.16.45.45,0,0,0,.39-.16.91.91,0,0,0,.13-.53v-.84h-.58V66.21h2.29v4.15Z"/><path class="cls-1" d="M167.64,68V66.56h2.43V68Z"/><path class="cls-1" d="M170.81,62.87h2.1a2.81,2.81,0,0,1,1.83.43,2.14,2.14,0,0,1,.47,1.59v3.45a2.87,2.87,0,0,1-.14,1,1.61,1.61,0,0,1-.48.63,1.55,1.55,0,0,1-.66.31,5.92,5.92,0,0,1-1.32.1h-1.8Zm1.91,1.27h-.21v4.93h.21a1,1,0,0,0,.63-.14.78.78,0,0,0,.15-.56V64.85a.78.78,0,0,0-.15-.56A.89.89,0,0,0,172.72,64.14Z"/><path class="cls-1" d="M181.83,67.78c-.09,1.4-.64,2.69-2.26,2.69-2.11,0-2.39-2-2.39-3.85s.35-3.86,2.39-3.86c1.52,0,2.15.85,2.2,2.31h-1c0-.84-.29-1.56-1.24-1.56-1.26,0-1.43,1.39-1.43,3.11s.17,3.1,1.43,3.1,1.27-1,1.3-1.94Z"/><path class="cls-1" d="M187.36,66.62c0,1.87-.34,3.85-2.39,3.85s-2.39-2-2.39-3.85.34-3.86,2.39-3.86S187.36,64.75,187.36,66.62Zm-3.83,0c0,1.71.17,3.1,1.44,3.1s1.43-1.39,1.43-3.1-.16-3.11-1.43-3.11S183.53,64.9,183.53,66.62Z"/><path class="cls-1" d="M188.48,62.91H190l1.49,5.88h0L193,62.91h1.54v7.41h-.91V63.84h0L192,70.32h-.92l-1.64-6.48h0v6.48h-.92Z"/><path class="cls-1" d="M195.78,62.91h1.89A2,2,0,0,1,200,65a2,2,0,0,1-2.14,2.15H196.7v3.13h-.92Zm.92,3.53h1.09c.66,0,1.22-.46,1.22-1.45a1.17,1.17,0,0,0-1.28-1.34h-1Z"/><path class="cls-1" d="M201.85,62.91h1.23l2,7.41h-.95l-.53-2h-2.37l-.55,2h-1Zm-.44,4.63h2L202.46,64h0Z"/><path class="cls-1" d="M205.6,62.91h1.18l2.45,6.19h0V62.91h.92v7.41h-1.26l-2.38-6h0v6h-.91Z"/><path class="cls-1" d="M210.75,62.91h1l1.42,3.47,1.46-3.47h1l-2,4.51v2.9h-.91v-2.9Z"/></g></svg>