<?xml version="1.0" encoding="UTF-8"?>
<svg id="Layer_2" xmlns="http://www.w3.org/2000/svg" version="1.1" viewBox="0 0 192.55 75">
  <!-- Generator: Adobe Illustrator 29.7.1, SVG Export Plug-In . SVG Version: 2.1.1 Build 8)  -->
  <defs>
    <style>
      .st0 {
        fill: #333;
      }

      .st1 {
        fill: #dfdedd;
      }
    </style>
  </defs>
  <g>
    <g>
      <path class="st1" d="M27.63,72.02v.13c0,1.15-.12,1.71-.46,2.08-.55.62-1.32.76-3.93.76-3.21,0-3.8-.06-4.51-.45-.46-.25-.76-.69-.92-1.3-.11-.41-.17-1.35-.17-2.49,0-2.24.23-3,1.07-3.47.69-.39,1.52-.48,4.07-.48,2.79,0,3.72.16,4.22.72.35.37.53,1.07.53,2.05h-1.77c0-1.17-.24-1.28-2.9-1.28-1.88,0-2.42.05-2.81.25-.46.24-.55.69-.55,2.42,0,2.34.19,2.52,2.7,2.52l2.46-.05c.87-.08,1.17-.41,1.17-1.24v-.18h1.8Z"/>
      <path class="st1" d="M41.78,67.58c.34.37.52.89.59,1.7.04.37.05.81.05,1.7,0,2.02-.19,2.79-.81,3.33-.45.39-1.05.58-2.06.64-.39.02-1.85.05-2.97.05-2.46,0-3.12-.07-3.81-.45-.53-.29-.88-.84-.99-1.64-.07-.53-.1-.97-.1-2.28,0-1.88.18-2.63.76-3.14.43-.39,1-.57,2.04-.65.41-.04,1.62-.06,3.09-.06,2.85,0,3.61.14,4.21.8ZM33.57,70.9c0,1.57.12,2.08.57,2.3.45.24.83.28,3.14.28,2.08,0,2.59-.08,2.92-.45.28-.3.36-.82.36-2.18,0-2.52-.02-2.55-3.5-2.55s-3.49.04-3.49,2.59Z"/>
      <path class="st1" d="M46.69,66.87h2.88l6.04,6.7-.04-6.7h1.77v8.05h-2.9l-6.01-6.66.04,6.66h-1.8v-8.05Z"/>
      <path class="st1" d="M63.45,72.37v.08c0,.52.1.8.33.93.29.17.92.24,2.1.24,1,0,1.63-.04,2.5-.15.46-.06.69-.14.83-.31.16-.19.24-.43.24-.69,0-.47-.21-.7-.76-.82-.34-.07-.35-.07-2.55-.08h-1.16c-1.7-.01-2.36-.14-2.81-.55-.39-.34-.57-.84-.57-1.56,0-.89.22-1.63.6-1.97.54-.51,1.77-.7,4.43-.7,1.62,0,2.49.06,3.04.23,1,.29,1.35.83,1.35,2.08v.16h-1.81c-.01-.47-.13-.71-.39-.83-.34-.16-1.11-.25-2-.25-1.52,0-2.58.1-2.94.28-.29.13-.43.41-.43.78,0,.35.11.58.34.71.28.16.74.21,2,.21h1.36c2.41,0,3.15.13,3.66.68.34.35.49.88.49,1.68,0,.84-.18,1.42-.58,1.81-.53.51-1.57.68-4.28.68-2.9,0-3.8-.13-4.31-.62-.36-.35-.52-.83-.52-1.59,0-.07,0-.25.01-.41h1.82Z"/>
      <path class="st1" d="M78.6,68.38h-3.79v-1.51h9.42v1.51h-3.78v6.54h-1.86v-6.54Z"/>
      <path class="st1" d="M88.05,66.87h6.82c1.41,0,2.05.17,2.49.64.35.39.52,1.01.52,1.93s-.11,1.38-.35,1.68c-.24.3-.53.45-1.01.53,1.01.08,1.24.4,1.23,1.68v1.59h-1.87v-1.21c-.02-1.1-.28-1.32-1.5-1.3h-4.48v2.51h-1.85v-8.05ZM94.31,70.92c1.35,0,1.69-.24,1.69-1.21,0-1.11-.28-1.34-1.65-1.34h-4.45v2.55h4.42Z"/>
      <path class="st1" d="M112.07,66.87v5.07c0,1.53-.24,2.16-1.01,2.59-.69.4-1.38.47-4.22.47s-3.63-.17-4.22-.83c-.41-.47-.53-1.03-.53-2.51v-4.79h1.86v4.21q0,1.07.06,1.41c.13.86.6,1.01,3.02,1.01,1.09,0,2.09-.05,2.36-.12.47-.12.72-.41.8-.92q.02-.15.04-1.27v-4.33h1.86Z"/>
      <path class="st1" d="M126.27,72.02v.13c0,1.15-.12,1.71-.46,2.08-.55.62-1.32.76-3.93.76-3.21,0-3.8-.06-4.51-.45-.46-.25-.76-.69-.92-1.3-.11-.41-.17-1.35-.17-2.49,0-2.24.23-3,1.07-3.47.69-.39,1.52-.48,4.07-.48,2.79,0,3.72.16,4.22.72.35.37.53,1.07.53,2.05h-1.77c0-1.17-.24-1.28-2.9-1.28-1.88,0-2.42.05-2.81.25-.46.24-.55.69-.55,2.42,0,2.34.19,2.52,2.7,2.52l2.46-.05c.87-.08,1.17-.41,1.17-1.24v-.18h1.8Z"/>
      <path class="st1" d="M133.65,68.38h-3.79v-1.51h9.42v1.51h-3.78v6.54h-1.86v-6.54Z"/>
      <path class="st1" d="M143.1,66.87h1.86v8.05h-1.86v-8.05Z"/>
      <path class="st1" d="M159.33,67.58c.34.37.52.89.59,1.7.04.37.05.81.05,1.7,0,2.02-.19,2.79-.81,3.33-.45.39-1.05.58-2.06.64-.39.02-1.85.05-2.97.05-2.46,0-3.12-.07-3.81-.45-.53-.29-.88-.84-.99-1.64-.07-.53-.1-.97-.1-2.28,0-1.88.18-2.63.76-3.14.43-.39,1-.57,2.04-.65.41-.04,1.62-.06,3.09-.06,2.85,0,3.61.14,4.21.8ZM151.13,70.9c0,1.57.12,2.08.57,2.3.45.24.83.28,3.14.28,2.08,0,2.59-.08,2.92-.45.28-.3.36-.82.36-2.18,0-2.52-.02-2.55-3.5-2.55s-3.49.04-3.49,2.59Z"/>
      <path class="st1" d="M164.24,66.87h2.88l6.04,6.7-.04-6.7h1.77v8.05h-2.9l-6.01-6.66.04,6.66h-1.8v-8.05Z"/>
    </g>
    <path class="st0" d="M147.09,57.53H45.46c-15.34,0-27.82-12.9-27.82-28.76S30.12,0,45.46,0h101.63C162.43,0,174.91,12.9,174.91,28.76s-12.48,28.76-27.82,28.76"/>
  </g>
  <g>
    <g>
      <g>
        <path class="st1" d="M126.54,26.04h-.2c-.82,0-1.43-.12-1.83-.36-.36-.22-.55-.68-.55-1.37v-13.31c0-.74.23-1.22.69-1.46.29-.15.86-.24,1.69-.27h.19v-1.1h-10.01v1.09h.19c.79.04,1.34.14,1.63.29.46.24.68.71.68,1.45v13.31c0,.74-.24,1.22-.72,1.47-.31.16-.85.24-1.59.26h-.2v1.1h10.01v-1.1Z"/>
        <path class="st1" d="M114.88,8.17h-3.51s-5.38,0-5.38,0h-4.57s-3.48,0-3.48,0l-.03,5.94h1.18l.02-.18c.16-1.88.88-3.18,2.12-3.86.63-.34,1.54-.54,2.7-.6v14.83c0,.73-.22,1.21-.68,1.45-.29.15-.84.25-1.63.28h-.19v1.1h2.16s6.42,0,6.42,0h0s1.37,0,1.37,0v-1.09h-.05s.02,0,.02,0c0,0-.02,0-.03,0h-.13c-.79-.04-1.34-.14-1.63-.29-.46-.24-.68-.71-.68-1.45v-14.83c1.2.05,2.11.25,2.72.6,1.16.66,1.88,1.97,2.13,3.87l.02.18h1.17l-.03-5.94Z"/>
        <path class="st1" d="M148.1,8.17h-6.28v1.09h.19c.79.04,1.34.14,1.63.29.46.24.68.71.68,1.45v5.73h0v2.72l-9.22-11.21-.06-.07h-6.12v1.08l.18.02c.3.04.53.13.7.27.13.11.49.47,1.48,1.58v12.94c0,.09,0,.18,0,.27,0,.72-.23,1.18-.68,1.42-.29.15-.84.25-1.63.28h-.19v1.1h.09s5.1,0,5.1,0h0s.85,0,.85,0h.58v-1.09h-.19c-.79-.04-1.34-.14-1.63-.29-.46-.24-.68-.71-.68-1.45v-11.21l11.55,14.04h1.49v-15.88c0-.11,0-.21,0-.3,0-.71.23-1.17.68-1.4.29-.15.84-.25,1.63-.28h.19v-1.1h-.35Z"/>
        <path class="st1" d="M98.01,26.08c-.23-.02-.42-.05-.57-.11-.13-.05-.26-.17-.39-.35l-5.91-7.57c.9-.21,2.02-.61,2.83-1.21,1.2-.89,1.81-2.14,1.81-3.69,0-2.11-1.16-3.58-3.44-4.39-1.15-.39-2.67-.59-4.52-.59h-2.75s-1.89,0-1.89,0h-4.57v1.09h.19c.09.01.17.02.25.02.64.06,1.04.14,1.29.23.03.01.06.03.09.04.46.24.68.71.68,1.45v13.31c0,.23-.04.41-.09.58-.29.73-1,1.24-1.82,1.24-.55,0-1.09-.22-1.47-.63l-.03-.04s-.07-.1-.11-.17c-.02-.03-.03-.06-.05-.08l-.03-.05c-.24-.4-.55-1.02-.92-1.85h0c-.13-.29-.27-.61-.42-.95l-1.5-3.54h0l-4.52-10.64h-1.34s-6.14,15.11-6.15,15.14h0c-.41.97-.72,1.62-.95,1.92-.23.31-.51.54-.85.68-.28.13-.56.2-.85.2-1.09,0-1.97-.88-1.97-1.97,0-.03,0-.05,0-.08,0-.03,0-.05,0-.08v-.03s0-.03,0-.03c-.02-.07-.02-.13-.02-.19v-12.73c0-.73.22-1.21.68-1.45.29-.15.84-.25,1.63-.28h.19v-1.1h-7.63l-5.36,12.67-5.33-12.55-.05-.12h-7.59v1.09h.19c.79.04,1.34.14,1.63.29.46.24.68.71.68,1.45v5.8h0v1.78h0v5.73c0,.73-.22,1.21-.68,1.45-.29.15-.84.25-1.63.28h-.19v1.1h6.57v-1.09h-.19c-.79-.04-1.34-.14-1.63-.29-.46-.24-.68-.71-.68-1.45v-4.99s0-7.51,0-7.51l6.59,15.33h1.27l6.6-15.83v12.9s0,.08,0,.12c0,.72-.23,1.19-.68,1.42-.29.15-.84.25-1.63.28h-.19v1.1h15.47v-1.09h-.19c-.79-.04-1.34-.14-1.63-.29-.46-.24-.35-.91-.18-1.45h0c.05-.17.1-.35.17-.55v-.02c.06-.16.13-.3.21-.44h0c.15-.25.33-.47.56-.66.69-.57,1.59-.87,2.46-.87h3.41c.78,1.92.97,2.39.99,2.43.03.08.05.15.07.22.14.51.21,1.1-.22,1.32-.29.15-.84.25-1.63.28h-.19v1.1h18.56s.09,0,.09,0v-1.09h-.19c-.49-.03-.89-.07-1.19-.14,0,0,0,0-.01,0-.01,0-.02,0-.03,0-.29-.08-.51-.2-.65-.34-.28-.29-.43-.9-.43-1.81v-4.79l2.56,3.43,3.5,4.68.06.08h6.04v-1.05h-.19ZM70.26,20.25h-2.81c-.69,0-1.38.14-2.03.42.93-2.43,2.12-5.53,2.42-6.31.3.72,1.43,3.48,2.42,5.89ZM86.05,17.26v-6.78c0-.35.09-.61.27-.75.06-.05.16-.1.32-.14.05-.01.55-.08.62-.08.11,0,.24,0,.38,0,1.28,0,2.13.48,2.61,1.45.28.59.42,1.41.42,2.43,0,2.71-.94,3.87-4.61,3.87Z"/>
      </g>
      <path class="st1" d="M156.54,16.41c-.46.67-1.08.77-1.67.71l-1.71-.23-1.32-.18c-1.22-.13-2.34.76-2.47,2l-.21,2.3.62.2c.46-.67,1.08-.77,1.67-.71l1.71.23,1.32.18c1.22.13,2.34-.76,2.47-2l.21-2.3-.62-.2Z"/>
    </g>
    <g>
      <path class="st1" d="M138.6,32.17c.29-.15.86-.24,1.69-.27h.19v-1.1h-10.01v1.09h.19c.79.04,1.34.14,1.63.29.46.24.68.71.68,1.45v13.31c0,.74-.24,1.22-.72,1.47-.31.16-.85.24-1.59.26h-.19s0,0,0,0h-.19c-.23-.03-.42-.07-.57-.13-.13-.05-.26-.17-.39-.35l-5.88-7.53c.9-.21,2.02-.61,2.83-1.21,1.2-.89,1.81-2.14,1.81-3.69,0-2.11-1.16-3.58-3.44-4.39-1.15-.39-2.67-.59-4.52-.59h-2.75s-6.46,0-6.46,0v1.09h.19c.09.01.17.02.25.02.64.06,1.04.14,1.29.23.03.01.06.03.09.04.46.24.68.71.68,1.45v7.59h0v5.73c0,.73-.22,1.21-.68,1.45-.29.15-.84.25-1.63.28h-.14s-.48,0-.48,0c-.53-.04-.92-.35-1.05-.53l-5.83-7.46c.9-.21,2.02-.61,2.83-1.21,1.2-.89,1.81-2.14,1.81-3.69,0-2.11-1.16-3.58-3.44-4.39-1.15-.39-2.67-.59-4.52-.59h-2.75s-6.46,0-6.46,0v1.09h.19c.09.01.17.02.25.02.64.06,1.04.14,1.29.23.03.01.06.03.09.04.46.24.68.71.68,1.45v13.31c0,.23-.04.41-.09.58-.18.44-.51.81-.93,1.02,0,0-.01,0-.02,0-.15.08-.31.13-.48.16-.03,0-.06.01-.1.02-.07.01-.13.02-.2.02-.02,0-.04,0-.07,0h0s-.06,0-.09,0h0c-.55,0-1.09-.22-1.47-.63l-.03-.04s-.07-.1-.11-.17c-.02-.03-.03-.06-.05-.08l-.03-.05c-.33-.55-.77-1.49-1.33-2.8l-6.02-14.18h-1.35l-6,14.79c-.47,1.17-.84,1.93-1.09,2.27-.23.31-.64.8-1.66.8-.13,0-.25-.02-.36-.03-1.07-.18-1.59-1.07-1.59-1.68v-13.31c0-.18.01-.35.04-.51,0,0,0,0,0,0,.01-.06.03-.13.05-.18,0-.03.02-.05.03-.08.01-.03.02-.06.03-.08.02-.04.04-.08.06-.12,0,0,0-.01.01-.02.11-.19.26-.34.46-.44.13-.07.3-.12.52-.16.3-.06.7-.1,1.18-.12h.19v-.02h0v-1.09h-10.01v1.09h0s.19.02.19.02c.79.03,1.34.13,1.63.28.46.24.68.71.68,1.45v5.55h0s-2.81,0-2.81,0h0s-1.62,0-1.62,0c-1.09,0-2.09.4-2.85,1.07v-6.63c0-.09,0-.18.01-.26.05-.58.27-.97.67-1.18.13-.07.3-.12.52-.16.3-.06.7-.1,1.18-.12h.19v-1.1h0s-10.01,0-10.01,0v1.09h0s.19.02.19.02c.79.03,1.34.13,1.63.28.17.09.31.21.42.37.17.26.26.61.26,1.07v13.31c0,.74-.24,1.22-.72,1.47-.31.16-.85.24-1.59.26h-.2v1.1h9.94v-1.1h-.2c-.74-.02-1.28-.11-1.59-.26-.48-.25-.72-.73-.72-1.47v-3.37c0-1.57,1.28-2.85,2.85-2.85h1.62s0,0,0,0h0s2.81,0,2.81,0v6.21s0,0,0,0c0,.64-.18,1.09-.55,1.36-.05.04-.11.07-.17.1-.31.16-.85.24-1.59.26h-.2v1.1h9.54s0,0,0,0h0s.4,0,.4,0h0s1.37,0,1.37,0h4.09v-1.09h-.19c-.79-.04-1.34-.14-1.63-.29-.46-.24-.35-.91-.18-1.45h0c.05-.17.09-.31.16-.51l.02-.06c.16-.46.42-.81.77-1.1.69-.57,1.59-.87,2.46-.87h3.41c.8,1.96.97,2.38.99,2.43.03.08.05.15.07.22.14.51.21,1.1-.22,1.32-.29.15-.84.25-1.63.28h-.19v1.1h9.18s1.09,0,1.09,0h0s8.46,0,8.46,0v-1.1h-.19c-.49-.03-.89-.07-1.19-.14,0,0,0,0-.01,0-.01,0-.02,0-.03,0-.29-.08-.51-.2-.65-.34-.28-.29-.43-.9-.43-1.81v-4.79l2.56,3.43,3.5,4.68.06.08h6.28s4.04,0,4.04,0h.11s5.81,0,5.81,0v-1.1h-.19c-.49-.03-.89-.07-1.19-.14,0,0,0,0-.01,0-.01,0-.02,0-.03,0-.29-.08-.51-.2-.65-.34-.28-.29-.43-.9-.43-1.81v-4.79l2.56,3.43,3.5,4.68.06.08h6.04s9.97,0,9.97,0v-1.09h-.2c-.82,0-1.43-.12-1.83-.36-.36-.22-.55-.68-.55-1.37v-13.31c0-.74.23-1.22.69-1.46ZM79.86,42.88c-.69,0-1.38.14-2.03.42.93-2.43,2.12-5.53,2.42-6.31.3.72,1.43,3.48,2.42,5.9h-2.81ZM98.51,39.88v-6.78c0-.35.09-.61.27-.75.06-.05.16-.1.32-.14.05-.01.55-.08.62-.08.11,0,.24,0,.38,0,1.28,0,2.13.48,2.61,1.45.28.59.42,1.41.42,2.43,0,2.71-.94,3.87-4.61,3.87ZM118.36,39.88v-6.78c0-.35.09-.61.27-.75.06-.05.16-.1.32-.14.05-.01.55-.08.62-.08.11,0,.24,0,.38,0,1.28,0,2.13.48,2.61,1.45.28.59.42,1.41.42,2.43,0,2.71-.94,3.87-4.61,3.87Z"/>
      <path class="st1" d="M154.56,40.27c-.55-.57-1.3-1.09-2.22-1.56l-2.03-1.02c-1.67-.84-2.76-1.48-3.23-1.91-.45-.39-.67-.99-.67-1.79,0-.67.67-2.02,2.75-2.02,3.3,0,4.65,3.2,5,4.55l.04.15h1.12v-6.39h-1.18l-.04.15c-.06.26-.15.47-.25.63-.03.04-.11.17-.45.17-.04,0-.28-.04-1.53-.45-.95-.31-1.94-.47-2.95-.47-2.01,0-3.52.61-4.5,1.82-.97,1.2-1.46,2.5-1.46,3.89,0,1.3.38,2.42,1.12,3.31.73.88,1.99,1.77,3.74,2.66l1.75.89c1.07.53,1.78.97,2.12,1.29.5.48.75,1.09.75,1.87,0,.66-.31,2.47-3.18,2.47-3.32,0-4.39-2.01-5.27-5.4l-.03-.16h-1.16v7.21h1.15l.04-.15c.07-.28.16-.5.25-.65.02-.04.1-.16.41-.16.06,0,.15,0,.25.03.11.02.22.05.32.08l.53.2c.55.22,1.12.38,1.69.49.57.1,1.14.16,1.69.16,2.43,0,4.22-.64,5.33-1.91,1.11-1.26,1.67-2.63,1.67-4.06,0-1.53-.53-2.85-1.56-3.92h0Z"/>
    </g>
  </g>
</svg>