<svg width="116" height="116" viewBox="0 0 116 116" fill="none" xmlns="http://www.w3.org/2000/svg">
<g clip-path="url(#clip0_635_7544)">
<path d="M114.567 1.81445H2.00586V114.375H114.567V1.81445Z" fill="white"/>
<path d="M116 0H0V116H116V0ZM113.23 2.77035V113.23H2.77035V2.77035H113.23Z" fill="#333333"/>
<path d="M110.35 5.66406H5.66309V110.351H110.35V5.66406Z" fill="#333333"/>
<path d="M23.978 39.5356C25.3427 39.5356 26.2843 39.713 26.8029 40.0405C27.3079 40.3817 27.5672 40.9822 27.5672 41.8419V43.6979C27.5672 44.6669 27.3215 45.3492 26.8166 45.7314C26.3253 46.1271 25.37 46.3455 23.978 46.3864V39.5219V39.5356ZM23.978 51.1492C25.4519 51.1492 26.4617 51.3812 27.0349 51.8452C27.5944 52.3092 27.881 53.1281 27.881 54.3017V56.3078C27.881 57.5088 27.6217 58.3276 27.1168 58.7507C26.6119 59.1737 25.561 59.4057 23.9916 59.433V51.1492H23.978ZM25.8749 64.4961C28.8636 64.4961 31.0744 63.8683 32.521 62.6264C33.954 61.3709 34.6773 59.4467 34.6773 56.8537V54.2335C34.6773 52.7323 34.3497 51.5177 33.6947 50.617C33.0396 49.7163 31.9888 49.0203 30.5422 48.5563C31.7704 48.0241 32.6575 47.3144 33.217 46.4137C33.7766 45.513 34.0495 44.3394 34.0495 42.8791V40.5728C34.0495 38.5121 33.3808 36.9699 32.057 35.9464C30.7333 34.9229 28.7408 34.4043 26.0796 34.4043H17.2363V64.5097H25.8613L25.8749 64.4961Z" fill="white"/>
<path d="M37.5156 64.496V34.3906H44.3119V64.496H37.5156Z" fill="white"/>
<path d="M59.1331 64.4953L59.0921 62.148C58.4234 63.0487 57.6183 63.7447 56.6903 64.2223C55.7623 64.7 54.7251 64.932 53.606 64.932C51.5863 64.932 50.0578 64.1404 49.0206 62.571C47.9834 61.0016 47.4648 58.6816 47.4648 55.611V43.2741C47.4648 40.1762 48.2154 37.8562 49.7166 36.3004C51.2178 34.7447 53.4559 33.9668 56.431 33.9668C59.406 33.9668 61.6714 34.7447 63.159 36.2868C64.6465 37.8289 65.3971 40.1626 65.3971 43.2741V44.7207H58.5326V42.1687C58.5326 41.1861 58.3688 40.4628 58.0277 40.0124C57.6865 39.5621 57.1543 39.3437 56.4037 39.3437C55.6531 39.3437 55.1618 39.5757 54.8343 40.0261C54.5067 40.4764 54.3293 41.1997 54.3293 42.1823V56.7301C54.3293 57.699 54.4931 58.4087 54.8343 58.8454C55.1618 59.2821 55.7077 59.5004 56.4446 59.5004C57.1816 59.5004 57.7001 59.2821 58.0413 58.8454C58.3688 58.4087 58.5326 57.699 58.5326 56.7301V53.3866H56.1853V47.8868H65.3971V64.5089H59.1467L59.1331 64.4953Z" fill="white"/>
<path d="M68.249 54.97V49.2246H78.0203V54.97H68.249Z" fill="white"/>
<path d="M91.244 40.1087C91.6262 40.5045 91.8172 41.2414 91.8172 42.3469V56.5398C91.8172 57.6452 91.6262 58.3822 91.244 58.7779C90.8619 59.16 90.0022 59.3511 88.6784 59.3511H87.805V39.5083H88.6784C90.0158 39.5083 90.8756 39.713 91.2577 40.0951L91.244 40.1087ZM81.0087 64.496H87.2454H88.2144C90.6982 64.496 92.4723 64.3732 93.5231 64.1276C94.5739 63.8819 95.4746 63.4725 96.1979 62.8857C97.085 62.1624 97.7127 61.3163 98.0949 60.3337C98.477 59.3647 98.668 58.041 98.668 56.3897V42.5243C98.668 39.4264 98.0266 37.2974 96.7711 36.1374C95.5019 34.9638 93.0591 34.3906 89.4153 34.3906H80.9814V64.496H81.0087Z" fill="white"/>
<path d="M23.8273 78.9352C23.8273 80.0406 23.568 80.8594 23.0357 81.419C22.5035 81.9785 21.712 82.2514 20.6475 82.2514C19.583 82.2514 18.8052 81.9785 18.2593 81.419C17.727 80.8594 17.4541 80.0406 17.4541 78.9352V74.5408C17.4541 73.4354 17.727 72.6166 18.2593 72.0571C18.7915 71.4976 19.583 71.2246 20.6475 71.2246C21.712 71.2246 22.5035 71.4976 23.0357 72.0434C23.568 72.5893 23.8273 73.4218 23.8273 74.5272V75.3597H21.3708V74.1314C21.3708 73.7766 21.3162 73.531 21.1934 73.3672C21.0706 73.2034 20.8795 73.1216 20.6339 73.1216C20.3882 73.1216 20.1972 73.2034 20.088 73.3672C19.9788 73.5173 19.9106 73.7766 19.9106 74.1314V79.3037C19.9106 79.6448 19.9652 79.9041 20.088 80.0679C20.2108 80.218 20.3882 80.2999 20.6475 80.2999C20.9068 80.2999 21.0842 80.218 21.207 80.0679C21.3162 79.9041 21.3845 79.6585 21.3845 79.3037V77.8434H23.8409V78.9079L23.8273 78.9352Z" fill="white"/>
<path d="M24.8506 74.5409C24.8506 73.4355 25.1235 72.6166 25.6558 72.0708C26.188 71.5112 26.9932 71.2383 28.044 71.2383C29.0948 71.2383 29.9 71.5112 30.4322 72.0571C30.9645 72.603 31.2238 73.4355 31.2238 74.5409V78.9352C31.2238 80.0406 30.9645 80.8595 30.4322 81.419C29.9 81.9785 29.1085 82.2515 28.044 82.2515C26.9795 82.2515 26.2016 81.9785 25.6558 81.419C25.1235 80.8595 24.8506 80.027 24.8506 78.9352V74.5409ZM27.3071 74.1451V79.331C27.3071 79.6858 27.3616 79.9315 27.4845 80.0952C27.5936 80.2453 27.7847 80.3272 28.044 80.3272C28.3033 80.3272 28.4807 80.2453 28.5899 80.0952C28.6991 79.9315 28.7673 79.6858 28.7673 79.331V74.1451C28.7673 73.8039 28.7127 73.5446 28.5899 73.3945C28.4671 73.2307 28.2896 73.1489 28.0304 73.1489C27.7711 73.1489 27.5936 73.2307 27.4845 73.3945C27.3616 73.5583 27.3071 73.8039 27.3071 74.1451Z" fill="white"/>
<path d="M32.3564 82.1016V71.4023H35.0585L36.3141 75.7421C36.4505 76.2198 36.587 76.711 36.7235 77.2296C36.8463 77.7346 36.9828 78.2805 37.1056 78.8536C37.0374 78.3214 36.9828 77.7755 36.9418 77.2433C36.9145 76.711 36.8872 76.0833 36.8872 75.3736V71.4023H39.2345V82.1016H36.6143L35.2223 77.5026C35.0722 77.0249 34.9357 76.52 34.8129 76.0151C34.6901 75.4965 34.5672 74.9642 34.4717 74.391C34.5399 75.1962 34.5945 75.9468 34.6355 76.6565C34.6764 77.3661 34.6901 78.0212 34.6901 78.6353V82.1016H32.3428H32.3564Z" fill="white"/>
<path d="M40.1768 78.403H42.5786V79.2627C42.5786 79.6176 42.6469 79.8905 42.7697 80.0679C42.8925 80.2453 43.0972 80.3272 43.3565 80.3272C43.6022 80.3272 43.7932 80.2453 43.9433 80.0816C44.0935 79.9178 44.1617 79.7131 44.1617 79.4538C44.1617 79.2354 44.0935 79.0034 43.957 78.7851C43.8205 78.5667 43.6022 78.3484 43.3292 78.1164C43.2064 78.0208 43.029 77.8707 42.7833 77.6933C42.0055 77.0792 41.4596 76.6288 41.1593 76.315C40.8864 76.0284 40.6681 75.7008 40.5316 75.3187C40.3951 74.9366 40.3269 74.5272 40.3269 74.0768C40.3269 73.1761 40.5998 72.4801 41.1457 71.9752C41.6916 71.4703 42.4695 71.2246 43.4521 71.2246C44.4346 71.2246 45.1852 71.4566 45.6902 71.907C46.1815 72.3573 46.4408 73.0397 46.4408 73.954V74.8411H44.148V74.1041C44.148 73.763 44.0935 73.5037 43.9706 73.3399C43.8478 73.1761 43.6568 73.0943 43.3975 73.0943C43.1928 73.0943 43.0153 73.1761 42.8925 73.3126C42.7697 73.4627 42.7015 73.6538 42.7015 73.8858C42.7015 74.2952 43.2337 74.923 44.2982 75.7964C44.3255 75.8237 44.3528 75.8373 44.3528 75.851C44.3937 75.8919 44.4619 75.9465 44.5438 76.0011C45.4855 76.779 46.0313 77.3385 46.2224 77.6797C46.3452 77.9117 46.4408 78.1573 46.4953 78.4303C46.5499 78.7032 46.5909 78.9898 46.5909 79.3037C46.5909 80.218 46.3043 80.9413 45.7311 81.4599C45.1579 81.9785 44.3664 82.2378 43.3292 82.2378C42.2921 82.2378 41.5278 81.9785 40.9956 81.4599C40.4633 80.9413 40.204 80.1907 40.204 79.1945V78.3893L40.1768 78.403Z" fill="white"/>
<path d="M48.4327 82.1016V73.463H46.8496V71.3887H52.4313V73.463H50.8482V82.1016H48.4327Z" fill="white"/>
<path d="M53.0322 82.1016V71.4023H56.4986C57.4129 71.4023 58.0816 71.6071 58.532 71.9892C58.9687 72.3849 59.2007 72.9854 59.2007 73.7769V74.391C59.2007 74.9506 59.0915 75.3873 58.8868 75.7012C58.6821 76.0287 58.3409 76.2743 57.8769 76.4518C58.3409 76.6019 58.6821 76.8202 58.8868 77.1478C59.0915 77.4616 59.2007 77.912 59.2007 78.4988V80.9689C59.2007 81.2555 59.2143 81.4875 59.2553 81.6649C59.2962 81.8287 59.3508 81.9788 59.4327 82.1153H56.9899C56.9216 82.0061 56.8807 81.856 56.8534 81.6786C56.8261 81.5012 56.8125 81.2282 56.8125 80.8871V78.8127C56.8125 78.2259 56.7169 77.8574 56.5395 77.68C56.3485 77.5162 55.9936 77.4207 55.4341 77.4071V82.1016H53.0322ZM55.4341 75.6875C55.9663 75.6739 56.3348 75.592 56.5259 75.4555C56.7169 75.3191 56.8125 75.0871 56.8125 74.7459V74.1318C56.8125 73.7769 56.7169 73.5313 56.5395 73.3948C56.3621 73.2583 56.0209 73.1901 55.5296 73.1901H55.4341V75.6739V75.6875Z" fill="white"/>
<path d="M62.7758 71.3887V79.3313C62.7758 79.6861 62.8304 79.9317 62.9396 80.0955C63.0488 80.2456 63.2398 80.3275 63.4855 80.3275C63.7311 80.3275 63.9358 80.2456 64.045 80.0955C64.1678 79.9317 64.2224 79.6861 64.2224 79.3449V71.4023H66.638V78.9491C66.638 80.0546 66.3787 80.8734 65.8464 81.4329C65.3142 81.9924 64.5363 82.2654 63.4718 82.2654C62.4074 82.2654 61.6431 81.9924 61.1245 81.4329C60.606 80.8734 60.333 80.0409 60.333 78.9491V71.4023H62.7485L62.7758 71.3887Z" fill="white"/>
<path d="M74.1163 78.9352C74.1163 80.0406 73.8434 80.8594 73.3248 81.419C72.7926 81.9785 72.001 82.2514 70.9366 82.2514C69.8721 82.2514 69.0942 81.9785 68.5483 81.419C68.0161 80.8594 67.7432 80.0406 67.7432 78.9352V74.5408C67.7432 73.4354 68.0161 72.6166 68.5483 72.0571C69.0806 71.4976 69.8721 71.2246 70.9366 71.2246C72.001 71.2246 72.7926 71.4976 73.3248 72.0434C73.857 72.5893 74.1163 73.4218 74.1163 74.5272V75.3597H71.6599V74.1314C71.6599 73.7766 71.6053 73.531 71.4825 73.3672C71.3596 73.2034 71.1822 73.1216 70.9229 73.1216C70.6636 73.1216 70.4862 73.2034 70.377 73.3672C70.2679 73.5173 70.1996 73.7766 70.1996 74.1314V79.3037C70.1996 79.6448 70.2679 79.9041 70.377 80.0679C70.4862 80.218 70.6773 80.2999 70.9366 80.2999C71.1959 80.2999 71.3733 80.218 71.4961 80.0679C71.6053 79.9041 71.6735 79.6585 71.6735 79.3037V77.8434H74.13V78.9079L74.1163 78.9352Z" fill="white"/>
<path d="M76.2188 82.1016V73.463H74.6357V71.3887H80.2174V73.463H78.6343V82.1016H76.2188Z" fill="white"/>
<path d="M80.8174 82.1016V71.4023H83.2466V82.1016H80.8174Z" fill="white"/>
<path d="M84.3652 74.5409C84.3652 73.4355 84.6382 72.6166 85.1704 72.0708C85.7026 71.5112 86.4942 71.2383 87.5587 71.2383C88.6231 71.2383 89.4147 71.5112 89.9469 72.0571C90.4791 72.603 90.7384 73.4355 90.7384 74.5409V78.9352C90.7384 80.0406 90.4655 80.8595 89.9469 81.419C89.4147 81.9785 88.6231 82.2515 87.5587 82.2515C86.4942 82.2515 85.7163 81.9785 85.1704 81.419C84.6382 80.8595 84.3652 80.027 84.3652 78.9352V74.5409ZM86.8081 74.1451V79.331C86.8081 79.6858 86.8626 79.9315 86.9855 80.0952C87.0946 80.2453 87.2857 80.3272 87.545 80.3272C87.8043 80.3272 87.9817 80.2453 88.1045 80.0952C88.2137 79.9315 88.2683 79.6858 88.2683 79.331V74.1451C88.2683 73.8039 88.2137 73.5446 88.0909 73.3945C87.9681 73.2307 87.777 73.1489 87.5314 73.1489C87.2857 73.1489 87.0946 73.2307 86.9855 73.3945C86.8626 73.5583 86.8081 73.8039 86.8081 74.1451Z" fill="white"/>
<path d="M91.8574 82.1016V71.4023H94.5732L95.8287 75.7421C95.9652 76.2198 96.1017 76.711 96.2381 77.2296C96.3746 77.7346 96.4974 78.2805 96.6203 78.8536C96.552 78.3214 96.4974 77.7755 96.4565 77.2433C96.4292 76.711 96.4155 76.0833 96.4155 75.3736V71.4023H98.7628V82.1016H96.1426L94.7506 77.5026C94.6005 77.0249 94.464 76.52 94.3412 76.0151C94.2184 75.4965 94.0955 74.9642 94 74.391C94.0682 75.1962 94.1228 75.9468 94.1638 76.6565C94.2047 77.3661 94.2184 78.0212 94.2184 78.6353V82.1016H91.8711H91.8574Z" fill="white"/>
</g>
<defs>
<clipPath id="clip0_635_7544">
<rect width="116" height="116" fill="white"/>
</clipPath>
</defs>
</svg>
