<svg width="114" height="32" viewBox="0 0 114 32" fill="none" xmlns="http://www.w3.org/2000/svg">
<g clip-path="url(#clip0_635_5611)">
<path d="M31.8805 0.213379H0.277344V31.5648H31.8805V0.213379Z" fill="white"/>
<path d="M30.2463 1.75781H1.75781V30.2463H30.2463V1.75781Z" fill="#333333"/>
<path d="M32.2304 0H0V32H32.2304V0ZM0.930133 31.0699V0.930133H31.2747V31.0656H0.930133V31.0699Z" fill="#333333"/>
<path d="M6.83076 13.2863C7.20196 13.2863 7.45796 13.3332 7.59876 13.4228C7.73956 13.5167 7.80783 13.6788 7.80783 13.9135V14.4212C7.80783 14.6858 7.73956 14.8692 7.60303 14.9759C7.46649 15.0826 7.21049 15.1423 6.83076 15.1551V13.2863ZM6.83076 16.4479C7.23183 16.4479 7.50916 16.5119 7.66276 16.6399C7.81636 16.7679 7.89316 16.9898 7.89316 17.3098V17.8559C7.89316 18.1844 7.82489 18.4063 7.68409 18.5215C7.54329 18.6367 7.26169 18.6964 6.83503 18.7092V16.4522L6.83076 16.4479ZM7.34703 20.0831C8.16196 20.0831 8.76356 19.9124 9.15609 19.5711C9.54863 19.2298 9.74489 18.705 9.74489 17.9967V17.2842C9.74489 16.8746 9.65529 16.546 9.47609 16.2986C9.29689 16.0511 9.01103 15.8634 8.61849 15.7396C8.95129 15.5946 9.19449 15.4026 9.34809 15.1551C9.50169 14.9076 9.57423 14.5876 9.57423 14.1951V13.5679C9.57423 13.009 9.39503 12.5866 9.03236 12.3092C8.66969 12.0319 8.12783 11.8911 7.40249 11.8911H4.99609V20.0874H7.34703V20.0831Z" fill="white"/>
<path d="M10.5127 20.0831V11.8911H12.3602V20.0831H10.5127Z" fill="white"/>
<path d="M16.3964 20.0831L16.3879 19.4431C16.2044 19.6905 15.9868 19.8783 15.7308 20.0063C15.4791 20.1343 15.1975 20.2025 14.8903 20.2025C14.3399 20.2025 13.9218 19.9892 13.6402 19.5625C13.3586 19.1359 13.2178 18.5044 13.2178 17.6681V14.3103C13.2178 13.4697 13.4226 12.834 13.8322 12.4116C14.2418 11.9892 14.8519 11.7759 15.6626 11.7759C16.4732 11.7759 17.0876 11.9849 17.493 12.4073C17.8983 12.8297 18.1031 13.4612 18.1031 14.3103V14.7028H16.2343V14.0073C16.2343 13.7385 16.1874 13.5423 16.0978 13.4185C16.0039 13.2948 15.8588 13.2351 15.6583 13.2351C15.4578 13.2351 15.3212 13.2948 15.2316 13.4185C15.142 13.5423 15.0951 13.7385 15.0951 14.0031V17.9625C15.0951 18.2271 15.142 18.4191 15.2316 18.5385C15.3212 18.658 15.4663 18.7177 15.6711 18.7177C15.8759 18.7177 16.0124 18.658 16.1063 18.5385C16.1959 18.4191 16.2428 18.2271 16.2428 17.9625V17.0495H15.6028V15.5519H18.1116V20.0788H16.4092L16.3964 20.0831Z" fill="white"/>
<path d="M18.8799 17.4931V15.9272H21.538V17.4931H18.8799Z" fill="white"/>
<path d="M25.1387 13.4443C25.2411 13.551 25.2965 13.7558 25.2965 14.0544V17.92C25.2965 18.2187 25.2453 18.4235 25.1387 18.5302C25.0363 18.6326 24.8016 18.688 24.4389 18.688H24.2V13.2864H24.4347C24.7973 13.2864 25.032 13.3419 25.1344 13.4486L25.1387 13.4443ZM22.3525 20.0832H24.0507H24.3152C24.9936 20.0832 25.4715 20.0491 25.7616 19.9851C26.0475 19.9211 26.2907 19.8059 26.4912 19.648C26.7301 19.4518 26.9051 19.2214 27.0075 18.9568C27.1099 18.6923 27.1653 18.3339 27.1653 17.8859V14.1142C27.1653 13.2694 26.9904 12.6934 26.6491 12.3734C26.3035 12.0534 25.6379 11.8955 24.648 11.8955H22.3525V20.0918V20.0832Z" fill="white"/>
<path d="M57.2158 23.2834H58.2185C58.6153 23.2834 58.9396 23.484 58.9396 24.0173C58.9396 24.3842 58.7774 24.6658 58.466 24.7128V24.7213C58.7476 24.7512 58.8969 24.9048 58.914 25.3016C58.914 25.485 58.9225 25.7069 58.931 25.8776C58.9395 26.0184 59.0078 26.0866 59.0676 26.125H58.5556C58.5129 26.0738 58.4915 25.9842 58.4787 25.8733C58.4617 25.7026 58.4659 25.5448 58.4574 25.3357C58.4489 25.0242 58.355 24.8877 58.0435 24.8877H57.6724V26.1208H57.2201V23.2749L57.2158 23.2834ZM58.035 24.5464C58.3252 24.5464 58.4873 24.3714 58.4873 24.0856C58.4873 23.7826 58.355 23.6248 58.0564 23.6248H57.6681V24.5506H58.0307L58.035 24.5464Z" fill="white"/>
<path d="M60.3138 23.2832H61.8498V23.6672H60.7661V24.4565H61.7858V24.8405H60.7661V25.7493H61.8797V26.1333H60.3096V23.2875L60.3138 23.2832Z" fill="white"/>
<path d="M63.5343 25.246V25.3186C63.5343 25.6642 63.6836 25.8391 63.9994 25.8391C64.2852 25.8391 64.4303 25.6343 64.4303 25.4252C64.4303 25.1266 64.281 24.9943 64.025 24.9175L63.7135 24.8108C63.2996 24.653 63.1204 24.4354 63.1204 24.03C63.1204 23.5138 63.4703 23.2236 64.0036 23.2236C64.7332 23.2236 64.81 23.6759 64.81 23.9746V24.0386H64.3578V23.9788C64.3578 23.7186 64.2426 23.5692 63.961 23.5692C63.7647 23.5692 63.577 23.6759 63.577 23.9788C63.577 24.222 63.7007 24.3458 64.0036 24.461L64.3108 24.5719C64.7119 24.717 64.8868 24.9346 64.8868 25.3228C64.8868 25.9287 64.5199 26.1804 63.9482 26.1804C63.2442 26.1804 63.082 25.7111 63.082 25.31V25.2418H63.5343V25.246Z" fill="white"/>
<path d="M66.1416 24.7043C66.1416 23.6888 66.4275 23.228 67.0803 23.228C67.7331 23.228 68.0189 23.6888 68.0189 24.7043C68.0189 25.7198 67.7331 26.1806 67.0803 26.1806C66.4275 26.1806 66.1416 25.7198 66.1416 24.7043ZM67.5667 24.6915C67.5667 23.7358 67.3533 23.5694 67.0803 23.5694C66.8072 23.5694 66.5939 23.7358 66.5939 24.6915C66.5939 25.6472 66.8072 25.8392 67.0803 25.8392C67.3533 25.8392 67.5667 25.6728 67.5667 24.6915Z" fill="white"/>
<path d="M69.3799 23.2834H70.3826C70.7794 23.2834 71.1036 23.484 71.1036 24.0173C71.1036 24.3842 70.9415 24.6658 70.63 24.7128V24.7213C70.9116 24.7512 71.0609 24.9048 71.078 25.3016C71.078 25.485 71.0866 25.7069 71.0951 25.8776C71.1036 26.0184 71.1719 26.0866 71.2316 26.125H70.7196C70.6769 26.0738 70.6556 25.9842 70.6428 25.8733C70.6258 25.7026 70.63 25.5448 70.6215 25.3357C70.613 25.0242 70.5191 24.8877 70.2076 24.8877H69.8364V26.1208H69.3841V23.2749L69.3799 23.2834ZM70.1991 24.5464C70.4892 24.5464 70.6513 24.3714 70.6513 24.0856C70.6513 23.7826 70.5191 23.6248 70.2204 23.6248H69.8321V24.5506H70.1948L70.1991 24.5464Z" fill="white"/>
<path d="M72.8698 23.6628H72.1914V23.2788H73.9877V23.6628H73.3221V26.1247H72.8698V23.6628Z" fill="white"/>
<path d="M75.5577 25.246V25.3186C75.5577 25.6642 75.7071 25.8391 76.0228 25.8391C76.3087 25.8391 76.4537 25.6343 76.4537 25.4252C76.4537 25.1266 76.3044 24.9943 76.0484 24.9175L75.7369 24.8108C75.3231 24.653 75.1439 24.4354 75.1439 24.03C75.1439 23.5138 75.4937 23.2236 76.0271 23.2236C76.7567 23.2236 76.8335 23.6759 76.8335 23.9746V24.0386H76.3812V23.9788C76.3812 23.7186 76.266 23.5692 75.9844 23.5692C75.7881 23.5692 75.6004 23.6759 75.6004 23.9788C75.6004 24.222 75.7241 24.3458 76.0271 24.461L76.3343 24.5719C76.7353 24.717 76.9103 24.9346 76.9103 25.3228C76.9103 25.9287 76.5433 26.1804 75.9716 26.1804C75.2676 26.1804 75.1055 25.7111 75.1055 25.31V25.2418H75.5577V25.246Z" fill="white"/>
<path d="M81.5866 25.2632C81.6548 25.1522 81.6975 24.9816 81.6975 24.828V24.7725H82.0559V24.8066C82.0559 24.956 82.009 25.3058 81.8127 25.5789L82.201 26.1208H81.7188L81.5482 25.8776C81.3647 26.044 81.1556 26.1762 80.8314 26.1762C80.1743 26.1762 79.9951 25.6898 79.9951 25.3912C79.9951 25.0925 80.1487 24.828 80.3919 24.6445L80.5711 24.508L80.4644 24.3501C80.3663 24.1965 80.281 24.0344 80.281 23.885C80.281 23.4797 80.5796 23.2749 80.9594 23.2749C81.1684 23.2749 81.5866 23.3773 81.5866 23.8509C81.5866 24.1154 81.4415 24.2989 81.241 24.4482L81.0916 24.5549L81.5908 25.2546L81.5866 25.2632ZM80.6863 24.8578C80.5242 24.9901 80.4218 25.1522 80.4218 25.3656C80.4218 25.6216 80.6394 25.8178 80.9039 25.8178C81.0959 25.8178 81.2367 25.7154 81.3476 25.6002L80.7716 24.7896L80.6863 24.8621V24.8578ZM80.9893 24.2093C81.0874 24.1154 81.1983 24.0002 81.1983 23.8424C81.1983 23.676 81.0959 23.5736 80.9295 23.5736C80.8143 23.5736 80.6607 23.6333 80.6607 23.821C80.6607 23.9661 80.7503 24.1069 80.8271 24.2136L80.8911 24.2989L80.9893 24.2093Z" fill="white"/>
<path d="M85.2988 23.2834H86.3015C86.6983 23.2834 87.0226 23.484 87.0226 24.0173C87.0226 24.3842 86.8604 24.6658 86.549 24.7128V24.7213C86.8306 24.7512 86.9799 24.9048 86.997 25.3016C86.997 25.485 87.0055 25.7069 87.014 25.8776C87.0226 26.0184 87.0908 26.0866 87.1506 26.125H86.6386C86.5959 26.0738 86.5746 25.9842 86.5618 25.8733C86.5447 25.7026 86.549 25.5448 86.5404 25.3357C86.5319 25.0242 86.438 24.8877 86.1266 24.8877H85.7554V26.1208H85.3031V23.2749L85.2988 23.2834ZM86.1138 24.5464C86.4039 24.5464 86.566 24.3714 86.566 24.0856C86.566 23.7826 86.4338 23.6248 86.1351 23.6248H85.7468V24.5506H86.1095L86.1138 24.5464Z" fill="white"/>
<path d="M88.392 23.2832H89.928V23.6672H88.8442V24.4565H89.864V24.8405H88.8442V25.7493H89.9578V26.1333H88.3877V23.2875L88.392 23.2832Z" fill="white"/>
<path d="M91.6183 25.246V25.3186C91.6183 25.6642 91.7676 25.8391 92.0834 25.8391C92.3692 25.8391 92.5143 25.6343 92.5143 25.4252C92.5143 25.1266 92.365 24.9943 92.109 24.9175L91.7975 24.8108C91.3836 24.653 91.2044 24.4354 91.2044 24.03C91.2044 23.5138 91.5543 23.2236 92.0876 23.2236C92.8172 23.2236 92.894 23.6759 92.894 23.9746V24.0386H92.4418V23.9788C92.4418 23.7186 92.3265 23.5692 92.0449 23.5692C91.8487 23.5692 91.661 23.6759 91.661 23.9788C91.661 24.222 91.7847 24.3458 92.0876 24.461L92.3948 24.5719C92.7959 24.717 92.9708 24.9346 92.9708 25.3228C92.9708 25.9287 92.6039 26.1804 92.0321 26.1804C91.3281 26.1804 91.166 25.7111 91.166 25.31V25.2418H91.6183V25.246Z" fill="white"/>
<path d="M94.2715 23.2832H94.7238V26.1291H94.2715V23.2832Z" fill="white"/>
<path d="M96.1318 23.2831H96.9425C97.8342 23.2831 97.9452 23.8633 97.9452 24.7039C97.9452 25.5444 97.8342 26.1247 96.9425 26.1247H96.1318V23.2788V23.2831ZM96.5841 25.7833H96.9596C97.335 25.7833 97.4886 25.5359 97.4886 24.7039C97.4886 23.8719 97.3521 23.6244 96.9596 23.6244H96.5841V25.7833Z" fill="white"/>
<path d="M99.3021 23.2832H100.838V23.6672H99.7544V24.4565H100.774V24.8405H99.7544V25.7493H100.868V26.1333H99.2979V23.2875L99.3021 23.2832Z" fill="white"/>
<path d="M102.174 23.2832H102.728L103.552 25.4037H103.56V23.2832H103.991V26.1291H103.437L102.613 23.9531H102.605V26.1291H102.174V23.2832Z" fill="white"/>
<path d="M107.166 25.1054V25.1651C107.166 25.6771 106.957 26.1806 106.291 26.1806C105.574 26.1806 105.353 25.7198 105.353 24.7043C105.353 23.6888 105.574 23.228 106.295 23.228C107.106 23.228 107.153 23.8254 107.153 24.1198V24.171H106.701V24.124C106.701 23.8595 106.62 23.5566 106.295 23.5694C105.963 23.5694 105.809 23.7784 105.809 24.6915C105.809 25.6046 105.958 25.8392 106.295 25.8392C106.675 25.8392 106.718 25.4168 106.718 25.1523V25.1054H107.17H107.166Z" fill="white"/>
<path d="M108.442 23.2832H109.978V23.6672H108.894V24.4565H109.914V24.8405H108.894V25.7493H110.008V26.1333H108.438V23.2875L108.442 23.2832Z" fill="white"/>
<path d="M111.667 25.246V25.3186C111.667 25.6642 111.816 25.8391 112.132 25.8391C112.418 25.8391 112.563 25.6343 112.563 25.4252C112.563 25.1266 112.414 24.9943 112.158 24.9175L111.846 24.8108C111.432 24.653 111.253 24.4354 111.253 24.03C111.253 23.5138 111.603 23.2236 112.136 23.2236C112.866 23.2236 112.943 23.6759 112.943 23.9746V24.0386H112.491V23.9788C112.491 23.7186 112.375 23.5692 112.094 23.5692C111.898 23.5692 111.71 23.6759 111.71 23.9788C111.71 24.222 111.834 24.3458 112.136 24.461L112.444 24.5719C112.845 24.717 113.02 24.9346 113.02 25.3228C113.02 25.9287 112.653 26.1804 112.081 26.1804C111.377 26.1804 111.215 25.7111 111.215 25.31V25.2418H111.667V25.246Z" fill="white"/>
<path d="M52.8382 5.23529C52.8382 5.49556 52.7017 5.70889 52.4243 5.87529C52.2707 5.97769 52.0019 6.13556 51.6179 6.34463C51.5113 6.39583 51.3961 6.48969 51.2681 6.62623C51.1443 6.76276 51.0121 6.86943 50.8755 6.95476C50.739 7.03583 50.5726 7.17236 50.3806 7.36009C50.1545 7.56916 49.9881 7.70996 49.8771 7.78249C49.6979 7.97876 49.3993 8.25183 48.9811 8.59316C48.8745 8.65716 48.4393 9.00276 47.6755 9.63849C47.2446 9.99263 46.963 10.3937 46.835 10.8374C46.6686 11.2129 46.4595 11.7846 46.2078 12.5526C46.1737 12.8129 46.1353 13.0689 46.1011 13.3164C46.0542 13.6492 45.9689 13.9436 45.8494 14.2038C45.7897 14.4001 45.6233 14.7542 45.3459 15.262C45.2137 15.5094 44.9278 15.9318 44.4883 16.5249C44.275 16.7724 43.9721 17.0326 43.5838 17.3057C43.1955 17.5745 42.8286 17.775 42.483 17.8988C42.3977 17.9286 42.2697 17.9884 42.0905 18.0694C41.9838 18.1334 41.8217 18.1846 41.6083 18.2273C41.5742 18.2273 41.4846 18.2486 41.3481 18.2913C41.2115 18.334 41.1049 18.3553 41.0366 18.3553H40.5161C39.3683 18.3468 38.3145 18.0438 37.3459 17.4508C36.5566 16.9644 36.1641 16.2646 36.1641 15.3644C36.1641 14.8225 36.2494 14.366 36.4158 13.9948C36.5353 13.726 36.7273 13.3334 36.9875 12.8257C37.299 12.3478 37.6147 11.9425 37.9347 11.6097C38.259 11.2769 38.4851 11.0636 38.6174 10.9697C38.9161 10.7393 39.219 10.6284 39.5305 10.6284C40.0211 10.6284 40.4265 10.8204 40.7507 11.2044C41.0494 11.5457 41.1987 11.9382 41.1987 12.3734C41.1987 12.446 41.1902 12.5526 41.1731 12.6934C41.1561 12.8342 41.1475 12.9409 41.1475 13.0134C41.1475 13.0646 41.1646 13.0902 41.203 13.0902C41.3566 13.0902 41.7577 12.8812 42.4019 12.4673C42.5086 12.3948 43.0035 12.1132 43.8867 11.6268C44.531 11.2726 44.979 10.974 45.2307 10.7222C45.6233 10.3468 45.9006 10.0438 46.0542 9.80489C46.4126 9.28436 46.6643 8.93023 46.8051 8.74676C47.1166 8.34996 47.4153 8.03849 47.7011 7.81236C47.8931 7.60329 48.1918 7.31743 48.5971 6.95476C48.6569 6.91209 49.0281 6.56649 49.7065 5.90943C50.1118 5.52543 50.5769 5.26516 51.0931 5.12863C51.6137 4.9921 52.0275 4.92383 52.339 4.92383C52.6718 4.92383 52.8425 5.03476 52.8425 5.25236L52.8382 5.23529ZM39.5689 12.1985C39.5689 11.742 39.4067 11.5116 39.0867 11.5116C38.9929 11.5116 38.8905 11.5542 38.7838 11.6353C38.6387 11.7292 38.4297 11.87 38.1566 12.0577C37.8579 12.3265 37.6318 12.6465 37.4739 13.0092C37.4611 13.039 37.3886 13.1585 37.2606 13.3676C36.9363 13.8454 36.7785 14.3489 36.7785 14.878C36.7785 15.0657 36.8382 15.1596 36.9577 15.1596C37.043 15.1596 37.3587 15.0401 37.9091 14.8012C38.1822 14.686 38.3315 14.6177 38.3571 14.5964C38.5022 14.5238 38.6217 14.43 38.7155 14.3148C38.9289 14.0673 39.1294 13.726 39.3086 13.295C39.4878 12.8641 39.5774 12.4972 39.5774 12.1985H39.5689ZM37.939 15.3302C37.939 15.2662 37.9091 15.2364 37.8494 15.2364C37.8025 15.2364 37.6873 15.2833 37.5081 15.3772C37.2947 15.4796 37.1667 15.5393 37.1326 15.5478C36.9534 15.6118 36.8638 15.7142 36.8638 15.8593C36.8638 16.0044 36.9193 16.175 37.0259 16.3756C37.1326 16.5718 37.2606 16.67 37.4014 16.67C37.4611 16.67 37.491 16.6401 37.491 16.5761C37.491 16.5462 37.4825 16.4993 37.4654 16.4438C37.4483 16.3884 37.4398 16.3414 37.4398 16.3116C37.4398 16.2689 37.5251 16.1324 37.6915 15.8977C37.8579 15.663 37.9433 15.4753 37.9433 15.3302H37.939ZM45.1923 11.6694C45.1923 11.503 45.1369 11.422 45.0302 11.422C45.0046 11.422 44.7059 11.5585 44.1342 11.8273C43.9294 11.9638 43.5966 12.1686 43.1315 12.4502C42.7603 12.6465 42.3891 12.8385 42.0222 13.0262C41.5785 13.2652 41.2329 13.487 40.9811 13.6961C40.8275 13.8326 40.6995 14.046 40.6057 14.3361C40.5587 14.4812 40.4051 14.7286 40.1491 15.0742C39.8931 15.4241 39.6969 15.646 39.5689 15.7441C39.4366 15.8422 39.1806 15.9745 38.7966 16.1409C38.067 16.4737 37.7043 16.7212 37.7043 16.8876C37.7043 17.054 38.0883 17.2502 38.8521 17.4806C39.1763 17.583 39.4707 17.6385 39.7481 17.6385C40.4649 17.6385 41.1219 17.4764 41.7193 17.1564C42.0649 16.9686 42.5001 16.5804 43.0249 15.9873C43.4899 15.4668 43.8441 15.0102 44.083 14.6177C44.1555 14.4513 44.2793 14.2166 44.4585 13.918C44.5907 13.7516 44.6718 13.5681 44.7102 13.3718C44.7443 13.1756 44.7955 13.0177 44.851 12.9025C44.8979 12.8385 44.9961 12.5142 45.1369 11.9212C45.171 11.806 45.1923 11.7249 45.1923 11.6737V11.6694Z" fill="white"/>
<path d="M52.4758 15.9789C52.4758 16.0472 52.3862 16.124 52.2027 16.2093C51.9339 16.3544 51.5328 16.5549 50.9952 16.8237C50.7264 16.9901 50.3168 17.1949 49.7622 17.4338C49.6086 17.4765 49.3483 17.6002 48.9856 17.7965C48.6614 17.9714 48.3926 18.0824 48.1835 18.1293C48.1366 18.1421 48.0342 18.172 47.8763 18.2189C47.7184 18.2701 47.599 18.2914 47.5179 18.2914C47.4368 18.2914 47.3174 18.317 47.168 18.3725C47.0144 18.428 46.8992 18.4536 46.8224 18.4536C46.6518 18.4536 46.464 18.3981 46.2635 18.2872C46.1014 18.253 45.9435 18.2189 45.7899 18.1805C45.6363 18.1421 45.5083 17.9885 45.4016 17.724C45.3547 17.6045 45.3291 17.4722 45.3291 17.3272C45.3291 16.973 45.487 16.589 45.8027 16.1666C45.9563 15.9576 46.208 15.676 46.5622 15.3218C46.9632 14.9122 47.232 14.6861 47.3643 14.6434C47.4496 14.6093 47.5776 14.5538 47.7526 14.477C47.8678 14.3789 48.064 14.268 48.3414 14.1442C48.8875 14.0461 49.1179 13.9949 49.0326 13.9949C49.3014 13.9949 49.4336 14.0717 49.4336 14.2253C49.4336 14.2594 49.408 14.2978 49.3611 14.3405C49.1222 14.5837 48.7638 14.9293 48.2859 15.3816C48.0256 15.5821 47.6758 15.8125 47.2363 16.077C46.8438 16.3202 46.5707 16.6488 46.4171 17.0712C46.3616 17.2034 46.3318 17.3186 46.3318 17.4168C46.3318 17.6813 46.5408 17.8136 46.9632 17.8136C47.5392 17.8136 48.0043 17.7368 48.3584 17.5874C48.6443 17.5106 49.071 17.3613 49.6384 17.1352C49.7238 17.0925 50.2998 16.8109 51.3579 16.2989C51.9808 16.0088 52.3094 15.8637 52.3478 15.8637C52.4331 15.8637 52.4758 15.8978 52.4758 15.9618V15.9789ZM51.4134 11.6568C51.4134 11.7677 51.328 11.8232 51.1531 11.8232C51.0379 11.8232 50.8886 11.7976 50.7094 11.7421C50.4491 11.7293 50.1248 11.661 49.7323 11.5288C49.4934 11.3197 49.3739 11.0808 49.3739 10.8162C49.3739 10.7053 49.4208 10.6242 49.519 10.5688C49.7878 10.4024 49.9371 10.3213 49.9627 10.3213C50.0182 10.3213 50.0779 10.3682 50.1419 10.4621C50.2059 10.556 50.2571 10.6413 50.3083 10.7181C50.4704 10.9186 50.5686 11.0338 50.5942 11.0637C50.6795 11.1533 50.799 11.2258 50.9526 11.277C51.2598 11.388 51.4134 11.516 51.4134 11.6568Z" fill="white"/>
<path d="M61.7943 15.9615C61.7943 16.0298 61.7601 16.081 61.6919 16.1194C61.6236 16.1578 61.4316 16.2602 61.1159 16.4266C60.9836 16.5162 60.7788 16.6314 60.5057 16.7722C60.2327 16.9172 60.0279 17.0324 59.8956 17.1178C59.5884 17.2927 59.1532 17.5914 58.59 18.0095C58.4449 18.0863 58.2444 18.2228 57.9884 18.4234C57.8561 18.5343 57.6599 18.705 57.3996 18.9354C57.2759 19.0548 57.054 19.217 56.7383 19.4132C56.4225 19.6138 56.1964 19.7844 56.0641 19.9252C55.8252 20.1556 55.5863 20.3647 55.3473 20.5524C54.8097 20.9706 54.3831 21.4228 54.0673 21.9092C53.8668 22.1866 53.5681 22.6047 53.1756 23.1679C53.022 23.4196 52.8641 23.6756 52.702 23.9274C52.5185 24.2132 52.3393 24.4394 52.1559 24.5972C51.9724 24.7551 51.7676 25.0239 51.5372 25.3994C51.2769 25.8175 51.0807 26.0991 50.9484 26.2442C50.6881 26.5642 50.2913 27.0378 49.758 27.6692C49.3569 28.1343 48.9601 28.5951 48.5676 29.0602C47.9532 29.7343 47.5308 30.0714 47.2876 30.0714C47.1169 30.0714 47.0273 29.9732 47.0273 29.7727C47.0273 29.6191 47.1425 29.3631 47.3729 29.0132C47.6503 28.5738 47.8039 28.305 47.8337 28.2196C48.0172 27.7674 48.7681 26.7946 50.0865 25.3055C50.2188 25.1604 50.4065 24.9428 50.6455 24.6442C50.7905 24.4351 51.0807 24.1322 51.5201 23.7354C51.9212 23.3727 52.1985 23.057 52.3521 22.7924C52.3692 22.7583 52.4887 22.6431 52.7105 22.4468C52.7959 22.37 52.9111 22.242 53.0561 22.0671C53.2951 21.8239 53.6236 21.4228 54.046 20.8596C54.1612 20.6847 54.3276 20.4202 54.5495 20.066C54.6177 19.9124 54.7799 19.6735 55.0359 19.3535C55.1041 19.2852 55.1809 19.1615 55.2748 18.9738C55.3644 18.786 55.4497 18.6538 55.5265 18.577C55.6588 18.4447 55.8337 18.2015 56.0428 17.8474C56.2519 17.4932 56.4225 17.2586 56.5463 17.1348C56.5932 17.0154 56.6828 16.8362 56.8193 16.6058C57.0199 16.354 57.1351 16.0724 57.1649 15.761L57.1521 15.7439C57.0967 15.7439 56.9729 15.7951 56.7852 15.9018C56.5975 16.0084 56.478 16.081 56.4183 16.1236C56.3415 16.2004 56.2305 16.2602 56.0897 16.3071C55.9063 16.3754 55.7868 16.418 55.7313 16.4394C55.4369 16.6058 54.7031 16.9855 53.534 17.5828C53.342 17.6511 53.0732 17.7962 52.7319 18.0308C52.5868 18.1759 52.446 18.2442 52.3009 18.2442C52.1303 18.2442 51.9639 18.1375 51.8103 17.9284C51.5329 17.5402 51.3921 17.3055 51.3921 17.2159C51.3921 17.1732 51.4049 17.1178 51.4348 17.0495C51.6737 16.4991 51.934 16.1108 52.2113 15.889C52.3351 15.7908 52.7148 15.5818 53.3463 15.2618C53.8924 14.9972 54.6945 14.5535 55.7569 13.9391C56.1025 13.7087 56.5548 13.4996 57.1137 13.3204C57.6727 13.137 58.1505 13.0474 58.5431 13.0474C58.7052 13.0474 58.8332 13.0602 58.9313 13.0815C59.1148 13.137 59.2257 13.218 59.2769 13.329C59.294 13.3844 59.3196 13.538 59.3409 13.794C59.3665 14.0458 59.3751 14.242 59.3751 14.3743C59.3751 14.5834 59.3495 14.7626 59.3025 14.9034C59.2172 15.202 59.1447 15.3514 59.0892 15.3514C59.0337 15.3514 59.0039 15.2575 59.0039 15.0698C59.0039 14.993 59.0209 14.8948 59.0593 14.7711C59.0977 14.6516 59.1148 14.5492 59.1148 14.4724C59.1148 14.2719 59.0679 14.0927 58.9783 13.9348C58.8887 13.777 58.7607 13.6959 58.5985 13.6959H58.5559C58.0951 13.6959 57.7964 13.7471 57.6513 13.8452C57.2375 14.0543 56.6017 14.4511 55.7399 15.0356C55.4625 15.202 55.0572 15.4708 54.5196 15.8463C54.4343 15.9146 54.3916 15.9956 54.3916 16.0938C54.3916 16.2815 54.4471 16.3754 54.5623 16.3754C54.7159 16.3754 54.9505 16.3156 55.2748 16.2004C55.5948 16.0852 55.8209 15.9786 55.9575 15.8762C56.2049 15.7012 56.4823 15.5562 56.7895 15.4452C56.8961 15.4111 57.1521 15.2575 57.566 14.9802C57.9372 14.7498 58.1847 14.6346 58.2999 14.6346C58.3937 14.6346 58.4449 14.69 58.4449 14.801C58.4449 14.8991 58.2956 15.1636 58.0012 15.5946C57.6641 16.1791 57.1393 17.0239 56.4225 18.1247C56.3159 18.2783 56.1537 18.5002 55.9319 18.786C55.8551 18.9183 55.7356 19.1188 55.5735 19.3834C55.3431 19.6906 55.2279 19.9167 55.2279 20.0618C55.2279 20.0959 55.2407 20.113 55.2705 20.113C55.3388 20.113 55.4924 20.0148 55.7313 19.8143C55.8849 19.6692 56.0385 19.5327 56.1921 19.4004C56.4012 19.2682 56.7041 19.0463 57.0967 18.7391C57.3441 18.4831 57.7324 18.1887 58.2615 17.8474C58.4236 17.7151 58.6796 17.5402 59.0209 17.3183C59.1532 17.2543 59.3879 17.105 59.7249 16.8703C59.9169 16.7722 60.1985 16.6186 60.574 16.4052C61.2268 16.0426 61.598 15.8591 61.6961 15.8591C61.7644 15.8591 61.7985 15.8932 61.7985 15.9572L61.7943 15.9615ZM52.2753 23.5391C52.2668 23.505 52.2583 23.4879 52.2455 23.4879C52.1985 23.4879 52.0364 23.6415 51.7548 23.953C51.4604 24.2943 51.2727 24.4906 51.1959 24.5418C51.1191 24.593 51.0081 24.721 50.8673 24.93C50.7223 25.1391 50.6071 25.2756 50.5217 25.3354C50.4364 25.3951 50.3468 25.5018 50.2487 25.6511C50.1548 25.8004 50.0737 25.9028 50.0055 25.9583C49.8988 26.0906 49.7324 26.2911 49.502 26.5556C49.2716 26.7775 49.1564 27.0079 49.1564 27.2511C49.1564 27.3834 49.1863 27.4516 49.2417 27.4516C49.2716 27.4516 49.3484 27.362 49.4807 27.1871C49.6087 27.0122 49.694 26.9098 49.7324 26.8884C49.8177 26.8244 49.9244 26.6964 50.0481 26.5172C50.1719 26.3338 50.27 26.21 50.334 26.146C50.5815 25.9242 50.7905 25.6596 50.9527 25.3524C51.0977 25.2202 51.2855 24.9898 51.5287 24.657C51.7377 24.4138 51.9639 24.1279 52.2028 23.7951C52.2497 23.6756 52.2753 23.5903 52.2753 23.5476V23.5391Z" fill="white"/>
<path d="M73.0661 15.9277C73.0661 16.0301 72.9807 16.1283 72.8058 16.2264C72.4431 16.4483 72.0805 16.6531 71.7221 16.8365C71.3637 17.02 70.8303 17.2632 70.1221 17.5619C70.0154 17.6301 69.849 17.7155 69.6186 17.8307C69.1663 18.0312 68.761 18.1293 68.3983 18.1293C68.0911 18.1293 67.8607 18.0952 67.7071 18.0312C67.4981 17.9416 67.3914 17.7027 67.3914 17.3144C67.3914 17.0925 67.4682 16.892 67.6218 16.7128C67.8437 16.4568 67.9674 16.2989 67.993 16.2307C68.0229 16.1624 68.1466 16.0045 68.3685 15.7485C68.5605 15.5267 68.6543 15.3859 68.6543 15.3304C68.6543 15.2877 68.6415 15.2621 68.6117 15.2621C68.5818 15.2621 68.3258 15.3901 67.8351 15.6419C67.3487 15.8979 67.0415 16.0387 66.9178 16.0728C66.6874 16.1965 66.329 16.3587 65.8426 16.5677C65.689 16.6104 65.4629 16.7 65.1685 16.8323C64.9765 16.9304 64.6821 17.0883 64.2767 17.2973C63.9909 17.4637 63.7007 17.6344 63.4149 17.8093C63.0522 18.0184 62.7407 18.1251 62.4805 18.1251C62.1733 18.1251 62.0197 17.916 62.0197 17.4979C62.0197 17.3229 62.1093 17.1267 62.2927 16.9176C62.5317 16.6403 62.6639 16.4781 62.6938 16.4227C62.7407 16.3245 62.8303 16.1795 62.9669 15.9917C63.0607 15.8936 63.2143 15.7229 63.4277 15.4797C63.6666 15.1811 63.7903 15.0061 63.8031 14.9507L63.7733 14.9165C63.6879 14.9165 63.5813 14.9549 63.4575 15.0317C63.3039 15.1299 63.2058 15.1853 63.1546 15.1981C63.0394 15.2408 62.8901 15.3347 62.7109 15.4797C62.5658 15.5352 62.3695 15.6461 62.1221 15.8125C62.0069 15.9021 61.7978 16.0387 61.4906 16.2264C61.145 16.4269 60.9359 16.5251 60.8591 16.5251C60.7439 16.5251 60.6885 16.4867 60.6885 16.4099C60.6885 16.3544 60.8207 16.2435 61.0895 16.0771C61.2602 15.9789 61.4351 15.8765 61.6058 15.7784C61.8362 15.612 62.1903 15.3688 62.6682 15.0488C62.7919 14.9165 63.0053 14.7587 63.2997 14.5709C63.3679 14.5581 63.4575 14.4984 63.5727 14.3875C63.6879 14.2765 63.7647 14.2211 63.8031 14.2211C63.8415 14.2211 63.9141 14.1741 64.025 14.0803C64.1359 13.9864 64.2298 13.9395 64.3066 13.9395C65.0149 13.9395 65.369 14.1613 65.369 14.6008C65.369 14.8099 65.2239 15.0531 64.9381 15.3304C64.5754 15.6845 64.3663 15.9021 64.3194 15.9917C64.2426 16.1453 64.0933 16.3672 63.8757 16.6531C63.6837 16.8067 63.5898 16.9347 63.5898 17.0328C63.5898 17.0883 63.6197 17.1139 63.6751 17.1139C63.7135 17.1139 63.8074 17.0712 63.961 16.9901C64.1146 16.9091 64.2085 16.8621 64.2469 16.8493C64.5541 16.7384 64.793 16.6232 64.9722 16.5037C65.1471 16.3843 65.433 16.2563 65.8213 16.1325C66.2095 16.0045 66.4954 15.8723 66.6746 15.7357C66.8581 15.5992 67.1354 15.4413 67.5066 15.2621C67.6133 15.2408 67.7626 15.1555 67.9589 15.0147C68.1551 14.8696 68.3045 14.7843 68.4111 14.7501C68.4794 14.7288 68.633 14.6435 68.8719 14.5027C69.0725 14.3917 69.2346 14.3363 69.3583 14.3363C69.4906 14.3363 69.6783 14.396 69.913 14.5112C70.1477 14.6264 70.2629 14.7587 70.2629 14.8995C70.2629 14.9976 70.1861 15.1555 70.0325 15.3645C69.8789 15.5736 69.7466 15.7187 69.6357 15.7955C69.5247 15.8723 69.4266 15.9832 69.3413 16.1283C69.2261 16.3032 69.1407 16.4269 69.081 16.4909C68.9658 16.5891 68.8122 16.7683 68.6202 17.02C68.5263 17.2632 68.4751 17.3912 68.4751 17.3997C68.4751 17.5192 68.5818 17.5832 68.7909 17.5832C69.0383 17.5832 69.3583 17.5064 69.7509 17.3528C70.2885 17.1224 70.5999 16.9944 70.6853 16.9731C70.8389 16.8963 71.0735 16.7811 71.3893 16.6275C71.4277 16.6147 71.705 16.4781 72.2213 16.2136C72.6437 15.9917 72.8911 15.8808 72.9679 15.8808C73.0234 15.8808 73.0533 15.8979 73.0533 15.932L73.0661 15.9277Z" fill="white"/>
<path d="M81.8264 15.9447C81.8264 16.013 81.6301 16.1538 81.2376 16.3757C80.9133 16.5506 80.4227 16.8023 79.7741 17.1223C79.5053 17.2546 79.1 17.4253 78.5539 17.6343C78.5155 17.6471 78.2637 17.741 77.7944 17.9159C77.4872 18.0354 77.2312 18.0994 77.0179 18.0994C76.8643 18.0994 76.6381 17.9629 76.3437 17.6855C76.22 17.5746 76.156 17.4722 76.156 17.3698C76.156 17.3485 76.1603 17.3186 76.1688 17.2887V17.2077C76.1688 17.1181 76.1347 17.0754 76.0664 17.0754C76.0493 17.0754 76.0195 17.0882 75.9811 17.1095C75.8104 17.1437 75.5587 17.229 75.2344 17.3741C75.1021 17.4722 74.9187 17.5447 74.6883 17.5874C74.3811 17.6557 74.1891 17.7026 74.1123 17.7367C73.7027 17.9031 73.34 17.9842 73.0371 17.9842C72.9816 17.9842 72.828 17.9117 72.5763 17.7709C72.4824 17.7154 72.38 17.6642 72.2733 17.613C72.1667 17.5618 72.0856 17.4765 72.0301 17.357C71.9619 17.1906 71.9277 17.0583 71.9277 16.9602C71.9277 16.7938 72.0344 16.6146 72.2435 16.4141C72.3587 16.2733 72.5549 16.0685 72.8323 15.8039C73.0712 15.6077 73.4467 15.3218 73.9544 14.9463L74.7565 14.3874C75.0893 14.157 75.3795 14.0077 75.6184 13.9437C75.8403 13.8199 76.1816 13.6834 76.6509 13.5341C76.9581 13.4786 77.3549 13.4487 77.8413 13.4487C78.0888 13.4487 78.2595 13.4871 78.3448 13.5639C78.4685 13.6535 78.5325 13.8285 78.5325 14.093C78.5325 14.2679 78.4856 14.4386 78.396 14.5965C78.3064 14.7586 78.2595 14.8482 78.2595 14.8695C78.3363 14.9805 78.3747 15.0701 78.3747 15.1341C78.3747 15.3005 78.3235 15.437 78.2168 15.5479C78.0632 15.7485 77.82 16.013 77.4829 16.3415C77.3763 16.4098 77.3123 16.4567 77.2909 16.4823C77.2653 16.5079 77.2355 16.5719 77.1971 16.6743C77.1117 16.9261 77.0691 17.0455 77.0691 17.0199C77.0691 17.1394 77.1117 17.2503 77.1971 17.3442C77.2824 17.4381 77.3848 17.485 77.5 17.485C77.7005 17.485 77.8968 17.4594 78.0888 17.4039C78.2808 17.3485 78.4685 17.293 78.6477 17.2375C78.7032 17.2247 79.0445 17.0711 79.6675 16.7725C79.9277 16.6615 80.3075 16.4866 80.8152 16.2434C81.2931 15.9789 81.5875 15.8466 81.6899 15.8466C81.7752 15.8466 81.8179 15.8807 81.8179 15.9447H81.8264ZM78.1357 14.3063C78.1357 14.0546 78.0333 13.9266 77.8328 13.9266C77.7773 13.9266 77.6835 13.9181 77.5597 13.901C77.436 13.8839 77.3464 13.8754 77.2867 13.8754C77.1715 13.8754 77.0093 13.9479 76.8003 14.0887C76.5315 14.2765 76.3693 14.3831 76.3139 14.4045C76.1816 14.4599 76.0024 14.5837 75.7805 14.7757C75.5587 14.9677 75.388 15.0957 75.2643 15.1554C75.1405 15.2151 74.8376 15.4541 74.3597 15.8765C74.2915 15.9319 74.2189 16.0386 74.1464 16.1922C74.0696 16.3458 74.0099 16.4525 73.9672 16.5165C73.9245 16.5762 73.9032 16.6189 73.9032 16.6402C73.9032 16.8066 74.0227 16.8877 74.2616 16.8877C74.4237 16.8877 74.5731 16.8493 74.7053 16.7725C75.0893 16.5847 75.4691 16.4013 75.8531 16.2263C76.3011 15.9959 76.6552 15.7485 76.9155 15.4797C77.0307 15.3474 77.2312 15.1938 77.5171 15.0146C77.6621 14.9591 77.7987 14.861 77.9352 14.7245C78.0675 14.5879 78.1357 14.4471 78.1357 14.3021V14.3063Z" fill="white"/>
<path d="M96.4438 12.0063C96.4438 12.1044 96.2987 12.1556 96.0128 12.1556H95.4966C95.3131 12.1556 95.0486 12.1769 94.6944 12.2153C94.3403 12.2537 94.0715 12.2751 93.8923 12.2751H92.7147C92.5611 12.2751 92.335 12.2921 92.032 12.3263C91.7291 12.3604 91.5072 12.3775 91.3622 12.3775C91.2555 12.3775 91.1104 12.3604 90.9184 12.3263C90.7264 12.2921 90.5814 12.2751 90.4875 12.2751C90.3339 12.2751 90.1078 12.2921 89.8134 12.3263C89.519 12.3604 89.2928 12.3775 89.1392 12.3775C89.0326 12.3775 88.879 12.3604 88.6784 12.3263C88.4779 12.2921 88.3243 12.2751 88.2176 12.2751C88.1622 12.2751 88.0768 12.2921 87.9659 12.3263C87.855 12.3604 87.7739 12.3775 87.7142 12.3775H87.5136C87.3515 12.3775 87.168 12.4713 86.9675 12.6591C86.8054 12.8127 86.639 12.9705 86.4726 13.1284C86.3062 13.2863 86.0331 13.5081 85.6619 13.794C85.4912 13.9049 85.3248 14.0628 85.1712 14.2719C84.9408 14.5919 84.8086 14.7711 84.7702 14.8137C84.5227 15.0655 84.1771 15.4708 83.7376 16.0297C83.5456 16.3369 83.3579 16.5631 83.1787 16.7124C82.9952 16.8617 82.9056 17.1049 82.9056 17.4463C82.9056 17.7407 83.1531 17.89 83.6523 17.89C84.207 17.89 84.864 17.7577 85.6192 17.4932C85.9648 17.3951 86.4768 17.2159 87.1552 16.9641C87.3856 16.8745 87.7142 16.7209 88.1451 16.4991C88.2304 16.4436 88.4694 16.3156 88.8619 16.1193C89.2544 15.9188 89.4763 15.8207 89.5232 15.8207C89.6086 15.8207 89.6512 15.8591 89.6512 15.9359C89.6512 16.0255 89.3739 16.2175 88.8192 16.5161C88.4736 16.6911 88.128 16.8617 87.7867 17.0281C87.5264 17.1391 87.1467 17.3097 86.639 17.5401C86.4854 17.6169 86.2464 17.7023 85.9222 17.7961C85.5979 17.89 85.3504 17.9753 85.1883 18.0521C85.0646 18.1289 84.864 18.1844 84.591 18.2185C84.3179 18.2527 84.1387 18.2953 84.0534 18.3508C83.9382 18.4276 83.6907 18.466 83.3067 18.466H83.2939C82.8928 18.466 82.6027 18.4404 82.4235 18.3849C82.2443 18.3295 82.0779 18.2783 81.92 18.2271C81.7622 18.1759 81.6427 18.0351 81.5702 17.8047C81.5232 17.6809 81.4976 17.5615 81.4976 17.442C81.4976 17.1988 81.6043 16.9129 81.8134 16.5801C82.0224 16.2473 82.1291 16.0596 82.1291 16.0169C82.1291 15.9743 82.1163 15.9487 82.0864 15.9487C82.0395 15.9487 81.7963 16.0681 81.3611 16.3113C80.9259 16.5545 80.6571 16.674 80.5504 16.674C80.4352 16.674 80.3798 16.6399 80.3798 16.5759C80.3798 16.4777 80.6016 16.3369 81.0411 16.162C81.1734 16.0937 81.3696 15.9999 81.6299 15.8804C81.8006 15.7567 82.0736 15.5945 82.4491 15.3812C82.6112 15.2575 82.8672 15.0697 83.2086 14.818C83.456 14.6431 83.7675 14.3401 84.143 13.922C84.4374 13.5679 84.7318 13.218 85.0176 12.8767C85.1414 12.7316 85.2054 12.5993 85.2054 12.4799C85.2054 12.2239 84.9792 12.0959 84.5312 12.0959C84.4075 12.0959 84.2155 12.1172 83.9552 12.1556C83.695 12.194 83.5072 12.2153 83.3792 12.2153C83.311 12.2153 83.2171 12.2068 83.0976 12.1897C82.9782 12.1727 82.8843 12.1641 82.816 12.1641C82.7392 12.1641 82.6283 12.1727 82.479 12.1897C82.3296 12.2068 82.2187 12.2153 82.1419 12.2153C82.112 12.2153 82.0694 12.1983 82.0139 12.1641H81.8859C81.8006 12.1641 81.6768 12.1855 81.5104 12.2239C81.3483 12.2623 81.2246 12.2836 81.1392 12.2836C80.9088 12.2836 80.6358 12.258 80.32 12.2111C79.8891 12.1513 79.6758 12.0745 79.6758 11.9892C79.6758 11.8783 79.7696 11.8228 79.9616 11.8228C80.0171 11.8228 80.1067 11.8399 80.2219 11.874C80.3371 11.9081 80.4267 11.9252 80.495 11.9252C80.5504 11.9252 80.6443 11.9167 80.768 11.8996C80.8918 11.8825 80.9814 11.874 81.0411 11.874H81.2118C81.2971 11.9081 81.3611 11.9252 81.3995 11.9252C81.5531 11.9252 81.7878 11.8996 82.112 11.8441C82.432 11.7887 82.671 11.7631 82.8246 11.7631C82.9398 11.7631 83.1104 11.7759 83.3366 11.7972C83.5627 11.8185 83.7334 11.8313 83.8443 11.8313H83.8742C84.1216 11.8313 84.3094 11.8185 84.4331 11.7972C84.6635 11.7759 84.7531 11.7631 84.7062 11.7631C84.7531 11.7631 84.8299 11.7759 84.928 11.7972C85.0304 11.8185 85.1072 11.8313 85.167 11.8313C85.6747 11.8313 86.0331 11.7204 86.2422 11.4943C86.3744 11.3023 86.6048 11.0591 86.9334 10.7689C87.1339 10.6921 87.4283 10.5385 87.808 10.3124C87.8763 10.2569 87.9531 10.2271 88.0384 10.2271C88.1707 10.2271 88.3371 10.2783 88.5334 10.3764C88.7296 10.4745 88.8278 10.5983 88.8278 10.7391C88.8278 10.85 88.7339 10.9951 88.5419 11.1785C88.3499 11.362 88.256 11.49 88.256 11.5668C88.256 11.6564 88.3328 11.7289 88.4864 11.7887C88.64 11.8484 88.7638 11.8783 88.8619 11.8783C89.007 11.8783 89.2118 11.8868 89.4848 11.9039C89.7579 11.9209 89.967 11.9295 90.1078 11.9295C90.24 11.9295 90.4406 11.9124 90.7051 11.8783C90.9696 11.8441 91.1659 11.8271 91.3024 11.8271C91.3963 11.8271 91.5414 11.8441 91.7334 11.8783C91.9254 11.9124 92.0747 11.9295 92.1771 11.9295C92.3776 11.9295 92.6848 11.9124 93.103 11.8783C93.5211 11.8441 93.8326 11.8271 94.0416 11.8271C94.127 11.8271 94.2507 11.8441 94.4128 11.8783C94.575 11.9124 94.6987 11.9295 94.7883 11.9295H95.104C95.36 11.9295 95.5691 11.9081 95.7227 11.8655C95.9232 11.7972 96.0427 11.7631 96.0811 11.7631C96.3286 11.7631 96.4566 11.8527 96.4566 12.0276L96.4438 12.0063Z" fill="white"/>
<path d="M100.266 16.1452C100.266 16.2433 100.143 16.3628 99.8993 16.5036C99.6561 16.6444 99.2764 16.8321 98.7686 17.0796C98.5937 17.135 98.2652 17.2972 97.7745 17.5617C97.3606 17.775 97.0193 17.903 96.7505 17.9457C96.6652 17.9585 96.5457 18.0012 96.3921 18.078C96.2385 18.1548 96.1062 18.1932 95.991 18.1932H95.3724C94.9414 18.1932 94.7238 17.9884 94.7238 17.5788C94.7238 17.4806 94.758 17.3356 94.8262 17.1478C94.8945 16.9601 94.9286 16.8236 94.9286 16.734C94.9286 16.6145 94.8561 16.5505 94.7153 16.5505C94.6001 16.5505 94.455 16.5932 94.2844 16.6828C94.0241 16.8278 93.8918 16.9046 93.8833 16.9132C93.6614 17.0113 93.3286 17.1521 92.8764 17.327C92.6545 17.3697 92.343 17.4892 91.942 17.6726C91.7798 17.7921 91.5238 17.8774 91.1825 17.9201C90.807 17.9542 90.5681 17.9969 90.4657 18.0524C90.4358 18.0737 90.4017 18.0865 90.3633 18.0865C89.9025 18.0865 89.6721 17.7537 89.6721 17.0924C89.6721 16.8406 89.7745 16.5889 89.9793 16.3372C90.1841 16.0897 90.2865 15.8977 90.2865 15.7654C90.2865 15.7228 90.278 15.6716 90.2566 15.6161H90.2268C90.1884 15.6161 89.9324 15.7612 89.4673 16.0556C88.998 16.35 88.7164 16.495 88.6182 16.495C88.5329 16.495 88.4902 16.4524 88.4902 16.3628C88.4902 16.2945 88.5841 16.2092 88.7761 16.0982C88.9084 16.0342 89.0449 15.966 89.1772 15.8977C89.5612 15.6673 89.9153 15.4198 90.2396 15.151C90.8924 14.622 91.3916 14.3574 91.7457 14.3574H91.7756C92.151 14.3574 92.3345 14.4726 92.3345 14.703C92.3345 15.023 92.2449 15.3046 92.0614 15.5478C91.9548 15.7228 91.7841 15.966 91.5452 16.2774C91.3446 16.478 91.2422 16.7084 91.2422 16.9729C91.2422 17.182 91.3532 17.2886 91.5708 17.2886C91.703 17.2886 91.878 17.2502 92.087 17.1734C92.4028 17.0412 92.5692 16.9686 92.5905 16.9601C92.8209 16.9046 93.158 16.7766 93.6102 16.5804C93.9558 16.4268 94.4508 16.1324 95.1036 15.7014C95.3126 15.5009 95.6369 15.2065 96.0636 14.8097C96.2342 14.6646 96.486 14.5964 96.8102 14.5964C96.934 14.5964 97.062 14.6518 97.1985 14.7628C97.3308 14.8737 97.399 15.0017 97.399 15.1425C97.399 15.2961 97.19 15.4838 96.7676 15.7057C96.6737 15.7484 96.5713 15.8593 96.4646 16.0385C96.3196 16.303 96.2428 16.4396 96.2342 16.4524C95.9868 16.7852 95.8588 17.0582 95.8588 17.2801C95.8588 17.502 95.9654 17.5958 96.1745 17.5958C96.166 17.5958 96.2769 17.5745 96.503 17.5276C97.5441 17.327 98.5638 16.9302 99.5622 16.3372C99.8865 16.1366 100.079 16.0385 100.138 16.0385C100.215 16.0385 100.253 16.0726 100.253 16.1366L100.266 16.1452Z" fill="white"/>
<path d="M107.874 15.9615C107.874 16.0597 107.703 16.2005 107.357 16.3754C107.157 16.465 106.858 16.6186 106.466 16.8405C106.235 16.9386 105.894 17.1093 105.446 17.3525C105.139 17.5615 104.887 17.7066 104.687 17.7834C104.563 17.8261 104.268 17.9754 103.812 18.2314C103.458 18.4319 103.155 18.5471 102.907 18.577C102.754 18.5898 102.54 18.6282 102.263 18.6922C102.186 18.7263 102.092 18.7434 101.977 18.7434C101.777 18.7434 101.593 18.6837 101.431 18.5599C101.239 18.4277 101.145 18.2527 101.145 18.0309C101.145 17.8005 101.26 17.5743 101.491 17.3525C101.807 17.0453 101.986 16.8661 102.024 16.8234C102.101 16.7039 102.199 16.593 102.319 16.4991C102.438 16.4053 102.558 16.3071 102.668 16.209C102.754 16.1109 102.89 15.9573 103.078 15.7525C103.266 15.5477 103.36 15.4111 103.36 15.3471C103.36 15.313 103.364 15.2746 103.372 15.2319V15.1167C103.372 14.9973 103.3 14.8949 103.151 14.8181C103.001 14.7413 102.865 14.7029 102.741 14.7029C102.626 14.7029 102.489 14.7711 102.323 14.9034C102.054 15.1125 101.67 15.3727 101.175 15.6799C101.09 15.7141 100.936 15.8122 100.714 15.9786C100.608 16.0554 100.433 16.1663 100.181 16.3114C99.8951 16.4565 99.7116 16.5247 99.6348 16.5247C99.5495 16.5247 99.5068 16.4863 99.5068 16.4095C99.5068 16.3541 99.622 16.2602 99.8524 16.1279C100.006 16.0383 100.155 15.9445 100.305 15.8463C100.454 15.7482 100.68 15.5861 100.987 15.3685C101.103 15.2362 101.286 15.0527 101.534 14.8223C101.832 14.5919 101.977 14.3018 101.977 13.9605C101.977 13.905 101.969 13.8282 101.947 13.7301C101.926 13.6319 101.917 13.5551 101.917 13.4997C101.917 13.1669 102.063 12.9749 102.348 12.9194C102.417 12.9066 102.54 12.8682 102.72 12.8042C102.873 12.7487 102.997 12.7231 103.095 12.7231C103.326 12.7231 103.441 12.8767 103.441 13.1882C103.441 13.3546 103.368 13.4997 103.219 13.6277C103.07 13.7557 102.997 13.8666 102.997 13.969C102.997 14.0458 103.014 14.1013 103.052 14.1354C103.168 14.225 103.343 14.3018 103.586 14.3658C103.978 14.4767 104.175 14.737 104.175 15.1423C104.175 15.441 104.064 15.7439 103.846 16.0511C103.752 16.1706 103.539 16.4095 103.215 16.7637C103.091 16.8831 103.001 16.9983 102.942 17.105C102.886 17.2117 102.732 17.3951 102.481 17.6597C102.412 17.7279 102.378 17.7706 102.378 17.7919C102.378 17.8901 102.489 17.9413 102.707 17.9413C103.308 17.9413 103.923 17.7749 104.546 17.4463C104.661 17.4037 104.836 17.3311 105.079 17.233C105.365 17.0581 105.796 16.8234 106.372 16.5375C106.504 16.4949 106.7 16.4053 106.961 16.273C107.439 16.0085 107.707 15.8762 107.763 15.8762C107.84 15.8762 107.878 15.9103 107.878 15.9743L107.874 15.9615Z" fill="white"/>
<path d="M113.762 15.9449C113.762 15.979 113.728 16.0259 113.659 16.0942C113.506 16.235 113.271 16.3801 112.955 16.5209C112.593 16.6958 112.345 16.8238 112.222 16.9006C111.923 17.1097 111.398 17.3486 110.643 17.6217C110.519 17.6857 110.319 17.7753 110.041 17.8862C109.973 17.899 109.815 17.9587 109.568 18.0654C109.376 18.1507 109.218 18.1977 109.094 18.1977H108.949C108.902 18.1977 108.825 18.2147 108.719 18.2489C108.612 18.283 108.535 18.3001 108.488 18.3001C108.365 18.3001 108.211 18.2617 108.027 18.1849C107.797 18.0953 107.648 18.0398 107.584 18.0185C107.46 18.0185 107.268 17.963 107.008 17.8521C106.538 17.4766 106.304 17.1779 106.304 16.9603C106.304 16.8409 106.393 16.6446 106.577 16.3801C106.624 16.3033 106.662 16.2051 106.692 16.0814C106.722 15.9619 106.786 15.851 106.893 15.7486C107.038 15.5737 107.272 15.3134 107.597 14.9721C107.921 14.6307 108.181 14.4003 108.373 14.2766C108.565 14.1571 108.877 14.0163 109.312 13.8627C109.747 13.7091 110.071 13.6323 110.28 13.6323H110.767C111.035 13.6323 111.168 13.7475 111.168 13.9779C111.168 14.1742 111.061 14.4131 110.852 14.6862C110.767 14.7289 110.647 14.8014 110.494 14.8995C110.4 14.9891 110.208 15.0958 109.918 15.2281C109.764 15.3262 109.529 15.4585 109.214 15.6249C108.791 15.7913 108.471 15.9705 108.254 16.1667C108.091 16.3075 108.01 16.5678 108.01 16.9433C108.01 17.1865 108.096 17.3699 108.262 17.5022C108.429 17.6345 108.625 17.6985 108.842 17.6985C109.043 17.6985 109.261 17.6771 109.487 17.6302C109.687 17.5747 109.888 17.5235 110.088 17.4809C110.349 17.4254 110.622 17.323 110.907 17.1651C111.129 17.0755 111.445 16.9347 111.855 16.7342C112.887 16.1497 113.493 15.8553 113.664 15.8553C113.719 15.8553 113.749 15.8809 113.749 15.9363L113.762 15.9449ZM110.131 14.7203C110.131 14.6307 110.075 14.5881 109.96 14.5881C109.892 14.5881 109.764 14.6563 109.572 14.7886C109.555 14.8099 109.389 14.8995 109.086 15.0531C108.877 15.1513 108.727 15.275 108.642 15.4158C108.574 15.4713 108.51 15.5523 108.441 15.6633L108.454 15.6803C108.702 15.5609 108.996 15.4158 109.329 15.2494C109.453 15.1939 109.623 15.0745 109.845 14.8867C109.901 14.8526 109.994 14.8057 110.118 14.7374L110.131 14.7203Z" fill="white"/>
<path d="M76.002 20.1855C76.1044 20.1386 76.1726 20.1429 76.2409 20.1429C76.9748 20.1429 77.7086 20.1087 78.4468 20.0917C79.3897 20.0746 80.3283 20.1429 81.2713 20.1045C82.3977 20.0618 83.5241 20.0533 84.6505 20.0575C85.0985 20.0575 85.5422 20.0106 85.9902 20.0021C86.8862 19.985 87.778 20.1386 88.674 20.0959C88.9854 20.0789 89.2883 20.1386 89.5998 20.1429C89.9923 20.1429 90.3849 20.1087 90.7689 20.113C91.2724 20.1215 91.7801 20.113 92.2835 20.1301C92.7998 20.1429 93.3161 20.1301 93.8281 20.0917C94.5022 20.0362 95.1849 20.0575 95.8633 20.0575C96.7934 20.0575 97.7278 20.1727 98.6579 20.1301C98.9182 20.1173 99.187 19.9381 99.4473 19.9594C100.433 20.0319 101.423 19.985 102.413 19.9935C103.309 20.0021 104.205 19.9679 105.096 19.921C105.399 19.9039 105.694 19.9466 105.988 19.9509C107.136 19.9722 108.288 20.0191 109.436 19.9978C110.174 19.9807 110.903 20.049 111.641 20.0405C111.966 20.0405 112.286 20.0405 112.606 20.0191C112.674 20.0149 112.746 20.0106 112.81 20.0191C112.921 20.0319 112.994 20.0789 113.011 20.1471C113.024 20.2111 112.973 20.2581 112.887 20.2837C112.828 20.305 112.759 20.3221 112.695 20.3263C112.375 20.3349 112.06 20.3647 111.735 20.3605C110.724 20.3434 109.717 20.2709 108.702 20.3221C108.339 20.3434 107.968 20.2965 107.601 20.2965C106.748 20.2965 105.903 20.2581 105.058 20.1813C104.776 20.1557 104.482 20.1599 104.196 20.1727C103.735 20.1941 103.279 20.1642 102.822 20.1386C102.285 20.113 101.743 20.0959 101.209 20.1685C100.949 20.2026 100.689 20.2154 100.42 20.2111C99.2595 20.1983 98.099 20.3434 96.9385 20.3562C96.0254 20.3647 95.1251 20.3093 94.2206 20.2495C93.6873 20.2111 93.1411 20.2026 92.6035 20.2666C92.467 20.2837 92.3305 20.2837 92.1897 20.2794C91.4729 20.2623 90.7689 20.2239 90.0606 20.2666C90.0393 20.2666 90.0094 20.2666 89.9923 20.2751C89.5358 20.4458 89.0494 20.433 88.5801 20.4159C87.6158 20.3818 86.6516 20.1941 85.6873 20.2282C84.8596 20.2581 84.0404 20.2965 83.2084 20.2623C82.7518 20.241 82.291 20.2794 81.8345 20.3007C81.5145 20.3178 81.1945 20.3306 80.8702 20.2965C80.8019 20.2879 80.7337 20.2879 80.6654 20.2879C79.3683 20.2751 78.0713 20.2239 76.7699 20.2453C76.5225 20.2453 76.2665 20.2538 76.002 20.1855Z" fill="white"/>
<path d="M59.2804 20.2923C58.6746 20.2752 58.0772 20.3264 57.4799 20.352C57.4159 20.352 57.3562 20.3605 57.2922 20.3605C57.2495 20.3605 57.2239 20.3477 57.2154 20.3221C57.2111 20.2965 57.2324 20.2795 57.2708 20.2752C57.3562 20.2624 57.4415 20.2496 57.5268 20.2453C58.4356 20.1813 59.353 20.1259 60.2618 20.1344C61.3071 20.1472 62.3354 20.0277 63.3764 20.0533C63.8671 20.0661 64.3492 20.0277 64.8399 20.0533C65.0831 20.0661 65.3391 20.032 65.5908 20.032C66.0943 20.0277 66.5935 20.0235 67.097 20.0235C67.562 20.0235 68.0228 19.9893 68.4836 19.9552C68.825 19.9296 69.1578 19.9253 69.4863 19.9936C69.593 20.0149 69.7082 20.0277 69.8148 20.0277C70.5402 20.0277 71.2698 20.0619 71.9951 19.9936C72.106 19.9851 72.2212 19.9808 72.3322 19.9893C73.1087 20.0405 73.8852 20.0533 74.6575 20.0619C75.2975 20.0704 75.9375 20.0491 76.5732 20.0405C77.098 20.0363 77.6228 20.0021 78.1476 19.9765C78.4122 19.9637 78.6724 20.0533 78.937 20.0661C79.065 20.0747 79.2015 20.096 79.2015 20.1856C79.2015 20.288 79.0479 20.3136 78.9071 20.3093C78.6298 20.3008 78.3567 20.2112 78.0836 20.2197C76.9572 20.2581 75.8266 20.2923 74.7002 20.2624C74.1839 20.2496 73.6762 20.2155 73.1642 20.224C73.1002 20.224 73.0362 20.2411 72.9764 20.2368C71.9482 20.1643 70.9242 20.3008 69.8959 20.2539C68.7311 20.1984 67.5706 20.2965 66.4058 20.3093C65.13 20.3264 63.8543 20.3904 62.5743 20.3648C62.122 20.3563 61.674 20.3477 61.2218 20.3733C61.098 20.3819 60.9658 20.3819 60.8463 20.3605C60.33 20.2752 59.801 20.3051 59.2762 20.288L59.2804 20.2923Z" fill="white"/>
<path d="M52.1001 20.2968C52.5822 20.3139 53.0558 20.2627 53.5294 20.2371C53.5806 20.2371 53.6276 20.2286 53.6788 20.2286C53.7129 20.2286 53.7342 20.2414 53.7385 20.267C53.7428 20.2926 53.7257 20.3096 53.6916 20.3139C53.6233 20.3267 53.5593 20.3395 53.491 20.3438C52.77 20.4078 52.0404 20.4632 51.3193 20.4547C50.4873 20.4419 49.6724 20.5614 48.8489 20.5358C48.4606 20.523 48.0766 20.5614 47.6884 20.5358C47.4921 20.523 47.2916 20.5571 47.0953 20.5571C46.6985 20.5614 46.2974 20.5656 45.9006 20.5656C45.5294 20.5656 45.1668 20.5998 44.7998 20.6339C44.531 20.6595 44.2622 20.6638 44.002 20.5955C43.9166 20.5742 43.827 20.5614 43.7374 20.5614C43.1614 20.5614 42.5812 20.5272 42.0052 20.5955C41.9156 20.604 41.826 20.6083 41.7364 20.5998C41.1177 20.5486 40.5033 20.5358 39.8889 20.5272C39.3812 20.5187 38.8734 20.54 38.3657 20.5486C37.9476 20.5528 37.5294 20.587 37.1156 20.6126C36.9065 20.6254 36.6974 20.5358 36.4884 20.523C36.386 20.5144 36.2793 20.4931 36.2793 20.4035C36.2793 20.3011 36.3988 20.2755 36.5097 20.2798C36.7316 20.2883 36.9449 20.3779 37.1668 20.3694C38.0628 20.331 38.9588 20.2968 39.8548 20.3267C40.2644 20.3395 40.6697 20.3736 41.075 20.3651C41.1262 20.3651 41.1732 20.348 41.2244 20.3523C42.0393 20.4248 42.8542 20.2883 43.6692 20.3352C44.595 20.3907 45.5166 20.2926 46.4382 20.2798C47.4537 20.2627 48.4649 20.1987 49.4804 20.2243C49.8388 20.2328 50.1972 20.2414 50.5556 20.2158C50.6537 20.2072 50.7604 20.2072 50.8542 20.2286C51.2638 20.3139 51.6862 20.284 52.1001 20.3011V20.2968Z" fill="white"/>
</g>
<defs>
<clipPath id="clip0_635_5611">
<rect width="113.762" height="32" fill="white"/>
</clipPath>
</defs>
</svg>
