<svg width="216" height="73" viewBox="0 0 216 73" fill="none" xmlns="http://www.w3.org/2000/svg">
<path d="M72.2019 0.535156H0V72.4645H72.2019V0.535156Z" fill="white"/>
<path d="M69.6027 32.3054V3.68945H3.41602V32.3054V34.9335L18.6584 34.914L13.636 20.6547H59.4022L54.3603 34.914L69.6221 34.9335V32.3054H69.6027Z" fill="#424143"/>
<path d="M69.6027 41.941H44.4031L49.4255 27.6816H23.6127L28.6351 41.941H3.41602V44.5787V69.6323H69.6027V44.5787V41.941Z" fill="#424143"/>
<path d="M73 73H0V0H72.9903V73H73ZM1.0512 71.9585H71.9585V1.04147H1.0512V71.9683V71.9585Z" fill="#424143"/>
<path d="M97.9863 25.3832C97.9863 27.1741 97.2563 28.8969 95.9715 30.1428C94.7257 31.447 92.9931 32.177 91.1827 32.1478H84.4473V3.59023H91.2119C93.0029 3.57076 94.7354 4.29103 95.9715 5.59529C97.2563 6.86063 97.9669 8.59316 97.9474 10.3938L97.9863 25.3832ZM88.7689 27.9625H91.3579C92.0198 27.9722 92.6525 27.7094 93.0905 27.2228C93.5479 26.7653 93.801 26.1326 93.7913 25.4902V10.4717C93.801 9.81956 93.5479 9.18689 93.0807 8.71969C92.633 8.24276 92.0101 7.97996 91.3579 7.9897H88.7689V27.9625Z" fill="white"/>
<path d="M110.113 3.24033C113.88 3.22086 116.946 6.24793 116.975 10.0147C116.975 10.0342 116.975 10.0634 116.975 10.0829V25.6659C116.975 29.4327 113.919 32.489 110.152 32.489C106.385 32.489 103.329 29.4327 103.329 25.6659V10.0829C103.329 6.31606 106.376 3.25979 110.142 3.25006H110.113V3.24033ZM112.459 9.98553C112.459 8.63259 111.379 7.53273 110.026 7.52299C110.006 7.52299 109.987 7.52299 109.967 7.52299C109.315 7.51326 108.682 7.76633 108.215 8.23353C107.748 8.69099 107.495 9.32366 107.514 9.98553V25.6075C107.514 26.2597 107.767 26.8923 108.244 27.3401C108.702 27.8073 109.335 28.0603 109.996 28.0506C111.349 28.0506 112.449 26.9702 112.459 25.6173C112.459 25.6173 112.459 25.5978 112.459 25.5881V9.98553Z" fill="white"/>
<path d="M126.291 32.1475L121.171 3.61914H125.677L129.259 25.8598L132.87 3.61914H137.396L132.199 32.1573H126.291V32.1475Z" fill="white"/>
<path d="M142.292 32.1474V3.58984H154.537V7.91144H146.584V15.6981H152.395V20.0197H146.584V27.8064H154.537V32.128H142.292V32.1474Z" fill="white"/>
<path d="M163.053 7.94074H158.479V3.61914H171.92V7.94074H167.375V32.1573H163.063V7.94074H163.053Z" fill="white"/>
<path d="M178.559 25.597L177.508 32.1573H173.03L177.887 3.61914H183.805L188.594 32.1573H184.068L183.056 25.597H178.549H178.559ZM180.827 10.1989L179.23 21.3922H182.423L180.827 10.1989Z" fill="white"/>
<path d="M197.48 32.1475H193.168V3.61914H197.48V32.1475Z" fill="white"/>
<path d="M215.37 32.1475H203.642V3.61914H207.953V27.8649H215.37V32.1475Z" fill="white"/>
<path d="M90.7251 41.9882C90.5889 40.5866 89.8394 39.4867 88.3989 39.4867C85.5957 39.4867 85.4497 43.5163 85.4497 44.4799C85.4497 45.4435 85.4497 49.3661 88.3502 49.3661C90.0827 49.3661 90.6862 47.8866 90.8711 46.6505L91.8834 46.9425C91.7861 48.8113 90.2482 50.2713 88.3794 50.2907C87.1725 50.3589 86.0142 49.7846 85.3426 48.7821C84.6223 47.6238 84.2622 46.2709 84.3206 44.9082C84.2427 43.3995 84.5445 41.8909 85.2063 40.5282C85.839 39.2629 87.153 38.4939 88.5643 38.5718C90.3066 38.5523 91.7374 39.9247 91.7861 41.667L90.7349 42.0077L90.7251 41.9882Z" fill="white"/>
<path d="M102.473 48.2185C101.977 49.5033 100.731 50.3306 99.3488 50.3014C98.2781 50.3598 97.2464 49.9218 96.5456 49.114C95.6404 47.8486 95.1927 46.3108 95.29 44.7632C95.2121 43.3324 95.4457 41.8918 95.9908 40.5681C96.8571 38.7966 98.9887 38.0569 100.76 38.9232C101.295 39.186 101.763 39.5753 102.103 40.062C102.833 41.4052 103.193 42.9138 103.125 44.442C103.193 45.7365 102.96 47.0213 102.463 48.2185H102.473ZM99.2612 39.4974C98.2197 39.5558 97.3145 40.2469 96.9933 41.2494C96.6332 42.3201 96.4677 43.4394 96.5067 44.5685C96.458 45.717 96.6624 46.8558 97.0907 47.9168C97.5579 49.114 98.9108 49.698 100.098 49.2308C100.702 48.9972 101.179 48.5202 101.412 47.9168C101.87 46.8461 102.064 45.6878 101.996 44.5296C101.996 42.7678 101.743 39.5072 99.2515 39.5072L99.2612 39.4974Z" fill="white"/>
<path d="M109.627 38.7969L112.538 45.7951C112.8 46.457 113.17 47.5277 113.443 48.1895C113.56 48.4718 113.667 48.8514 113.822 48.8514C113.978 48.8514 113.959 48.7638 113.959 48.5983V38.7969H115.068V49.8929H113.034L109.968 42.3495C109.618 41.4833 109.588 41.3957 109.267 40.5586C109.082 40.0719 109.034 39.7994 108.907 39.7994C108.829 39.7994 108.771 39.8578 108.771 39.9357C108.771 39.9357 108.771 39.9454 108.771 39.9551V49.8929H107.661V38.7969H109.618H109.627Z" fill="white"/>
<path d="M125.541 41.3561C125.298 40.2368 124.295 39.4581 123.147 39.4776C122.115 39.4192 121.229 40.2173 121.171 41.249C121.171 41.2782 121.171 41.3172 121.171 41.3464C121.171 42.5533 122.32 43.0497 122.874 43.293L124.48 43.9257C126.106 44.607 126.972 45.3273 126.972 47.128C126.972 48.0624 126.554 48.9578 125.824 49.5516C125.084 50.0382 124.218 50.2816 123.332 50.2329C121.736 50.2134 120.315 49.2012 119.76 47.7022L120.772 47.2156C121.015 47.9456 121.512 48.5685 122.174 48.9676C122.67 49.2304 123.225 49.3569 123.78 49.3277C124.899 49.3958 125.863 48.549 125.931 47.4297C125.931 47.3616 125.931 47.2837 125.931 47.2156C125.96 46.398 125.483 45.6485 124.743 45.3273L124.198 45.0645C123.517 44.7141 122.797 44.461 122.067 44.1398C121.385 43.877 120.83 43.3806 120.48 42.7382C120.285 42.3294 120.178 41.8817 120.169 41.4242C120.149 39.8766 121.395 38.6113 122.943 38.6016C123.079 38.6016 123.225 38.6016 123.361 38.6308C124.85 38.5821 126.193 39.5165 126.68 40.9278L125.522 41.3658L125.541 41.3561Z" fill="white"/>
<path d="M137.747 38.7969V39.7605H134.194V49.8929H133.007V39.7605H129.464V38.7969H137.747Z" fill="white"/>
<path d="M142.039 38.797H145.66C146.672 38.6607 147.694 38.9722 148.463 39.6535C149.037 40.2278 149.329 41.0162 149.271 41.8241C149.427 43.3619 148.317 44.7343 146.779 44.8998C146.604 44.9193 146.429 44.9193 146.254 44.8998L149.758 49.893H148.356L145.154 44.9777H143.236V49.893H142.088L142.049 38.797H142.039ZM145.066 43.9751C146.185 43.9751 148.064 43.9751 148.064 41.8727C148.064 39.7703 146.662 39.7995 145.572 39.7995H143.197V43.9946L145.076 43.9654L145.066 43.9751Z" fill="white"/>
<path d="M154.614 38.7969V46.7295C154.478 48.0241 155.422 49.1726 156.717 49.3089C156.795 49.3089 156.872 49.3186 156.95 49.3186C158.342 49.4159 159.549 48.3745 159.646 46.9923C159.656 46.8366 159.646 46.6809 159.646 46.5251V38.7969H160.766V46.5933C160.941 48.4718 159.559 50.1362 157.68 50.3114C157.447 50.3309 157.203 50.3309 156.97 50.3114C155.111 50.4087 153.524 48.9682 153.437 47.1091C153.437 46.9534 153.437 46.7879 153.446 46.6322V38.8066H154.624L154.614 38.7969Z" fill="white"/>
<path d="M171.823 41.9889C171.686 40.5873 170.937 39.4875 169.496 39.4875C166.693 39.4875 166.528 43.5171 166.528 44.4807C166.528 45.4443 166.528 49.3668 169.428 49.3668C171.161 49.3668 171.764 47.8873 171.949 46.6512L172.962 46.9627C172.864 48.8315 171.326 50.2915 169.458 50.3109C168.251 50.3693 167.102 49.7951 166.43 48.7828C165.71 47.6245 165.35 46.2716 165.408 44.9089C165.331 43.4003 165.632 41.8916 166.294 40.5289C166.927 39.2733 168.231 38.5044 169.642 38.5725C171.365 38.5725 172.777 39.9449 172.816 41.6677L171.823 42.0084V41.9889Z" fill="white"/>
<path d="M184.506 38.7969V39.7605H180.953V49.8929H179.766V39.7605H176.223V38.7969H184.506Z" fill="white"/>
<path d="M187.844 49.2504H189.06V39.449H187.844V38.7871H191.455V39.449H190.238V49.2504H191.455V49.9123H187.844V49.2504Z" fill="white"/>
<path d="M202.171 48.2181C201.675 49.5029 200.429 50.3303 199.047 50.3011C197.976 50.3595 196.945 49.9215 196.244 49.1136C195.339 47.8483 194.891 46.3104 194.988 44.7628C194.91 43.332 195.144 41.8915 195.689 40.5677C196.254 39.3219 197.509 38.5335 198.882 38.5627C200.069 38.5043 201.208 39.0785 201.86 40.0713C202.59 41.4145 202.95 42.9232 202.882 44.4513C202.921 45.7459 202.678 47.0307 202.171 48.2181ZM198.969 39.4971C197.947 39.5749 197.071 40.266 196.76 41.2491C196.4 42.3197 196.234 43.4391 196.273 44.5681C196.224 45.7167 196.429 46.8555 196.857 47.9164C197.324 49.1136 198.677 49.6976 199.865 49.2304C200.468 48.9968 200.945 48.5199 201.179 47.9164C201.636 46.8457 201.831 45.6875 201.763 44.5292C201.704 42.7675 201.451 39.5068 198.959 39.5068L198.969 39.4971Z" fill="white"/>
<path d="M209.355 38.7969L212.265 45.7951C212.528 46.457 212.898 47.5277 213.17 48.1895C213.287 48.4718 213.394 48.8514 213.55 48.8514C213.706 48.8514 213.686 48.7638 213.686 48.5983V38.7969H214.796V49.8929H212.761L209.686 42.3495C209.335 41.4833 209.306 41.3957 208.985 40.5586C208.8 40.0719 208.751 39.7994 208.625 39.7994C208.547 39.7994 208.489 39.8578 208.489 39.9357C208.489 39.9357 208.489 39.9454 208.489 39.9551V49.8929H207.379V38.7969H209.355Z" fill="white"/>
<path d="M214.796 56.3457H84.3008V57.1341H214.796V56.3457Z" fill="white"/>
<path d="M146.341 61.8848H147.616L149.69 69.6033H148.697L148.142 67.4814H145.679L145.105 69.6033H144.112L146.341 61.8848ZM145.874 66.7028H147.947L146.964 62.9749H146.945L145.874 66.7028Z" fill="white"/>
<path d="M151.753 69.6323V61.8359H154.04C154.731 61.8359 155.247 61.9722 155.588 62.235C155.929 62.4978 156.104 62.8969 156.104 63.4322V64.0357C156.104 64.4153 156.036 64.717 155.89 64.9506C155.744 65.1842 155.52 65.3691 155.199 65.5054C155.568 65.6222 155.841 65.8071 156.016 66.0407C156.182 66.2743 156.269 66.5858 156.269 66.9751V67.6565C156.269 68.3281 156.084 68.8245 155.705 69.1457C155.335 69.4669 154.761 69.6323 153.982 69.6323H151.753ZM153.495 64.9603C153.855 64.9506 154.099 64.8922 154.225 64.7851C154.352 64.6781 154.42 64.5029 154.42 64.2498V63.7631C154.42 63.5393 154.352 63.3835 154.225 63.2959C154.099 63.2083 153.855 63.1597 153.505 63.1597V64.9506L153.495 64.9603ZM153.495 68.3281C153.904 68.3281 154.177 68.2599 154.303 68.1529C154.43 68.0458 154.507 67.8317 154.507 67.5202V67.0043C154.507 66.7026 154.439 66.4885 154.293 66.3717C154.147 66.2549 153.885 66.1867 153.495 66.1867V68.3378V68.3281Z" fill="white"/>
<path d="M156.999 69.6323V61.8359H158.761V69.6323H156.999Z" fill="white"/>
<path d="M162.595 69.632V69.0285C162.411 69.2621 162.206 69.4373 161.963 69.5639C161.719 69.6904 161.457 69.7488 161.165 69.7488C160.639 69.7488 160.25 69.5444 159.977 69.1356C159.705 68.7268 159.578 68.1233 159.578 67.3349V64.1327C159.578 63.3345 159.773 62.7311 160.162 62.332C160.551 61.9329 161.135 61.7285 161.904 61.7285C162.673 61.7285 163.257 61.9329 163.647 62.332C164.036 62.7311 164.221 63.3345 164.221 64.1424V64.5122H162.44V63.8601C162.44 63.6071 162.401 63.4221 162.313 63.3053C162.226 63.1885 162.089 63.1301 161.895 63.1301C161.7 63.1301 161.573 63.1885 161.496 63.3053C161.418 63.4221 161.369 63.6071 161.369 63.8601V67.6366C161.369 67.8897 161.408 68.0746 161.496 68.1914C161.583 68.3082 161.719 68.3666 161.904 68.3666C162.089 68.3666 162.226 68.3082 162.313 68.1914C162.401 68.0746 162.44 67.8897 162.44 67.6366V66.7606H161.836V65.3299H164.221V69.6417H162.595V69.632Z" fill="white"/>
<path d="M164.961 67.1787V65.6895H167.492V67.1787H164.961Z" fill="white"/>
<path d="M168.261 61.8457H170.441C171.385 61.8457 172.018 62.0014 172.349 62.3032C172.68 62.6049 172.845 63.1597 172.845 63.9578V67.5397C172.845 67.968 172.796 68.3086 172.699 68.5617C172.602 68.8148 172.436 69.0386 172.203 69.2236C172.008 69.3793 171.784 69.4864 171.512 69.5448C171.239 69.6032 170.782 69.6421 170.139 69.6421H168.27V61.8457H168.261ZM170.246 63.1694H170.022V68.2989H170.246C170.587 68.2989 170.811 68.2502 170.908 68.1529C171.006 68.0556 171.054 67.8609 171.054 67.5786V63.9092C171.054 63.6269 171.006 63.4322 170.908 63.3252C170.811 63.2181 170.587 63.1694 170.246 63.1694Z" fill="white"/>
<path d="M179.716 66.9553C179.629 68.4153 179.055 69.7585 177.371 69.7585C175.181 69.7585 174.889 67.6951 174.889 65.7484C174.889 63.8018 175.249 61.7383 177.371 61.7383C178.947 61.7383 179.609 62.624 179.648 64.1424H178.655C178.636 63.2664 178.354 62.517 177.371 62.517C176.057 62.517 175.881 63.9672 175.881 65.7484C175.881 67.5296 176.057 68.9799 177.371 68.9799C178.529 68.9799 178.694 67.8995 178.724 66.9553H179.716Z" fill="white"/>
<path d="M185.479 65.7484C185.479 67.6951 185.119 69.7585 182.997 69.7585C180.875 69.7585 180.515 67.6951 180.515 65.7484C180.515 63.8018 180.875 61.7383 182.997 61.7383C185.119 61.7383 185.479 63.8018 185.479 65.7484ZM181.498 65.7484C181.498 67.5296 181.673 68.9799 182.987 68.9799C184.301 68.9799 184.476 67.5296 184.476 65.7484C184.476 63.9672 184.301 62.517 182.987 62.517C181.673 62.517 181.498 63.9672 181.498 65.7484Z" fill="white"/>
<path d="M186.646 61.8848H188.243L189.79 68.007H189.81L191.357 61.8848H192.954V69.6033H192V62.8581H191.98L190.277 69.6033H189.323L187.62 62.8581H187.6V69.6033H186.646V61.8848Z" fill="white"/>
<path d="M194.239 61.8848H196.205C196.877 61.8848 198.59 61.8848 198.59 64.104C198.59 65.5445 197.675 66.3426 196.361 66.3426H195.183V69.6033H194.229V61.8848H194.239ZM195.193 65.564H196.332C197.023 65.564 197.607 65.087 197.607 64.065C197.607 63.2182 197.208 62.6732 196.264 62.6732H195.193V65.5737V65.564Z" fill="white"/>
<path d="M200.556 61.8848H201.831L203.904 69.6033H202.912L202.357 67.4814H199.894L199.32 69.6033H198.327L200.556 61.8848ZM200.089 66.7028H202.162L201.179 62.9749H201.16L200.089 66.7028Z" fill="white"/>
<path d="M204.449 61.8848H205.685L208.235 68.3282H208.255V61.8848H209.209V69.6033H207.905L205.432 63.3545H205.413V69.6033H204.459V61.8848H204.449Z" fill="white"/>
<path d="M209.812 61.8848H210.864L212.333 65.4958L213.862 61.8848H214.854L212.81 66.5762V69.6033H211.857V66.5762L209.812 61.8848Z" fill="white"/>
</svg>
