<svg xmlns="http://www.w3.org/2000/svg" viewBox="0 0 225.93 69.73"><defs><style>.cls-1{fill:#333;}.cls-2{fill:#d0cfcd;}</style></defs><g id="Black_Logos" data-name="Black Logos"><rect class="cls-1" x="0.6" y="0.46" width="68.86" height="68.31"/><rect class="cls-2" x="4.83" y="4.83" width="60.07" height="60.07"/><path class="cls-2" d="M70.22,0H0V69.73H70.22ZM2,67.7V2H68.15V67.7Z"/><path class="cls-1" d="M14.88,29a3.3,3.3,0,0,1,1.68.3A1.21,1.21,0,0,1,17,30.32v1.1a1.46,1.46,0,0,1-.44,1.21,3.11,3.11,0,0,1-1.68.39Zm0,6.89a2.91,2.91,0,0,1,1.81.42,1.8,1.8,0,0,1,.5,1.45V38.9a1.8,1.8,0,0,1-.46,1.45,3.23,3.23,0,0,1-1.85.41ZM16,43.76A5.93,5.93,0,0,0,20,42.65a4.31,4.31,0,0,0,1.28-3.43V37.67a3.67,3.67,0,0,0-.58-2.15,3.61,3.61,0,0,0-1.87-1.22A3.26,3.26,0,0,0,20.36,33a3.92,3.92,0,0,0,.5-2.09V29.57a3.25,3.25,0,0,0-1.18-2.75,5.75,5.75,0,0,0-3.55-.91H10.89V43.76Z"/><path class="cls-1" d="M22.91,43.76V25.91h4V43.76Z"/><path class="cls-1" d="M35.73,43.76l0-1.4a4.07,4.07,0,0,1-1.43,1.23,3.86,3.86,0,0,1-1.83.43,3,3,0,0,1-2.72-1.4,7.5,7.5,0,0,1-.92-4.13V31.18A5.7,5.7,0,0,1,30.14,27a5.29,5.29,0,0,1,4-1.39,5.31,5.31,0,0,1,4,1.37,5.75,5.75,0,0,1,1.33,4.15V32H35.37V30.52a2.13,2.13,0,0,0-.3-1.28,1.13,1.13,0,0,0-1-.4,1.08,1.08,0,0,0-.93.4,2.15,2.15,0,0,0-.3,1.28v8.63a2.06,2.06,0,0,0,.29,1.25,1.13,1.13,0,0,0,1,.39,1.09,1.09,0,0,0,.94-.39,2.05,2.05,0,0,0,.3-1.25v-2H34V33.9h5.46v9.86Z"/><path class="cls-1" d="M41.14,38.11V34.7h5.79v3.41Z"/><path class="cls-1" d="M54.78,29.3a1.89,1.89,0,0,1,.34,1.32v8.43a1.89,1.89,0,0,1-.34,1.32,2.29,2.29,0,0,1-1.53.35h-.51V29h.52A2.24,2.24,0,0,1,54.78,29.3ZM48.7,43.76H53a15.39,15.39,0,0,0,3.15-.22,3.84,3.84,0,0,0,1.59-.74,3.74,3.74,0,0,0,1.13-1.51A6.63,6.63,0,0,0,59.19,39V30.73c0-1.83-.38-3.1-1.13-3.79s-2.2-1-4.36-1h-5Z"/><path class="cls-2" d="M115.15,51.07h1.95a1.27,1.27,0,0,1,1.4,1.42c0,.71-.32,1.26-.92,1.35v0c.55,0,.84.35.87,1.13,0,.35,0,.79,0,1.12a.55.55,0,0,0,.26.48h-1a1,1,0,0,1-.14-.49c0-.33,0-.64,0-1,0-.61-.2-.87-.81-.87H116v2.4h-.88Zm1.59,2.46a.82.82,0,0,0,.88-.9c0-.59-.26-.9-.84-.9H116v1.8Z"/><path class="cls-2" d="M121.16,51.07h3v.74H122v1.53h2v.74h-2v1.77h2.17v.74h-3Z"/><path class="cls-2" d="M127.42,54.88V55c0,.67.29,1,.9,1a.78.78,0,0,0,.84-.8.92.92,0,0,0-.79-1l-.6-.21a1.47,1.47,0,0,1-1.15-1.52A1.51,1.51,0,0,1,128.33,51c1.42,0,1.56.88,1.56,1.45v.13H129v-.12c0-.5-.22-.8-.77-.8a.7.7,0,0,0-.74.8c0,.47.24.71.82.94l.6.21A1.42,1.42,0,0,1,130,55c0,1.18-.71,1.67-1.82,1.67A1.52,1.52,0,0,1,126.54,55v-.13Z"/><path class="cls-2" d="M132.48,53.83c0-2,.56-2.87,1.82-2.87s1.83.9,1.83,2.87-.56,2.87-1.83,2.87S132.48,55.8,132.48,53.83Zm2.77,0c0-1.85-.42-2.18-.95-2.18s-.94.33-.94,2.18.42,2.23.94,2.23S135.25,55.71,135.25,53.8Z"/><path class="cls-2" d="M138.77,51.07h1.95a1.27,1.27,0,0,1,1.4,1.42c0,.71-.32,1.26-.92,1.35v0c.55,0,.83.35.86,1.13,0,.35,0,.79,0,1.12a.58.58,0,0,0,.27.48h-1a1,1,0,0,1-.15-.49c0-.33,0-.64,0-1,0-.61-.2-.87-.8-.87h-.72v2.4h-.88Zm1.58,2.46a.82.82,0,0,0,.89-.9c0-.59-.26-.9-.84-.9h-.75v1.8Z"/><path class="cls-2" d="M145.54,51.81h-1.31v-.74h3.49v.74h-1.29v4.78h-.89Z"/><path class="cls-2" d="M150.76,54.88V55c0,.67.29,1,.9,1a.78.78,0,0,0,.84-.8.92.92,0,0,0-.79-1l-.6-.21A1.48,1.48,0,0,1,150,52.52,1.52,1.52,0,0,1,151.67,51c1.42,0,1.56.88,1.56,1.45v.13h-.88v-.12c0-.5-.22-.8-.77-.8a.7.7,0,0,0-.74.8c0,.47.24.71.82.94l.6.21A1.42,1.42,0,0,1,153.38,55c0,1.18-.71,1.67-1.82,1.67A1.52,1.52,0,0,1,149.88,55v-.13Z"/><path class="cls-2" d="M162.46,54.92a1.79,1.79,0,0,0,.22-.85V54h.69V54a2.84,2.84,0,0,1-.47,1.5l.75,1.05h-.93l-.33-.47a2,2,0,0,1-1.4.58,1.5,1.5,0,0,1-1.62-1.53,1.77,1.77,0,0,1,.77-1.44l.35-.27-.21-.31a1.82,1.82,0,0,1-.35-.9,1.17,1.17,0,0,1,1.31-1.18,1.11,1.11,0,0,1,1.21,1.12,1.41,1.41,0,0,1-.67,1.16l-.28.21Zm-1.75-.79a1.23,1.23,0,0,0-.51,1,.91.91,0,0,0,.94.88,1.19,1.19,0,0,0,.86-.42L160.88,54Zm.6-1.26a1,1,0,0,0,.4-.71.48.48,0,0,0-.52-.52.47.47,0,0,0-.52.48,1.37,1.37,0,0,0,.32.76l.13.17Z"/><path class="cls-2" d="M169.67,51.07h2a1.27,1.27,0,0,1,1.4,1.42c0,.71-.32,1.26-.92,1.35v0c.55,0,.84.35.87,1.13,0,.35,0,.79,0,1.12a.58.58,0,0,0,.26.48h-1a1,1,0,0,1-.14-.49c0-.33,0-.64,0-1,0-.61-.2-.87-.81-.87h-.72v2.4h-.88Zm1.59,2.46a.82.82,0,0,0,.88-.9c0-.59-.26-.9-.84-.9h-.75v1.8Z"/><path class="cls-2" d="M175.68,51.07h3v.74h-2.1v1.53h2v.74h-2v1.77h2.16v.74h-3Z"/><path class="cls-2" d="M181.94,54.88V55c0,.67.3,1,.91,1a.78.78,0,0,0,.83-.8.92.92,0,0,0-.79-1l-.6-.21a1.47,1.47,0,0,1-1.15-1.52A1.51,1.51,0,0,1,182.85,51c1.42,0,1.57.88,1.57,1.45v.13h-.89v-.12c0-.5-.22-.8-.77-.8a.7.7,0,0,0-.74.8c0,.47.24.71.83.94l.59.21A1.42,1.42,0,0,1,184.56,55c0,1.18-.71,1.67-1.82,1.67A1.52,1.52,0,0,1,181.06,55v-.13Z"/><path class="cls-2" d="M187.09,51.07H188v5.52h-.89Z"/><path class="cls-2" d="M190.71,51.07h1.57c1.73,0,1.94,1.13,1.94,2.76s-.21,2.76-1.94,2.76h-1.57Zm.88,4.85h.72c.73,0,1-.48,1-2.09s-.26-2.1-1-2.1h-.72Z"/><path class="cls-2" d="M196.86,51.07h3v.74h-2.1v1.53h2v.74h-2v1.77h2.16v.74h-3Z"/><path class="cls-2" d="M202.44,51.07h1.08l1.6,4.11h0V51.07H206v5.52h-1.08l-1.6-4.22h0v4.22h-.84Z"/><path class="cls-2" d="M212.13,54.61v.11c0,1-.4,2-1.7,2s-1.82-.9-1.82-2.87S209,51,210.44,51a1.51,1.51,0,0,1,1.66,1.73v.1h-.88V52.7c0-.51-.15-1.1-.79-1.08s-.94.41-.94,2.18.29,2.23.94,2.23.82-.82.82-1.33v-.09Z"/><path class="cls-2" d="M214.61,51.07h3v.74h-2.1v1.53h2v.74h-2v1.77h2.17v.74h-3Z"/><path class="cls-2" d="M220.87,54.88V55c0,.67.29,1,.9,1a.78.78,0,0,0,.84-.8.93.93,0,0,0-.79-1l-.6-.21a1.48,1.48,0,0,1-1.16-1.52A1.52,1.52,0,0,1,221.78,51c1.41,0,1.56.88,1.56,1.45v.13h-.88v-.12c0-.5-.22-.8-.77-.8a.71.71,0,0,0-.75.8c0,.47.24.71.83.94l.6.21A1.42,1.42,0,0,1,223.49,55c0,1.18-.71,1.67-1.83,1.67A1.51,1.51,0,0,1,220,55v-.13Z"/><path class="cls-2" d="M110.42,11.4a1.65,1.65,0,0,1-.78,1.4c-.3.22-.81.56-1.53,1a2.41,2.41,0,0,0-.66.61,3.6,3.6,0,0,1-.75.72,5.86,5.86,0,0,0-.94.88,10.12,10.12,0,0,1-1,.92,17.59,17.59,0,0,1-1.69,1.76c-.21.14-1,.9-2.48,2.28A5.4,5.4,0,0,0,99,23.59c-.32.82-.71,2.06-1.19,3.74-.07.56-.13,1.12-.2,1.66a7.76,7.76,0,0,1-.48,1.94,15.87,15.87,0,0,1-1,2.3A24.92,24.92,0,0,1,94.59,36a9.8,9.8,0,0,1-1.71,1.7A8.93,8.93,0,0,1,90.79,39c-.16.07-.41.19-.75.38a2.9,2.9,0,0,1-.92.33,2.47,2.47,0,0,0-.49.14A2.07,2.07,0,0,1,88,40h-1a10.5,10.5,0,0,1-6-2,5.27,5.27,0,0,1-2.24-4.55,8.18,8.18,0,0,1,.48-3q.33-.89,1.08-2.55a17.27,17.27,0,0,1,1.8-2.64,13,13,0,0,1,1.29-1.4,2.67,2.67,0,0,1,1.73-.74,2.77,2.77,0,0,1,2.31,1.25,4.1,4.1,0,0,1,.85,2.55,5.48,5.48,0,0,1,0,.7c0,.3-.05.53-.05.69s0,.17.1.17a6.69,6.69,0,0,0,2.28-1.36q.3-.24,2.82-1.83a11.75,11.75,0,0,0,4.11-4c.68-1.13,1.15-1.9,1.42-2.31a12.18,12.18,0,0,1,1.7-2c.36-.45.93-1.07,1.7-1.87.11-.09.81-.85,2.1-2.27a5.84,5.84,0,0,1,2.64-1.7,8.87,8.87,0,0,1,2.36-.44C110.1,10.69,110.42,10.93,110.42,11.4ZM85.25,26.58c0-1-.3-1.49-.91-1.49a.9.9,0,0,0-.58.27l-1.19.91a5.79,5.79,0,0,0-1.29,2.08c0,.06-.16.32-.41.78A6.38,6.38,0,0,0,80,32.42c0,.41.11.61.33.61a8.8,8.8,0,0,0,1.81-.78,6.78,6.78,0,0,0,.84-.44,2.1,2.1,0,0,0,.68-.61A8.7,8.7,0,0,0,84.74,29,7.23,7.23,0,0,0,85.25,26.58ZM82.16,33.4c0-.13,0-.2-.17-.2a1.89,1.89,0,0,0-.64.31c-.41.22-.65.35-.72.37a.7.7,0,0,0-.51.68,2.76,2.76,0,0,0,.31,1.12c.2.43.44.64.71.64s.17-.06.17-.2a1,1,0,0,0,0-.29,1.35,1.35,0,0,1-.05-.29,3.51,3.51,0,0,1,.48-.9A2.61,2.61,0,0,0,82.16,33.4Zm13.76-8c0-.36-.11-.54-.31-.54,0,0-.61.3-1.7.88-.38.3-1,.75-1.9,1.36q-1,.64-2.1,1.26a12.12,12.12,0,0,0-2,1.46,3.11,3.11,0,0,0-.72,1.39,7.46,7.46,0,0,1-.86,1.61,7.49,7.49,0,0,1-1.11,1.46,7.35,7.35,0,0,1-1.46.87c-1.38.72-2.07,1.27-2.07,1.63s.73.79,2.17,1.29a4.89,4.89,0,0,0,1.7.34,7,7,0,0,0,3.74-1,11.31,11.31,0,0,0,2.48-2.55,20.65,20.65,0,0,0,2-3,16.78,16.78,0,0,1,.71-1.53A2.84,2.84,0,0,0,95,29.13a4.34,4.34,0,0,1,.27-1A12.87,12.87,0,0,0,95.81,26,2.35,2.35,0,0,0,95.92,25.42Z"/><path class="cls-2" d="M109.73,34.81c0,.15-.17.32-.52.51-.51.31-1.27.76-2.28,1.33A19.61,19.61,0,0,1,104.59,38a7.68,7.68,0,0,0-1.48.79,5.7,5.7,0,0,1-1.52.72c-.09,0-.29.09-.59.2a2.06,2.06,0,0,1-.68.16,1.93,1.93,0,0,0-.66.18,1.93,1.93,0,0,1-.66.18,2,2,0,0,1-1.06-.36l-.9-.23c-.29-.09-.53-.42-.73-1a2.74,2.74,0,0,1-.14-.87,4.67,4.67,0,0,1,.9-2.52,16.44,16.44,0,0,1,1.44-1.84A6.18,6.18,0,0,1,100,31.93c.16-.07.41-.19.73-.36a4.33,4.33,0,0,1,1.12-.72c1-.22,1.47-.33,1.31-.33.5,0,.76.17.76.51a.43.43,0,0,1-.14.25c-.45.53-1.13,1.29-2,2.27a22.16,22.16,0,0,1-2,1.52,4.08,4.08,0,0,0-1.55,2.16,2.16,2.16,0,0,0-.16.76c0,.57.4.86,1.2.86a6,6,0,0,0,2.64-.49,22.26,22.26,0,0,0,2.43-1c.16-.1,1.25-.71,3.26-1.83a16.4,16.4,0,0,1,1.88-.94Q109.73,34.6,109.73,34.81Zm-2-9.41c0,.24-.17.36-.49.36a2.75,2.75,0,0,1-.85-.18,6,6,0,0,1-1.85-.47,2.16,2.16,0,0,1-.68-1.55.61.61,0,0,1,.27-.54,4.44,4.44,0,0,1,.85-.54c.11,0,.22.1.34.3s.22.4.31.56l.54.76a1.83,1.83,0,0,0,.68.47C107.43,24.81,107.72,25.09,107.72,25.4Z"/><path class="cls-2" d="M127.4,34.78a.38.38,0,0,1-.19.34l-1.09.67a13.54,13.54,0,0,1-1.16.75c-.51.32-.9.57-1.15.76a28.35,28.35,0,0,0-2.48,2,10.08,10.08,0,0,0-1.14.9c-.26.24-.63.61-1.12,1.12a8.59,8.59,0,0,1-1.25,1,7.12,7.12,0,0,0-1.28,1.12c-.46.51-.91,1-1.36,1.37a11.89,11.89,0,0,0-2.43,3c-.38.6-.94,1.51-1.69,2.74l-.89,1.66a6.81,6.81,0,0,1-1,1.46A8.12,8.12,0,0,0,108,55.37a12.77,12.77,0,0,1-1.12,1.84c-.49.69-1.24,1.73-2.26,3.1l-2.26,3c-1.16,1.46-2,2.2-2.42,2.2s-.49-.22-.49-.65a4.16,4.16,0,0,1,.65-1.66,15.83,15.83,0,0,0,.88-1.73c.34-1,1.77-3.1,4.27-6.35.25-.31.61-.79,1.06-1.44a12.48,12.48,0,0,1,1.66-2,9,9,0,0,0,1.58-2.06,8.07,8.07,0,0,1,.68-.76,7.17,7.17,0,0,0,.66-.83,27.59,27.59,0,0,0,1.88-2.63l1-1.73a7.74,7.74,0,0,1,.92-1.55,3.06,3.06,0,0,0,.45-.83,3.29,3.29,0,0,1,.48-.86,9,9,0,0,0,1-1.59,8.66,8.66,0,0,1,.95-1.55,11,11,0,0,1,.52-1.16,3.65,3.65,0,0,0,.65-1.84l0,0a1.89,1.89,0,0,0-.7.34,6.83,6.83,0,0,0-.69.49,1.41,1.41,0,0,1-.63.39l-.68.29q-.84.54-4.16,2.49a7,7,0,0,0-1.53,1,1.11,1.11,0,0,1-.82.46c-.32,0-.63-.23-.92-.68a5,5,0,0,1-.79-1.55,1.13,1.13,0,0,1,.08-.36,6.56,6.56,0,0,1,1.47-2.53,19,19,0,0,1,2.15-1.37c1-.57,2.56-1.54,4.58-2.88A9.46,9.46,0,0,1,118.54,29a7.91,7.91,0,0,1,2.71-.6,2.85,2.85,0,0,1,.73.07,1,1,0,0,1,.66.54,10.06,10.06,0,0,1,.12,1c0,.56.07,1,.07,1.27a4.2,4.2,0,0,1-.14,1.15c-.16.65-.3,1-.41,1s-.16-.2-.16-.61a2.3,2.3,0,0,1,.11-.65,2.42,2.42,0,0,0-.15-1.82.79.79,0,0,0-.72-.52h-.09a3,3,0,0,0-1.71.32,37.44,37.44,0,0,0-3.62,2.6c-.53.36-1.3,1-2.32,1.76a.72.72,0,0,0-.24.55c0,.4.11.61.33.61a4.08,4.08,0,0,0,1.34-.38,5.43,5.43,0,0,0,1.3-.7,6,6,0,0,1,1.58-.94,9.22,9.22,0,0,0,1.47-1,3.58,3.58,0,0,1,1.38-.76c.19,0,.28.12.28.36a5.81,5.81,0,0,1-.85,1.73q-.94,1.92-3,5.52-.3.51-.93,1.44c-.14.29-.37.73-.68,1.3a3.36,3.36,0,0,0-.65,1.48c0,.07,0,.11.08.11s.42-.22.87-.65q.44-.47.87-.9c.4-.29,1-.77,1.72-1.44a13.1,13.1,0,0,1,2.2-2,16,16,0,0,1,1.45-1.16,12.31,12.31,0,0,0,1.33-1c.36-.22.9-.55,1.61-1a9.49,9.49,0,0,1,2.12-1.19C127.34,34.56,127.4,34.63,127.4,34.78ZM109.35,51.29c0-.07,0-.1-.06-.1s-.4.33-.92,1a10,10,0,0,1-1.06,1.29,3,3,0,0,0-.63.84,3.88,3.88,0,0,1-.65.89,2.25,2.25,0,0,0-.52.68,3.07,3.07,0,0,1-.46.67c-.2.29-.52.72-1,1.3a2.24,2.24,0,0,0-.65,1.51c0,.29,0,.43.16.43s.21-.19.45-.57a3.35,3.35,0,0,1,.48-.65,4.19,4.19,0,0,0,.6-.81,6.75,6.75,0,0,1,.54-.82,5.61,5.61,0,0,0,1.17-1.73,9.36,9.36,0,0,0,1.09-1.51c.4-.53.83-1.15,1.28-1.88A2.09,2.09,0,0,0,109.35,51.29Z"/><path class="cls-2" d="M148.77,34.71c0,.21-.16.43-.49.65-.69.48-1.37.93-2.05,1.33s-1.69.92-3,1.58c-.2.14-.51.33-.95.58a5.25,5.25,0,0,1-2.32.65,2.93,2.93,0,0,1-1.3-.22q-.6-.28-.6-1.56a2.12,2.12,0,0,1,.43-1.3,6.72,6.72,0,0,0,.71-1.05,6.89,6.89,0,0,1,.71-1.06,2.75,2.75,0,0,0,.55-.9q0-.15-.09-.15a16.19,16.19,0,0,0-1.47.83,10.91,10.91,0,0,1-1.74.94c-.43.26-1.12.63-2,1.08a10.37,10.37,0,0,0-1.28.58l-1.69,1c-.54.36-1.09.73-1.63,1.12a3.44,3.44,0,0,1-1.77.68c-.58,0-.87-.46-.87-1.37a2.19,2.19,0,0,1,.51-1.26,10.93,10.93,0,0,0,.77-1.08,7.41,7.41,0,0,1,.51-.94c.18-.22.48-.59.87-1.12a5.46,5.46,0,0,0,.71-1.15l-.05-.07a1.06,1.06,0,0,0-.6.25,3.06,3.06,0,0,1-.57.36,3.47,3.47,0,0,0-.85.61,6.15,6.15,0,0,0-1.11.72,12.85,12.85,0,0,1-1.2.9,3.68,3.68,0,0,1-1.2.65c-.22,0-.33-.08-.33-.25s.26-.36.77-.72l1-.65q.65-.54,2-1.59a7.39,7.39,0,0,1,1.2-1,1.24,1.24,0,0,0,.52-.4c.21-.24.36-.36.43-.36s.22-.1.42-.31a.88.88,0,0,1,.53-.3c1.35,0,2,.48,2,1.44a2.53,2.53,0,0,1-.82,1.59,10.22,10.22,0,0,0-1.17,1.44,8.94,8.94,0,0,1-.84,1.44c-.37.34-.55.62-.55.83s.06.18.17.18a1.73,1.73,0,0,0,.54-.27,4.38,4.38,0,0,1,.55-.31,5.88,5.88,0,0,0,1.37-.75,5.92,5.92,0,0,1,1.61-.81,5.65,5.65,0,0,0,1.62-.87,9.2,9.2,0,0,1,1.58-1,2.54,2.54,0,0,0,.85-.54,3.84,3.84,0,0,1,.86-.58,4.59,4.59,0,0,0,.87-.54,1.9,1.9,0,0,1,.93-.36,2.44,2.44,0,0,1,1.05.38c.44.25.66.54.66.85a2.24,2.24,0,0,1-.43,1,4,4,0,0,1-.75.94,2.23,2.23,0,0,0-.56.72,8.34,8.34,0,0,1-.49.79,7.38,7.38,0,0,0-.87,1.16c-.18.52-.27.8-.27.82,0,.27.2.4.6.4a4.77,4.77,0,0,0,1.82-.5c1-.51,1.61-.78,1.77-.83l1.34-.76c.07,0,.59-.32,1.57-.9a5.61,5.61,0,0,1,1.42-.72C148.72,34.6,148.77,34.63,148.77,34.71Z"/><path class="cls-2" d="M165.38,34.74c0,.15-.37.46-1.11.94s-1.55.92-2.78,1.62c-.51.29-1.28.66-2.32,1.12l-1.44.61a3.62,3.62,0,0,1-1.47.4c-.29,0-.72-.3-1.28-.9a1,1,0,0,1-.35-.69,1.41,1.41,0,0,1,0-.18v-.18c0-.19-.06-.29-.19-.29a.38.38,0,0,0-.16.08,6.62,6.62,0,0,0-1.42.57,2.29,2.29,0,0,1-1,.47,6.91,6.91,0,0,0-1.09.33,5,5,0,0,1-2,.54,2.83,2.83,0,0,1-.87-.47c-.18-.12-.37-.23-.57-.34a1.06,1.06,0,0,1-.47-.56,2.93,2.93,0,0,1-.19-.86,1.87,1.87,0,0,1,.6-1.19,14.23,14.23,0,0,1,1.12-1.32c.45-.43,1.16-1.06,2.12-1.87L152,31.35a5.46,5.46,0,0,1,1.63-1,10.07,10.07,0,0,1,2-.9,11.5,11.5,0,0,1,2.26-.18,1.32,1.32,0,0,1,.95.25,1.44,1.44,0,0,1,.36,1.15,2.47,2.47,0,0,1-.26,1.1,3.29,3.29,0,0,0-.26.6,1.29,1.29,0,0,1,.22.57,1.39,1.39,0,0,1-.3.91,19.27,19.27,0,0,1-1.39,1.73,2.18,2.18,0,0,0-.37.3,2.47,2.47,0,0,0-.18.42,5.66,5.66,0,0,1-.24.76,1.12,1.12,0,0,0,.24.7.76.76,0,0,0,.58.31,3.24,3.24,0,0,0,1.11-.19l1.07-.36c.1,0,.75-.36,1.93-1,.49-.24,1.21-.62,2.18-1.15a5.46,5.46,0,0,1,1.66-.87C165.3,34.52,165.38,34.6,165.38,34.74Zm-7-3.57c0-.55-.19-.83-.57-.83a4.67,4.67,0,0,1-.51-.05,3.55,3.55,0,0,0-.52-.06,1.81,1.81,0,0,0-.93.47,8.07,8.07,0,0,1-.92.69,4.06,4.06,0,0,0-1,.81,5.39,5.39,0,0,1-1,.83,12.25,12.25,0,0,0-1.72,1.57,2.27,2.27,0,0,0-.4.68c-.15.34-.26.57-.34.71a.61.61,0,0,0-.13.27c0,.36.23.54.68.54a1.52,1.52,0,0,0,.85-.26l2.18-1.19a7.73,7.73,0,0,0,2-1.62,5.53,5.53,0,0,1,1.14-1,2.16,2.16,0,0,0,.79-.63A1.39,1.39,0,0,0,158.38,31.17Z"/><path class="cls-2" d="M193.1,26.16c0,.21-.27.32-.82.32h-1a14.64,14.64,0,0,0-1.52.13,14.57,14.57,0,0,1-1.53.13H186a11.28,11.28,0,0,0-1.29.1,9.75,9.75,0,0,1-1.27.11,4,4,0,0,1-.84-.11,4.75,4.75,0,0,0-.82-.1,11,11,0,0,0-1.28.1,9.48,9.48,0,0,1-1.28.11,4.41,4.41,0,0,1-.87-.11,5.09,5.09,0,0,0-.87-.1,1.63,1.63,0,0,0-.48.1,1.43,1.43,0,0,1-.47.11h-.39a1.59,1.59,0,0,0-1,.61l-.94,1A20.5,20.5,0,0,1,172.65,30a3.81,3.81,0,0,0-.92,1c-.44.7-.69,1.09-.77,1.19-.47.55-1.12,1.43-2,2.65a5.68,5.68,0,0,1-1.06,1.49,2.11,2.11,0,0,0-.52,1.59c0,.65.48,1,1.42,1a10.38,10.38,0,0,0,3.73-.86c.65-.22,1.62-.61,2.91-1.16a18.41,18.41,0,0,0,1.88-1c.17-.12.62-.4,1.36-.83a6.65,6.65,0,0,1,1.26-.65c.16,0,.24.09.24.26s-.53.61-1.58,1.26l-2,1.12c-.49.24-1.22.61-2.18,1.11a7.19,7.19,0,0,1-1.36.56,9.3,9.3,0,0,0-1.39.56,2.53,2.53,0,0,1-1.13.36,2.56,2.56,0,0,0-1,.29,2.58,2.58,0,0,1-1.41.25h0a5.42,5.42,0,0,1-1.65-.18l-.95-.34a1.25,1.25,0,0,1-.67-.92,2.42,2.42,0,0,1-.13-.79,4,4,0,0,1,.6-1.88,6.66,6.66,0,0,0,.59-1.22c0-.1,0-.15-.08-.15a8,8,0,0,0-1.37.79,5,5,0,0,1-1.54.8c-.22,0-.33-.07-.33-.22s.42-.52,1.25-.9l1.12-.62a18.86,18.86,0,0,1,1.55-1.08L168,32.27a12.2,12.2,0,0,0,1.77-2L171.43,28a1.5,1.5,0,0,0,.35-.87c0-.55-.43-.83-1.28-.83a7.46,7.46,0,0,0-1.09.12,6.52,6.52,0,0,1-1.09.13,4.72,4.72,0,0,1-.53-.05,3.26,3.26,0,0,0-.53-.06,4.86,4.86,0,0,0-.64.06c-.28,0-.49.05-.64.05a.44.44,0,0,1-.24-.11h-.25a3.28,3.28,0,0,0-.71.13,3.21,3.21,0,0,1-.7.13,8.88,8.88,0,0,1-1.56-.17c-.81-.13-1.22-.29-1.22-.48s.18-.36.54-.36a1.74,1.74,0,0,1,.49.1,1.56,1.56,0,0,0,.52.11,5,5,0,0,0,.52-.05,3.45,3.45,0,0,1,.51-.06h.33a.87.87,0,0,0,.35.11,7.69,7.69,0,0,0,1.35-.18,7.81,7.81,0,0,1,1.35-.18c.22,0,.54,0,1,.07a9.29,9.29,0,0,0,1,.08h.06a5.48,5.48,0,0,0,1.06-.08c.44,0,.61-.07.52-.07a2.54,2.54,0,0,1,.42.07,1.94,1.94,0,0,0,.45.08,2.5,2.5,0,0,0,2-.74,9.64,9.64,0,0,1,1.31-1.58,14.29,14.29,0,0,0,1.66-1,.61.61,0,0,1,.43-.18,2,2,0,0,1,.94.32.94.94,0,0,1,.56.8,1.67,1.67,0,0,1-.54.95c-.37.4-.55.68-.55.85s.15.35.44.49a1.79,1.79,0,0,0,.71.19c.27,0,.66,0,1.18.06s.91.05,1.18.05a7.32,7.32,0,0,0,1.13-.11,8.75,8.75,0,0,1,1.13-.1,4.54,4.54,0,0,1,.82.1,4.08,4.08,0,0,0,.85.11c.38,0,1,0,1.75-.11s1.39-.1,1.79-.1a3.38,3.38,0,0,1,.7.1,3,3,0,0,0,.71.11h.6a4.1,4.1,0,0,0,1.17-.13,3.51,3.51,0,0,1,.68-.23C192.86,25.58,193.1,25.77,193.1,26.16Z"/><path class="cls-2" d="M200.34,35.18c0,.21-.23.47-.7.78s-1.17.72-2.14,1.25a13.24,13.24,0,0,0-1.88,1,6.59,6.59,0,0,1-1.94.84,2,2,0,0,0-.68.29,1.59,1.59,0,0,1-.77.26h-1.17c-.82,0-1.23-.45-1.23-1.34a3.4,3.4,0,0,1,.19-.94,3.26,3.26,0,0,0,.19-.9c0-.26-.13-.39-.41-.39a1.7,1.7,0,0,0-.81.28c-.49.32-.75.49-.76.51-.42.22-1.06.52-1.91.9a8,8,0,0,0-1.77.76,2.93,2.93,0,0,1-1.44.54,4,4,0,0,0-1.37.29.29.29,0,0,1-.19.07c-.87,0-1.3-.72-1.3-2.16a2.81,2.81,0,0,1,.58-1.65,2.5,2.5,0,0,0,.59-1.24,1,1,0,0,0-.06-.32h-.05a10.69,10.69,0,0,0-1.44.95,5.45,5.45,0,0,1-1.61,1c-.16,0-.25-.1-.25-.29s.19-.34.55-.58l.76-.43a19.35,19.35,0,0,0,2-1.62c1.23-1.16,2.18-1.73,2.86-1.73h.05c.71,0,1.06.25,1.06.75a3.25,3.25,0,0,1-.52,1.84,15.29,15.29,0,0,1-1,1.59,2.22,2.22,0,0,0-.57,1.51q0,.69.63.69a2.86,2.86,0,0,0,1-.25l1-.47a12,12,0,0,0,1.94-.83,23.68,23.68,0,0,0,2.83-1.91c.4-.44,1-1.09,1.82-2a2,2,0,0,1,1.42-.47A1.29,1.29,0,0,1,194.92,33c0,.34-.4.75-1.19,1.23a1.56,1.56,0,0,0-.58.72c-.27.57-.41.88-.43.9a3.56,3.56,0,0,0-.71,1.8q0,.69.6.69l.62-.15a16.25,16.25,0,0,0,5.8-2.59,3.92,3.92,0,0,1,1.09-.65A.19.19,0,0,1,200.34,35.18Z"/><path class="cls-2" d="M214.77,34.78c0,.21-.33.51-1,.9-.38.19-.94.53-1.69,1-.43.22-1.08.59-1.93,1.12a7.13,7.13,0,0,1-1.44.93,14.86,14.86,0,0,0-1.66,1,4.89,4.89,0,0,1-1.72.76,6.24,6.24,0,0,0-1.22.25,1.28,1.28,0,0,1-.55.11,1.57,1.57,0,0,1-1-.4,1.38,1.38,0,0,1-.55-1.15,2.18,2.18,0,0,1,.66-1.48c.59-.68.93-1.06,1-1.16a2.7,2.7,0,0,1,.56-.7c.23-.2.45-.42.67-.63s.42-.55.77-1a2.17,2.17,0,0,0,.54-.89,1.19,1.19,0,0,1,0-.25v-.25a.74.74,0,0,0-.42-.65A1.51,1.51,0,0,0,205,32a1.3,1.3,0,0,0-.79.43,23.7,23.7,0,0,1-2.17,1.69,4.59,4.59,0,0,0-.87.65,11.61,11.61,0,0,1-1,.72,3.09,3.09,0,0,1-1,.47c-.16,0-.24-.08-.24-.25s.22-.32.65-.61.58-.4.86-.62.71-.56,1.29-1c.22-.29.57-.69,1-1.19a2.43,2.43,0,0,0,.84-1.88,4.13,4.13,0,0,0-.05-.5,3.07,3.07,0,0,1-.06-.51c0-.72.27-1.14.82-1.26a4.43,4.43,0,0,0,.71-.25,1.93,1.93,0,0,1,.71-.18c.43,0,.65.34.65,1a1.28,1.28,0,0,1-.42,1,1.18,1.18,0,0,0-.43.74.5.5,0,0,0,.11.36,2.86,2.86,0,0,0,1,.51A1.59,1.59,0,0,1,207.75,33a3.77,3.77,0,0,1-.63,2c-.18.26-.58.78-1.2,1.55a3,3,0,0,0-.51.74,7.51,7.51,0,0,1-.88,1.21.8.8,0,0,0-.19.28q0,.33.63.33A6.66,6.66,0,0,0,208.45,38l1-.47c.55-.39,1.36-.89,2.45-1.52a7.87,7.87,0,0,0,1.12-.57,8,8,0,0,1,1.52-.87A.19.19,0,0,1,214.77,34.78Z"/><path class="cls-2" d="M225.93,34.74a.58.58,0,0,1-.19.32,4.91,4.91,0,0,1-1.33.93c-.69.39-1.15.66-1.39.83a13.14,13.14,0,0,1-3,1.57,10.68,10.68,0,0,1-1.15.58,4.92,4.92,0,0,0-.9.39,2.06,2.06,0,0,1-.89.29h-.28a1.44,1.44,0,0,0-.43.1,1.3,1.3,0,0,1-.44.11,2.08,2.08,0,0,1-.87-.25l-.84-.36a2.85,2.85,0,0,1-1.09-.36c-.89-.82-1.34-1.47-1.34-2a3.09,3.09,0,0,1,.52-1.26,2.73,2.73,0,0,0,.22-.65,1.44,1.44,0,0,1,.38-.72c.27-.39.72-1,1.33-1.7a9.65,9.65,0,0,1,1.47-1.51,8.54,8.54,0,0,1,1.79-.9,5.47,5.47,0,0,1,1.84-.51h.92a.67.67,0,0,1,.76.76,2.93,2.93,0,0,1-.6,1.54c-.16.1-.39.25-.68.47a4.64,4.64,0,0,1-1.08.72c-.3.21-.74.5-1.34.86a5.78,5.78,0,0,0-1.82,1.18,2.39,2.39,0,0,0-.47,1.69,1.54,1.54,0,0,0,.48,1.22,1.57,1.57,0,0,0,1.1.43,5.53,5.53,0,0,0,1.23-.14c.38-.12.76-.23,1.14-.32a5.61,5.61,0,0,0,1.55-.69c.42-.19,1-.5,1.8-.94a13.84,13.84,0,0,1,3.43-1.91C225.88,34.56,225.93,34.62,225.93,34.74Zm-6.88-2.67c0-.19-.11-.29-.33-.29a1.79,1.79,0,0,0-.74.44,6.2,6.2,0,0,1-.92.57,2.07,2.07,0,0,0-.85.8,2.37,2.37,0,0,0-.38.54l0,0,1.66-.93a4.66,4.66,0,0,0,1-.8l.52-.32Z"/><path class="cls-2" d="M154.34,44a.84.84,0,0,1,.45-.1c1.4,0,2.79-.07,4.18-.1,1.79-.05,3.57.11,5.35,0,2.14-.1,4.27-.11,6.41-.1.85,0,1.69-.11,2.54-.13,1.7,0,3.4.3,5.09.2.59,0,1.17.1,1.76.11.74,0,1.48-.08,2.22-.07.95,0,1.91,0,2.87,0a23.84,23.84,0,0,0,2.93-.09c1.29-.12,2.57-.08,3.86-.08,1.77,0,3.53.25,5.3.16.49,0,1-.42,1.5-.37,1.87.16,3.74.06,5.62.07,1.7,0,3.39,0,5.08-.15.58,0,1.13.05,1.7.06,2.18,0,4.36.16,6.54.1,1.4,0,2.79.11,4.18.1.61,0,1.22,0,1.83,0a1.7,1.7,0,0,1,.39,0c.21,0,.35.13.38.28s-.08.24-.24.31a1.43,1.43,0,0,1-.37.09c-.6,0-1.2.08-1.82.07-1.91,0-3.82-.19-5.75-.08-.69,0-1.39-.05-2.09-.05-1.61,0-3.22-.09-4.82-.25a9.85,9.85,0,0,0-1.63,0,25.09,25.09,0,0,1-2.6-.08,15,15,0,0,0-3.07.06,8.17,8.17,0,0,1-1.49.1c-2.2,0-4.4.29-6.6.32-1.73,0-3.44-.1-5.15-.24a14.33,14.33,0,0,0-3.07,0,5.09,5.09,0,0,1-.78,0,38.89,38.89,0,0,0-4,0s-.09,0-.12,0a6,6,0,0,1-2.68.31c-1.84-.08-3.66-.49-5.49-.41-1.57.06-3.13.15-4.71.07a22.59,22.59,0,0,0-2.6.09,10.16,10.16,0,0,1-1.83,0l-.39,0c-2.46,0-4.92-.14-7.39-.09A4.84,4.84,0,0,1,154.34,44Z"/><path class="cls-2" d="M122.64,44.21c-1.15,0-2.28.08-3.42.14h-.35a.13.13,0,0,1-.15-.08c0-.05,0-.09.11-.1a4,4,0,0,1,.48-.07c1.73-.14,3.46-.26,5.19-.24,2,0,3.93-.23,5.9-.18.93,0,1.85,0,2.78,0,.46,0,.94,0,1.42-.05l2.86,0c.88,0,1.75-.07,2.62-.14a6.11,6.11,0,0,1,1.91.08,3.18,3.18,0,0,0,.62.07,35.75,35.75,0,0,0,4.14-.07,3.42,3.42,0,0,1,.64,0c1.47.11,2.94.14,4.41.16,1.21,0,2.42,0,3.63,0,1,0,2-.08,3-.14a12.68,12.68,0,0,1,1.49.2c.25,0,.5.06.51.25s-.29.28-.56.27c-.52,0-1-.22-1.56-.19-2.14.08-4.28.16-6.42.09-1,0-1.94-.11-2.92-.08-.12,0-.24,0-.35,0-2-.16-3.89.14-5.84,0-2.21-.11-4.41.09-6.62.13-2.42,0-4.84.17-7.26.12-.86,0-1.71,0-2.57,0a3.38,3.38,0,0,1-.71,0A21,21,0,0,0,122.64,44.21Z"/><path class="cls-2" d="M109,44.22a24.65,24.65,0,0,0,2.72-.13l.28,0a.1.1,0,0,1,.11.08c0,.06,0,.09-.08.11l-.39.07a35.31,35.31,0,0,1-4.12.23c-1.57,0-3.12.24-4.68.18-.74,0-1.47.06-2.21,0a8.62,8.62,0,0,0-1.13,0c-.75,0-1.51,0-2.26,0a20.55,20.55,0,0,0-2.09.15,4,4,0,0,1-1.51-.08,2.09,2.09,0,0,0-.5-.08,25.62,25.62,0,0,0-3.28.07,2.2,2.2,0,0,1-.51,0c-1.18-.11-2.34-.14-3.51-.16-1,0-1.92,0-2.88,0-.79,0-1.58.09-2.37.15a8.21,8.21,0,0,1-1.19-.2c-.2,0-.4-.06-.4-.26s.23-.27.44-.26c.42,0,.83.21,1.24.19,1.7-.09,3.4-.16,5.1-.09.78,0,1.54.1,2.32.08a2.66,2.66,0,0,1,.28,0c1.55.16,3.09-.14,4.64,0,1.75.12,3.5-.09,5.25-.12,1.92,0,3.84-.17,5.77-.12a19.83,19.83,0,0,0,2,0,2.11,2.11,0,0,1,.56,0A13.37,13.37,0,0,0,109,44.22Z"/></g></svg>