<svg width="81" height="35" viewBox="0 0 81 35" fill="none" xmlns="http://www.w3.org/2000/svg">
<g clip-path="url(#clip0_635_5592)">
<path d="M54.4989 32.0361H54.9804L55.7611 34.9438H55.3871L55.1814 34.1445H54.2511L54.0361 34.9438H53.6621L54.4989 32.0361ZM54.3259 33.8499H55.1066L54.7373 32.4475H54.728L54.3259 33.8499Z" fill="white"/>
<path d="M56.542 34.9533V32.0176H57.4022C57.6639 32.0176 57.8556 32.069 57.9865 32.1672C58.1174 32.2653 58.1828 32.4149 58.1828 32.6159V32.845C58.1828 32.9853 58.1548 33.1021 58.1034 33.1909C58.0519 33.2798 57.9631 33.3499 57.8416 33.4013C57.9818 33.4481 58.0847 33.5135 58.1501 33.6023C58.2156 33.6911 58.2436 33.808 58.2436 33.9529V34.21C58.2436 34.4625 58.1735 34.6495 58.0332 34.771C57.893 34.8926 57.678 34.9533 57.3835 34.9533H56.542ZM57.1965 33.1909C57.332 33.1863 57.4209 33.1629 57.4723 33.1255C57.5237 33.0881 57.5471 33.0227 57.5471 32.9245V32.7422C57.5471 32.658 57.5237 32.5973 57.4723 32.5645C57.4209 32.5318 57.332 32.5131 57.2011 32.5131V33.1863L57.1965 33.1909ZM57.1965 34.4625C57.3507 34.4625 57.4536 34.4344 57.5003 34.397C57.5471 34.3596 57.5751 34.2755 57.5751 34.1586V33.9623C57.5751 33.8501 57.5471 33.7659 57.491 33.7239C57.4349 33.6771 57.3367 33.6537 57.1918 33.6537V34.4625H57.1965Z" fill="white"/>
<path d="M58.5146 34.9533V32.0176H59.1785V34.9533H58.5146Z" fill="white"/>
<path d="M60.6233 34.9534V34.7243C60.5531 34.8132 60.4737 34.8786 60.3849 34.9254C60.296 34.9721 60.1932 34.9955 60.0857 34.9955C59.8893 34.9955 59.7397 34.9207 59.6369 34.7664C59.5341 34.6122 59.4873 34.3878 59.4873 34.0886V32.8825C59.4873 32.5833 59.5621 32.3542 59.707 32.2046C59.8519 32.0551 60.0716 31.9756 60.3615 31.9756C60.6513 31.9756 60.871 32.0504 61.016 32.2C61.1609 32.3496 61.2357 32.5786 61.2357 32.8778V33.0181H60.5625V32.7703C60.5625 32.6768 60.5438 32.6067 60.5111 32.5599C60.4784 32.5132 60.4269 32.4945 60.3568 32.4945C60.2867 32.4945 60.2353 32.5179 60.2025 32.5599C60.1698 32.602 60.1558 32.6721 60.1558 32.7703V34.1914C60.1558 34.2849 60.1698 34.355 60.2025 34.3971C60.2353 34.4392 60.2867 34.4626 60.3568 34.4626C60.4269 34.4626 60.4784 34.4392 60.5111 34.3971C60.5438 34.355 60.5578 34.2849 60.5578 34.1914V33.8642H60.3288V33.3266H61.2263V34.9487H60.6139L60.6233 34.9534Z" fill="white"/>
<path d="M61.5156 34.0278V33.4668H62.4693V34.0278H61.5156Z" fill="white"/>
<path d="M62.7598 32.0176H63.5825C63.9378 32.0176 64.1762 32.0737 64.2978 32.1905C64.4193 32.3074 64.4848 32.5131 64.4848 32.8123V34.1633C64.4848 34.3222 64.4661 34.4531 64.4287 34.5466C64.3913 34.6401 64.3305 34.7243 64.2417 34.7944C64.1715 34.8505 64.0827 34.8926 63.9799 34.9159C63.877 34.9393 63.7041 34.9533 63.461 34.9533H62.7598V32.0176ZM63.5077 32.5225H63.4236V34.4531H63.5077C63.6386 34.4531 63.7181 34.4344 63.7555 34.397C63.7929 34.3596 63.8116 34.2848 63.8116 34.1773V32.7936C63.8116 32.6861 63.7929 32.6113 63.7555 32.5739C63.7181 32.5365 63.634 32.5178 63.5077 32.5178V32.5225Z" fill="white"/>
<path d="M67.0743 33.9439C67.0416 34.4955 66.8266 35.0004 66.1908 35.0004C65.3634 35.0004 65.2559 34.2244 65.2559 33.4904C65.2559 32.7565 65.3914 31.9805 66.1908 31.9805C66.7845 31.9805 67.0323 32.3124 67.051 32.8827H66.677C66.6676 32.5508 66.5648 32.2703 66.1908 32.2703C65.6953 32.2703 65.6298 32.8172 65.6298 33.4857C65.6298 34.1542 65.6953 34.7012 66.1908 34.7012C66.6256 34.7012 66.6863 34.2945 66.7004 33.9392H67.0743V33.9439Z" fill="white"/>
<path d="M69.2381 33.4904C69.2381 34.2244 69.1025 35.0004 68.3031 35.0004C67.5037 35.0004 67.3682 34.2244 67.3682 33.4904C67.3682 32.7565 67.5037 31.9805 68.3031 31.9805C69.1025 31.9805 69.2381 32.7565 69.2381 33.4904ZM67.7421 33.4904C67.7421 34.1636 67.8076 34.7059 68.3031 34.7059C68.7986 34.7059 68.8641 34.1589 68.8641 33.4904C68.8641 32.8219 68.7986 32.275 68.3031 32.275C67.8076 32.275 67.7421 32.8219 67.7421 33.4904Z" fill="white"/>
<path d="M69.6824 32.0361H70.2855L70.8698 34.3408H70.8791L71.4635 32.0361H72.0665V34.9438H71.7066V32.4054H71.6972L71.0521 34.9438H70.6922L70.047 32.4054H70.0377V34.9438H69.6777V32.0361H69.6824Z" fill="white"/>
<path d="M72.5389 32.0361H73.2775C73.5299 32.0361 74.175 32.0361 74.175 32.8729C74.175 33.4152 73.8291 33.7144 73.3382 33.7144H72.8941V34.9438H72.5342V32.0361H72.5389ZM72.8988 33.4199H73.3242C73.586 33.4199 73.8057 33.2422 73.8057 32.8542C73.8057 32.5363 73.6561 32.3306 73.3008 32.3306H72.8988V33.4199Z" fill="white"/>
<path d="M74.9178 32.0361H75.3993L76.18 34.9438H75.806L75.6004 34.1445H74.6701L74.455 34.9438H74.0811L74.9178 32.0361ZM74.7449 33.8499H75.5256L75.1563 32.4475H75.1469L74.7449 33.8499Z" fill="white"/>
<path d="M76.3857 32.0361H76.8485L77.8115 34.4623H77.8209V32.0361H78.1809V34.9438H77.69L76.7597 32.5924H76.7504V34.9438H76.3904V32.0361H76.3857Z" fill="white"/>
<path d="M78.406 32.0361H78.8034L79.355 33.3965L79.93 32.0361H80.304L79.5327 33.8032V34.9438H79.1727V33.8032L78.4014 32.0361H78.406Z" fill="white"/>
<path d="M15.165 0L0 28.9134H80.0601V8.00321H19.5499L15.165 0Z" fill="#333333"/>
<path d="M29.9234 19.461L30.8771 10.5742H32.4758L33.8128 14.5244L35.1685 10.5742H36.7252L37.8097 19.461H35.7856L35.3602 15.3799L33.8923 19.4984L32.3029 15.3799L31.9382 19.461H29.9141H29.9234Z" fill="white"/>
<path d="M42.1149 19.4095C41.9513 19.4563 41.783 19.4937 41.61 19.5171C41.4417 19.5404 41.2687 19.5545 41.1004 19.5545C40.3385 19.5732 39.6092 19.2272 39.1417 18.6242C38.6135 17.9276 38.347 17.0675 38.3891 16.198C38.3517 15.3518 38.6322 14.5244 39.1838 13.8793C39.8242 13.1968 40.7639 12.8742 41.6895 13.0238C41.8344 13.0472 41.9793 13.0892 42.1195 13.1407V15.2256C41.9466 15.1742 41.8017 15.1321 41.6801 15.1087C41.5726 15.0854 41.4651 15.076 41.3576 15.0713C41.049 15.0526 40.7452 15.1648 40.5208 15.3799C40.1187 15.8894 40.1234 16.6093 40.5348 17.1095C40.7545 17.3339 41.0537 17.4508 41.3669 17.4368C41.4744 17.4368 41.5866 17.4274 41.6941 17.4134C41.811 17.3994 41.9559 17.376 42.1195 17.3386V19.4002L42.1149 19.4095Z" fill="white"/>
<path d="M42.5359 19.461L45.1818 10.5742H47.3977L49.9034 19.461H47.8231L47.5473 18.4699H44.864L44.5741 19.461H42.5312H42.5359ZM45.4203 16.2447H46.977L46.1963 13.2435L45.4203 16.2447Z" fill="white"/>
<path d="M55.3587 17.0207L54.7416 19.4656H50.5811V10.5742H52.5351V17.0207H55.354H55.3587Z" fill="white"/>
<path d="M56.817 19.461L54.7227 10.5742H56.8076L58.0604 16.6748L59.173 10.5742H61.1364L59.2151 19.461H56.817Z" fill="white"/>
<path d="M60.824 19.461L63.4699 10.5742H65.6858L68.1914 19.461H66.1112L65.8354 18.4699H63.152L62.8622 19.461H60.8193H60.824ZM63.7037 16.2447H65.2604L64.4797 13.2435L63.7037 16.2447Z" fill="white"/>
<path d="M70.8886 19.461H68.9346V10.5742H70.8886V19.461Z" fill="white"/>
<path d="M72.2764 19.461V10.5742H73.1365L75.9601 14.4636V10.5742H77.9141V19.461H77.0213L74.2304 15.6043V19.461H72.2764Z" fill="white"/>
<path d="M15.2213 1.61768L1.38867 28.0301H29.3111L15.2213 1.61768Z" fill="white"/>
<path d="M15.1746 3.12744L2.46387 27.3007H28.1424L15.1746 3.12744Z" fill="#333333"/>
<path d="M15.2211 5.02051L3.97363 26.3936H26.6369L15.2211 5.02051Z" fill="white"/>
<path d="M23.2337 25.3188L22.9064 24.5241C23.0093 24.3277 23.0887 24.1174 23.1308 23.8976H22.6493L22.2613 22.9533H23.1355C22.9578 22.0838 22.3221 21.4387 21.5367 21.1816L17.2032 10.626L15.2211 16.0113L13.2811 10.626L7.5498 25.3609H10.8221L12.8884 19.5408L15.2585 25.3609L17.2827 19.4145L18.6664 22.4438C18.4654 22.8832 18.3906 23.3881 18.4934 23.8976C18.7552 25.1785 20.0034 26.006 21.2843 25.7442C21.6255 25.6741 21.9387 25.5291 22.2099 25.3328L23.229 25.3188H23.2337Z" fill="#333333"/>
<path d="M21.7373 24.0706C21.3774 24.5754 20.6762 24.697 20.1713 24.337C19.6664 23.9771 19.5449 23.2758 19.9048 22.771C20.2648 22.2661 20.966 22.1446 21.4709 22.5045C21.5784 22.5793 21.6719 22.6728 21.7467 22.785H22.9247C22.5694 21.635 21.3447 20.9899 20.1947 21.3452C19.0447 21.7004 18.3996 22.9252 18.7548 24.0752C19.1101 25.2252 20.3349 25.8703 21.4849 25.5151C22.1721 25.3 22.7144 24.7624 22.9247 24.0752H21.7373V24.0706Z" fill="white"/>
<path d="M32.9433 26.2022C32.8498 26.2303 32.7516 26.249 32.6534 26.263C32.5506 26.277 32.4384 26.2817 32.3168 26.2817C31.5736 26.2817 30.9752 26.062 30.5124 25.6225C30.0543 25.1831 29.8252 24.6081 29.8252 23.9022C29.8252 23.1963 30.0636 22.6073 30.5404 22.1445C31.0173 21.6817 31.625 21.4526 32.3589 21.4526C32.4431 21.4526 32.5366 21.4573 32.6301 21.4667C32.7236 21.476 32.8217 21.4947 32.9246 21.5181L32.99 22.9018C32.8778 22.8551 32.7703 22.8177 32.6581 22.7943C32.5506 22.7709 32.4431 22.7569 32.3449 22.7569C31.9756 22.7569 31.6764 22.8597 31.4427 23.0654C31.2089 23.2711 31.0921 23.5329 31.0921 23.8555C31.0921 24.178 31.2089 24.4398 31.438 24.6502C31.6671 24.8652 31.9569 24.9727 32.3028 24.9727C32.429 24.9727 32.5506 24.9587 32.6721 24.926C32.7937 24.8933 32.9152 24.8465 33.0368 24.7857L32.9433 26.2022Z" fill="white"/>
<path d="M35.8646 21.4012C36.1638 21.4012 36.4443 21.4526 36.7154 21.5508C36.9819 21.6489 37.2203 21.7938 37.4213 21.9808C37.6924 22.2239 37.8981 22.5091 38.043 22.8316C38.188 23.1542 38.2581 23.4955 38.2581 23.8554C38.2581 24.2154 38.188 24.5566 38.043 24.8839C37.8981 25.2111 37.6924 25.4963 37.4213 25.7393C37.2156 25.9263 36.9772 26.0713 36.7107 26.1694C36.4443 26.2676 36.1638 26.319 35.8646 26.319C35.5654 26.319 35.2896 26.2676 35.0231 26.1694C34.7567 26.0713 34.5229 25.9263 34.3126 25.7393C34.0461 25.4963 33.8404 25.2111 33.6955 24.8885C33.5506 24.5613 33.4805 24.22 33.4805 23.8601C33.4805 23.5001 33.5506 23.1542 33.6955 22.8316C33.8404 22.5091 34.0414 22.2239 34.3126 21.9808C34.5229 21.7938 34.7567 21.6489 35.0231 21.5461C35.2896 21.4479 35.5701 21.3965 35.8646 21.3965V21.4012ZM35.8739 22.7007C35.5561 22.7007 35.2896 22.8129 35.0746 23.0327C34.8595 23.257 34.752 23.5282 34.752 23.8554C34.752 24.1826 34.8595 24.4585 35.0746 24.6782C35.2896 24.8979 35.5561 25.0101 35.8739 25.0101C36.1918 25.0101 36.4583 24.8979 36.6733 24.6782C36.8884 24.4538 36.9959 24.1826 36.9959 23.8554C36.9959 23.5282 36.8884 23.257 36.6733 23.0327C36.4583 22.8083 36.1918 22.6961 35.8739 22.6961V22.7007Z" fill="white"/>
<path d="M38.6045 26.2023L39.1982 21.5322H40.1939L41.026 23.6078L41.8675 21.5322H42.8352L43.5083 26.2023H42.2508L41.989 24.0566L41.0774 26.221L40.0911 24.0566L39.8667 26.2023H38.6092H38.6045Z" fill="white"/>
<path d="M44.0596 26.2023V21.5322H45.2844C45.9575 21.5322 46.4577 21.6678 46.785 21.9436C47.1122 22.2194 47.2758 22.6401 47.2758 23.2105C47.2758 23.7808 47.1169 24.1875 46.799 24.4914C46.4811 24.7952 46.037 24.9495 45.462 24.9495H45.2797V26.2023H44.0596ZM45.2797 23.7761H45.4246C45.6256 23.7761 45.7799 23.7294 45.8921 23.6312C46.0043 23.533 46.0557 23.3975 46.0557 23.2245C46.0557 23.0375 45.9996 22.8973 45.8921 22.7991C45.7846 22.7009 45.6256 22.6495 45.4199 22.6495H45.2797V23.7808V23.7761Z" fill="white"/>
<path d="M47.1035 26.2023L48.7537 21.5322H50.1328L51.6895 26.2023H50.3946L50.2263 25.6787H48.5574L48.3751 26.2023H47.1035ZM48.8986 24.5101H49.8663L49.3801 22.9347L48.8986 24.5101Z" fill="white"/>
<path d="M52.1094 26.2023V21.5322H52.6423L54.3953 23.5798V21.5322H55.6108V26.2023H55.0592L53.3295 24.1781V26.2023H52.1094Z" fill="white"/>
<path d="M57.6869 26.2023H56.4668V21.5322H57.6869V26.2023Z" fill="white"/>
<path d="M61.4871 24.9119L61.1599 26.1974H58.542V21.5273H61.1458L61.3469 22.7708H59.7621V23.2477H60.8233V24.4818H59.7621V24.9166H61.4871V24.9119Z" fill="white"/>
<path d="M61.8945 26.2113L61.8618 24.9258C61.9553 24.9632 62.0441 24.9912 62.1235 25.0146C62.2077 25.0333 62.2872 25.0427 62.362 25.0427C62.4975 25.0427 62.6097 25.0099 62.6939 24.9351C62.778 24.865 62.8248 24.7762 62.8248 24.6733C62.8248 24.5331 62.7079 24.3601 62.4742 24.1451C62.3947 24.075 62.3339 24.0142 62.2918 23.9721C62.1282 23.8085 62.002 23.6355 61.9225 23.4579C61.8431 23.2803 61.8057 23.0886 61.8057 22.8876C61.8057 22.4669 61.9553 22.1256 62.2498 21.8545C62.5443 21.5833 62.9276 21.4478 63.3998 21.4478C63.5493 21.4478 63.6849 21.4571 63.8158 21.4758C63.9467 21.4945 64.0729 21.5226 64.1898 21.5646V22.724C64.0869 22.6725 63.9935 22.6351 63.9046 22.6071C63.8158 22.5837 63.7363 22.5697 63.6709 22.5697C63.5166 22.5697 63.3998 22.6024 63.3156 22.6632C63.2315 22.7286 63.1894 22.8175 63.1894 22.9343C63.1894 23.0652 63.3016 23.2195 63.526 23.3971C63.6148 23.4673 63.6849 23.528 63.7363 23.5701C63.9187 23.729 64.0589 23.9067 64.1524 24.1124C64.2459 24.3181 64.2973 24.5331 64.2973 24.7668C64.2973 25.2343 64.143 25.5989 63.8298 25.8654C63.5166 26.1319 63.0865 26.2628 62.5302 26.2628C62.4181 26.2628 62.3059 26.2534 62.203 26.2441C62.0955 26.2347 61.9973 26.2207 61.8992 26.202L61.8945 26.2113Z" fill="white"/>
<path d="M67.9896 26.2023H66.7695V21.5322H67.9896V26.2023Z" fill="white"/>
<path d="M68.8457 26.2023V21.5322H69.3786L71.1317 23.5798V21.5322H72.3471V26.2023H71.7955L70.0658 24.1781V26.2023H68.8457Z" fill="white"/>
<path d="M76.0585 26.2022C75.965 26.2303 75.8668 26.249 75.7687 26.263C75.6658 26.277 75.5536 26.2817 75.4321 26.2817C74.6888 26.2817 74.0904 26.062 73.6276 25.6225C73.1695 25.1831 72.9404 24.6081 72.9404 23.9022C72.9404 23.1963 73.1788 22.6073 73.6557 22.1445C74.1325 21.6817 74.7402 21.4526 75.4742 21.4526C75.5583 21.4526 75.6518 21.4573 75.7453 21.4667C75.8388 21.476 75.937 21.4947 76.0398 21.5181L76.1053 22.9018C75.9931 22.8551 75.8855 22.8177 75.7733 22.7943C75.6658 22.7709 75.5583 22.7569 75.4601 22.7569C75.0908 22.7569 74.7916 22.8597 74.5579 23.0654C74.3242 23.2711 74.2073 23.5329 74.2073 23.8555C74.2073 24.178 74.3242 24.4398 74.5532 24.6502C74.7823 24.8652 75.0721 24.9727 75.4181 24.9727C75.5443 24.9727 75.6658 24.9587 75.7874 24.926C75.9089 24.8933 76.0305 24.8465 76.152 24.7857L76.0585 26.2022Z" fill="white"/>
<path d="M76.8018 26.2023V24.9868H77.9144V26.2023H76.8018Z" fill="white"/>
</g>
<defs>
<clipPath id="clip0_635_5592">
<rect width="80.3032" height="35" fill="white"/>
</clipPath>
</defs>
</svg>
