<svg width="281" height="79" viewBox="0 0 281 79" fill="none" xmlns="http://www.w3.org/2000/svg">
<path d="M78.7466 0.526367H0.68457V77.9253H78.7466V0.526367Z" fill="white"/>
<path d="M74.7104 4.33984H4.3418V74.6709H74.7104V4.33984Z" fill="#333333"/>
<path d="M79.6112 0H0V79H79.6112V0ZM2.29749 76.7037V2.29627H77.2505V76.6932H2.29749V76.7037Z" fill="#333333"/>
<path d="M16.8726 32.8008C17.7895 32.8008 18.4218 32.9167 18.7696 33.1379C19.1174 33.3696 19.286 33.7699 19.286 34.3492V35.6027C19.286 36.2558 19.1174 36.7087 18.7801 36.972C18.4429 37.2354 17.8105 37.3828 16.8726 37.4144V32.8008ZM16.8726 40.606C17.8632 40.606 18.5483 40.764 18.9277 41.08C19.3071 41.396 19.4968 41.9438 19.4968 42.7338V44.082C19.4968 44.8931 19.3281 45.4408 18.9804 45.7252C18.6326 46.0096 17.937 46.1571 16.8831 46.1887V40.6166L16.8726 40.606ZM18.1478 49.5804C20.1607 49.5804 21.6467 49.1591 22.6163 48.3164C23.5859 47.4738 24.0707 46.1782 24.0707 44.4296V42.6706C24.0707 41.6594 23.8494 40.8483 23.4067 40.2374C22.9641 39.6264 22.258 39.163 21.2884 38.8575C22.1104 38.4994 22.7111 38.0254 23.0905 37.4144C23.47 36.8035 23.6491 36.0135 23.6491 35.0444V33.496C23.6491 32.1162 23.2065 31.0734 22.3107 30.3887C21.4149 29.704 20.0764 29.3564 18.2848 29.3564H12.3408V49.591H18.1478V49.5804Z" fill="white"/>
<path d="M25.9678 49.5804V29.3564H30.5311V49.5804H25.9678Z" fill="white"/>
<path d="M40.5009 49.5807L40.4799 48.0007C40.0267 48.6116 39.4892 49.0751 38.8569 49.3911C38.2351 49.7071 37.5395 49.8756 36.7807 49.8756C35.4212 49.8756 34.3883 49.3489 33.6928 48.2956C32.9972 47.2423 32.6494 45.6833 32.6494 43.6188V35.3291C32.6494 33.254 33.1553 31.6845 34.167 30.6417C35.1788 29.5989 36.6858 29.0723 38.6882 29.0723C40.6906 29.0723 42.2082 29.5884 43.2094 30.6312C44.2106 31.674 44.7165 33.2329 44.7165 35.3291V36.2981H40.1005V34.5812C40.1005 33.9176 39.9845 33.4331 39.7632 33.1276C39.5313 32.8221 39.173 32.6747 38.6777 32.6747C38.1824 32.6747 37.8451 32.8221 37.6238 33.1276C37.4025 33.4331 37.2866 33.9176 37.2866 34.5707V44.3456C37.2866 44.9987 37.4025 45.4727 37.6238 45.7676C37.8451 46.0625 38.2034 46.21 38.7093 46.21C39.2152 46.21 39.5524 46.0625 39.7843 45.7676C40.0056 45.4727 40.1215 44.9987 40.1215 44.3456V42.0915H38.5407V38.3943H44.7376V49.5701H40.5325L40.5009 49.5807Z" fill="white"/>
<path d="M46.6348 43.187V39.3213H53.2005V43.187H46.6348Z" fill="white"/>
<path d="M62.0948 33.1908C62.3478 33.4541 62.4848 33.9597 62.4848 34.6971V44.2403C62.4848 44.9776 62.3583 45.4832 62.0948 45.7465C61.8419 45.9993 61.2622 46.1363 60.3664 46.1363H59.7763V32.8011H60.3559C61.2517 32.8011 61.8314 32.938 62.0843 33.2013L62.0948 33.1908ZM55.2129 49.5807H59.4074H60.0608C61.7365 49.5807 62.9169 49.4964 63.6335 49.3384C64.3396 49.1804 64.9403 48.896 65.4357 48.5063C66.0259 48.0217 66.4579 47.4529 66.7109 46.7999C66.9638 46.1468 67.1008 45.262 67.1008 44.156V34.8445C67.1008 32.7589 66.6687 31.3369 65.8256 30.5469C64.972 29.7569 63.3279 29.3672 60.8828 29.3672H55.2129V49.6017V49.5807Z" fill="white"/>
<path d="M141.327 57.4801H143.804C144.784 57.4801 145.585 57.9751 145.585 59.2918C145.585 60.1977 145.184 60.8928 144.415 61.0087V61.0298C145.111 61.1035 145.479 61.4827 145.522 62.4623C145.522 62.9153 145.543 63.463 145.564 63.8843C145.585 64.2319 145.754 64.4005 145.901 64.4953H144.636C144.531 64.3689 144.478 64.1477 144.447 63.8738C144.405 63.4525 144.415 63.0627 144.394 62.5466C144.373 61.7777 144.141 61.4406 143.372 61.4406H142.455V64.4847H141.338V57.459L141.327 57.4801ZM143.351 60.5979C144.067 60.5979 144.468 60.1661 144.468 59.4603C144.468 58.7125 144.141 58.3227 143.403 58.3227H142.444V60.6085H143.34L143.351 60.5979Z" fill="white"/>
<path d="M148.978 57.4805H152.772V58.4285H150.095V60.3771H152.614V61.3251H150.095V63.5687H152.846V64.5167H148.968V57.491L148.978 57.4805Z" fill="white"/>
<path d="M156.935 62.3258V62.5049C156.935 63.3581 157.304 63.7899 158.084 63.7899C158.79 63.7899 159.149 63.2843 159.149 62.7682C159.149 62.0309 158.78 61.7043 158.147 61.5147L157.378 61.2514C156.356 60.8617 155.913 60.3245 155.913 59.3238C155.913 58.0493 156.777 57.333 158.095 57.333C159.897 57.333 160.087 58.4495 160.087 59.1869V59.3449H158.969V59.1974C158.969 58.5549 158.685 58.1862 157.989 58.1862C157.505 58.1862 157.041 58.4495 157.041 59.1974C157.041 59.7978 157.346 60.1033 158.095 60.3877L158.854 60.6615C159.844 61.0197 160.276 61.5569 160.276 62.5154C160.276 64.0111 159.37 64.6326 157.958 64.6326C156.219 64.6326 155.818 63.4739 155.818 62.4838V62.3153H156.935V62.3258Z" fill="white"/>
<path d="M163.375 60.9883C163.375 58.4814 164.081 57.3438 165.694 57.3438C167.306 57.3438 168.012 58.4814 168.012 60.9883C168.012 63.4952 167.306 64.6328 165.694 64.6328C164.081 64.6328 163.375 63.4952 163.375 60.9883ZM166.895 60.9567C166.895 58.5972 166.368 58.1864 165.694 58.1864C165.019 58.1864 164.492 58.5972 164.492 60.9567C164.492 63.3162 165.019 63.7902 165.694 63.7902C166.368 63.7902 166.895 63.3793 166.895 60.9567Z" fill="white"/>
<path d="M171.374 57.4801H173.851C174.831 57.4801 175.632 57.9751 175.632 59.2918C175.632 60.1977 175.231 60.8928 174.462 61.0087V61.0298C175.157 61.1035 175.526 61.4827 175.569 62.4623C175.569 62.9153 175.59 63.463 175.611 63.8843C175.632 64.2319 175.8 64.4005 175.948 64.4953H174.683C174.578 64.3689 174.525 64.1477 174.494 63.8738C174.451 63.4525 174.462 63.0627 174.441 62.5466C174.42 61.7777 174.188 61.4406 173.419 61.4406H172.502V64.4847H171.385V57.459L171.374 57.4801ZM173.397 60.5979C174.114 60.5979 174.515 60.1661 174.515 59.4603C174.515 58.7125 174.188 58.3227 173.45 58.3227H172.491V60.6085H173.387L173.397 60.5979Z" fill="white"/>
<path d="M179.995 58.4177H178.319V57.4697H182.756V58.4177H181.112V64.4955H179.995V58.4177Z" fill="white"/>
<path d="M186.635 62.3258V62.5049C186.635 63.3581 187.004 63.7899 187.783 63.7899C188.49 63.7899 188.848 63.2843 188.848 62.7682C188.848 62.0309 188.479 61.7043 187.847 61.5147L187.077 61.2514C186.055 60.8617 185.612 60.3245 185.612 59.3238C185.612 58.0493 186.477 57.333 187.794 57.333C189.596 57.333 189.786 58.4495 189.786 59.1869V59.3449H188.669V59.1974C188.669 58.5549 188.384 58.1862 187.689 58.1862C187.204 58.1862 186.74 58.4495 186.74 59.1974C186.74 59.7978 187.046 60.1033 187.794 60.3877L188.553 60.6615C189.543 61.0197 189.976 61.5569 189.976 62.5154C189.976 64.0111 189.069 64.6326 187.657 64.6326C185.918 64.6326 185.518 63.4739 185.518 62.4838V62.3153H186.635V62.3258Z" fill="white"/>
<path d="M201.526 62.3675C201.694 62.0937 201.8 61.6723 201.8 61.2931V61.1562H202.685V61.2405C202.685 61.6091 202.569 62.4729 202.084 63.147L203.043 64.4847H201.852L201.431 63.8843C200.978 64.2951 200.461 64.6216 199.66 64.6216C198.037 64.6216 197.595 63.4208 197.595 62.6835C197.595 61.9462 197.974 61.2931 198.575 60.8402L199.017 60.5031L198.754 60.1134C198.512 59.7342 198.301 59.3339 198.301 58.9653C198.301 57.9646 199.039 57.459 199.977 57.459C200.493 57.459 201.526 57.7118 201.526 58.881C201.526 59.5341 201.167 59.987 200.672 60.3557L200.303 60.619L201.536 62.3465L201.526 62.3675ZM199.302 61.3668C198.902 61.6934 198.649 62.0937 198.649 62.6203C198.649 63.2523 199.186 63.7368 199.84 63.7368C200.314 63.7368 200.662 63.4841 200.936 63.1997L199.513 61.1983L199.302 61.3774V61.3668ZM200.05 59.7658C200.293 59.5341 200.567 59.2497 200.567 58.8599C200.567 58.4491 200.314 58.1963 199.903 58.1963C199.618 58.1963 199.239 58.3438 199.239 58.8073C199.239 59.1654 199.46 59.513 199.65 59.7763L199.808 59.987L200.05 59.7658Z" fill="white"/>
<path d="M210.694 57.4801H213.171C214.151 57.4801 214.952 57.9751 214.952 59.2918C214.952 60.1977 214.552 60.8928 213.782 61.0087V61.0298C214.478 61.1035 214.847 61.4827 214.889 62.4623C214.889 62.9153 214.91 63.463 214.931 63.8843C214.952 64.2319 215.121 64.4005 215.268 64.4953H214.004C213.898 64.3689 213.845 64.1477 213.814 63.8738C213.772 63.4525 213.782 63.0627 213.761 62.5466C213.74 61.7777 213.508 61.4406 212.739 61.4406H211.822V64.4847H210.705V57.459L210.694 57.4801ZM212.707 60.5979C213.424 60.5979 213.824 60.1661 213.824 59.4603C213.824 58.7125 213.498 58.3227 212.76 58.3227H211.801V60.6085H212.697L212.707 60.5979Z" fill="white"/>
<path d="M218.336 57.4805H222.13V58.4285H219.453V60.3771H221.972V61.3251H219.453V63.5687H222.204V64.5167H218.325V57.491L218.336 57.4805Z" fill="white"/>
<path d="M226.303 62.3258V62.5049C226.303 63.3581 226.672 63.7899 227.451 63.7899C228.158 63.7899 228.516 63.2843 228.516 62.7682C228.516 62.0309 228.147 61.7043 227.515 61.5147L226.745 61.2514C225.723 60.8617 225.28 60.3245 225.28 59.3238C225.28 58.0493 226.145 57.333 227.462 57.333C229.264 57.333 229.454 58.4495 229.454 59.1869V59.3449H228.337V59.1974C228.337 58.5549 228.052 58.1862 227.357 58.1862C226.872 58.1862 226.408 58.4495 226.408 59.1974C226.408 59.7978 226.714 60.1033 227.462 60.3877L228.221 60.6615C229.211 61.0197 229.644 61.5569 229.644 62.5154C229.644 64.0111 228.737 64.6326 227.325 64.6326C225.586 64.6326 225.186 63.4739 225.186 62.4838V62.3153H226.303V62.3258Z" fill="white"/>
<path d="M232.858 57.4805H233.976V64.5062H232.858V57.4805Z" fill="white"/>
<path d="M237.453 57.4803H239.456C241.658 57.4803 241.932 58.9128 241.932 60.9879C241.932 63.0629 241.658 64.4955 239.456 64.4955H237.453V57.4697V57.4803ZM238.57 63.6528H239.498C240.425 63.6528 240.805 63.0419 240.805 60.9879C240.805 58.9339 240.467 58.3229 239.498 58.3229H238.57V63.6528Z" fill="white"/>
<path d="M245.283 57.4805H249.077V58.4285H246.4V60.3771H248.919V61.3251H246.4V63.5687H249.151V64.5167H245.272V57.491L245.283 57.4805Z" fill="white"/>
<path d="M252.376 57.4805H253.746L255.78 62.7155H255.801V57.4805H256.866V64.5062H255.495L253.461 59.1342H253.44V64.5062H252.376V57.4805Z" fill="white"/>
<path d="M264.707 61.9784V62.1259C264.707 63.3899 264.19 64.6328 262.546 64.6328C260.776 64.6328 260.228 63.4952 260.228 60.9883C260.228 58.4814 260.776 57.3438 262.557 57.3438C264.559 57.3438 264.675 58.8184 264.675 59.5452V59.6716H263.558V59.5558C263.558 58.9027 263.358 58.1548 262.557 58.1864C261.735 58.1864 261.355 58.7026 261.355 60.9567C261.355 63.2108 261.724 63.7902 262.557 63.7902C263.495 63.7902 263.6 62.7474 263.6 62.0943V61.9784H264.717H264.707Z" fill="white"/>
<path d="M267.858 57.4805H271.652V58.4285H268.975V60.3771H271.494V61.3251H268.975V63.5687H271.726V64.5167H267.848V57.491L267.858 57.4805Z" fill="white"/>
<path d="M275.825 62.3258V62.5049C275.825 63.3581 276.194 63.7899 276.974 63.7899C277.68 63.7899 278.038 63.2843 278.038 62.7682C278.038 62.0309 277.669 61.7043 277.037 61.5147L276.268 61.2514C275.246 60.8617 274.803 60.3245 274.803 59.3238C274.803 58.0493 275.667 57.333 276.984 57.333C278.787 57.333 278.976 58.4495 278.976 59.1869V59.3449H277.859V59.1974C277.859 58.5549 277.575 58.1862 276.879 58.1862C276.394 58.1862 275.931 58.4495 275.931 59.1974C275.931 59.7978 276.236 60.1033 276.984 60.3877L277.743 60.6615C278.734 61.0197 279.166 61.5569 279.166 62.5154C279.166 64.0111 278.26 64.6326 276.847 64.6326C275.108 64.6326 274.708 63.4739 274.708 62.4838V62.3153H275.825V62.3258Z" fill="white"/>
<path d="M130.514 12.9242C130.514 13.5667 130.177 14.0934 129.492 14.5042C129.113 14.757 128.449 15.1467 127.5 15.6629C127.237 15.7893 126.952 16.021 126.636 16.3581C126.33 16.6951 126.004 16.9585 125.666 17.1691C125.329 17.3693 124.918 17.7063 124.444 18.1698C123.885 18.6859 123.474 19.0335 123.2 19.2126C122.758 19.6971 122.02 20.3713 120.987 21.2139C120.724 21.3719 119.649 22.2251 117.762 23.7946C116.698 24.6689 116.002 25.659 115.686 26.7545C115.275 27.6814 114.759 29.0929 114.137 30.9889C114.052 31.6314 113.958 32.2634 113.873 32.8743C113.757 33.6959 113.547 34.4227 113.252 35.0653C113.104 35.5498 112.693 36.4241 112.008 37.6775C111.681 38.2885 110.975 39.3313 109.89 40.7954C109.363 41.4063 108.614 42.0489 107.655 42.723C106.696 43.3866 105.79 43.8817 104.936 44.1871C104.726 44.2609 104.409 44.4083 103.967 44.6085C103.703 44.7665 103.303 44.8929 102.776 44.9982C102.692 44.9982 102.47 45.0509 102.133 45.1562C101.796 45.2615 101.532 45.3142 101.364 45.3142H100.078C97.2429 45.2931 94.6398 44.5453 92.2474 43.0811C90.2977 41.8803 89.3281 40.1529 89.3281 37.9303C89.3281 36.5926 89.5389 35.4655 89.9499 34.5491C90.245 33.8855 90.7193 32.9165 91.3621 31.663C92.1315 30.4833 92.9114 29.4826 93.7018 28.661C94.5028 27.8394 95.0613 27.3127 95.388 27.081C96.1257 26.5122 96.874 26.2383 97.6434 26.2383C98.8553 26.2383 99.8565 26.7123 100.657 27.6603C101.395 28.503 101.764 29.4721 101.764 30.5465C101.764 30.7255 101.743 30.9889 101.701 31.3365C101.659 31.6841 101.638 31.9474 101.638 32.1265C101.638 32.2529 101.68 32.3161 101.775 32.3161C102.154 32.3161 103.145 31.7999 104.736 30.7782C105 30.5991 106.222 29.9039 108.404 28.7031C109.995 27.8289 111.102 27.0915 111.723 26.4701C112.693 25.5431 113.378 24.7953 113.757 24.2054C114.643 22.9203 115.264 22.0461 115.612 21.5931C116.382 20.6135 117.119 19.8446 117.825 19.2863C118.3 18.7702 119.037 18.0645 120.039 17.1691C120.186 17.0638 121.103 16.2106 122.779 14.5885C123.78 13.6405 124.929 12.9979 126.204 12.6609C127.49 12.3238 128.512 12.1553 129.281 12.1553C130.103 12.1553 130.525 12.4291 130.525 12.9663L130.514 12.9242ZM97.7382 30.1146C97.7382 28.9875 97.3377 28.4187 96.5473 28.4187C96.3154 28.4187 96.0625 28.5241 95.799 28.7242C95.4407 28.9559 94.9243 29.3035 94.2498 29.767C93.5121 30.4306 92.9535 31.2206 92.5636 32.1159C92.532 32.1897 92.3528 32.4846 92.0366 33.0007C91.2357 34.1805 90.8457 35.4234 90.8457 36.7295C90.8457 37.193 90.9933 37.4247 91.2884 37.4247C91.4991 37.4247 92.279 37.1298 93.6386 36.5399C94.313 36.2555 94.6819 36.087 94.7451 36.0343C95.1035 35.8553 95.3986 35.6235 95.6304 35.3391C96.1574 34.7282 96.6527 33.8855 97.0953 32.8217C97.538 31.7578 97.7593 30.8519 97.7593 30.1146H97.7382ZM93.7123 37.8461C93.7123 37.6881 93.6386 37.6143 93.491 37.6143C93.3751 37.6143 93.0905 37.7302 92.6479 37.9619C92.1209 38.2147 91.8048 38.3622 91.7205 38.3833C91.2778 38.5413 91.0565 38.7941 91.0565 39.1522C91.0565 39.5103 91.1935 39.9317 91.457 40.4267C91.7205 40.9113 92.0366 41.1535 92.3844 41.1535C92.532 41.1535 92.6057 41.0798 92.6057 40.9218C92.6057 40.8481 92.5847 40.7322 92.5425 40.5953C92.5003 40.4583 92.4793 40.3425 92.4793 40.2687C92.4793 40.1634 92.69 39.8263 93.1011 39.247C93.5121 38.6677 93.7229 38.2042 93.7229 37.8461H93.7123ZM111.629 28.8085C111.629 28.3977 111.492 28.1975 111.228 28.1975C111.165 28.1975 110.427 28.5346 109.015 29.1982C108.509 29.5353 107.687 30.0409 106.538 30.7361C105.621 31.2206 104.704 31.6946 103.798 32.1581C102.702 32.7479 101.848 33.2957 101.227 33.8118C100.847 34.1489 100.531 34.6755 100.299 35.3918C100.183 35.7499 99.8038 36.3609 99.1715 37.2141C98.5392 38.0778 98.0544 38.6255 97.7382 38.8678C97.4115 39.1101 96.7792 39.4366 95.8307 39.8474C94.0285 40.669 93.1327 41.2799 93.1327 41.6907C93.1327 42.1015 94.0812 42.5861 95.9677 43.1549C96.7686 43.4077 97.4958 43.5446 98.1808 43.5446C99.9514 43.5446 101.574 43.1443 103.05 42.3543C103.903 41.8909 104.978 40.9323 106.275 39.4682C107.423 38.1831 108.298 37.0561 108.888 36.087C109.068 35.6762 109.373 35.0969 109.816 34.3595C110.143 33.9487 110.343 33.4958 110.438 33.0113C110.522 32.5267 110.648 32.137 110.785 31.8526C110.901 31.6946 111.144 30.8941 111.492 29.4299C111.576 29.1455 111.629 28.9454 111.629 28.819V28.8085Z" fill="white"/>
<path d="M129.619 39.4467C129.619 39.6152 129.397 39.8048 128.944 40.0155C128.28 40.3736 127.289 40.8687 125.962 41.5323C125.298 41.9431 124.286 42.4487 122.916 43.0386C122.536 43.1439 121.894 43.4494 120.998 43.9339C120.197 44.3658 119.533 44.6396 119.016 44.7555C118.9 44.7871 118.648 44.8608 118.258 44.9767C117.868 45.1031 117.573 45.1558 117.372 45.1558C117.172 45.1558 116.877 45.219 116.508 45.3559C116.129 45.4928 115.844 45.556 115.654 45.556C115.233 45.556 114.769 45.4191 114.274 45.1452C113.873 45.061 113.483 44.9767 113.104 44.8819C112.725 44.7871 112.408 44.4079 112.145 43.7548C112.029 43.4599 111.966 43.1334 111.966 42.7752C111.966 41.901 112.356 40.953 113.136 39.9102C113.515 39.394 114.137 38.6988 115.012 37.8246C116.002 36.8134 116.666 36.2551 116.993 36.1498C117.204 36.0655 117.52 35.9286 117.952 35.739C118.236 35.4967 118.721 35.2228 119.406 34.9174C120.755 34.6751 121.324 34.5487 121.114 34.5487C121.778 34.5487 122.104 34.7383 122.104 35.1175C122.104 35.2018 122.041 35.2966 121.925 35.4019C121.335 36.0023 120.45 36.8555 119.269 37.972C118.626 38.4671 117.762 39.0359 116.677 39.689C115.707 40.2894 115.033 41.1004 114.653 42.1432C114.516 42.4698 114.442 42.7542 114.442 42.9964C114.442 43.6495 114.959 43.976 116.002 43.976C117.425 43.976 118.574 43.7864 119.448 43.4178C120.155 43.2282 121.208 42.8595 122.61 42.3012C122.821 42.1959 124.244 41.5007 126.857 40.2367C128.396 39.5204 129.208 39.1623 129.302 39.1623C129.513 39.1623 129.619 39.2466 129.619 39.4046V39.4467ZM126.994 28.7764C126.994 29.0503 126.784 29.1872 126.351 29.1872C126.067 29.1872 125.698 29.124 125.255 28.9871C124.613 28.9555 123.812 28.787 122.842 28.4604C122.252 27.9443 121.957 27.3544 121.957 26.7014C121.957 26.4275 122.073 26.2274 122.315 26.0904C122.979 25.6796 123.348 25.4795 123.411 25.4795C123.548 25.4795 123.696 25.5954 123.854 25.8271C124.012 26.0588 124.138 26.2695 124.265 26.4591C124.665 26.9542 124.908 27.2386 124.971 27.3123C125.182 27.5335 125.477 27.7126 125.856 27.839C126.615 28.1128 126.994 28.4288 126.994 28.7764Z" fill="white"/>
<path d="M152.635 39.4052C152.635 39.5737 152.551 39.7001 152.383 39.7949C152.214 39.8897 151.74 40.1425 150.96 40.5533C150.633 40.7745 150.127 41.0589 149.453 41.4065C148.778 41.7647 148.272 42.0491 147.946 42.2597C147.187 42.6916 146.112 43.4289 144.721 44.4612C144.362 44.6508 143.867 44.9879 143.235 45.4829C142.908 45.7568 142.423 46.1781 141.78 46.7469C141.475 47.0419 140.927 47.4421 140.147 47.9267C139.367 48.4217 138.808 48.8431 138.482 49.1907C137.891 49.7595 137.301 50.2756 136.711 50.7391C135.383 51.7713 134.329 52.8879 133.549 54.0887C133.054 54.7733 132.316 55.8056 131.347 57.196C130.967 57.8175 130.577 58.4495 130.177 59.0709C129.724 59.7767 129.281 60.3349 128.828 60.7247C128.375 61.1144 127.869 61.778 127.3 62.7049C126.657 63.7372 126.172 64.4324 125.845 64.7905C125.203 65.5805 124.222 66.7497 122.905 68.3087C121.914 69.4568 120.934 70.5944 119.965 71.7425C118.447 73.4068 117.404 74.2389 116.803 74.2389C116.381 74.2389 116.16 73.9967 116.16 73.5016C116.16 73.1224 116.445 72.4904 117.014 71.6267C117.699 70.5417 118.078 69.8781 118.152 69.6675C118.605 68.5509 120.46 66.1493 123.717 62.4732C124.043 62.1151 124.507 61.5779 125.097 60.8405C125.456 60.3244 126.172 59.5765 127.258 58.5969C128.248 57.7016 128.933 56.9221 129.313 56.2691C129.355 56.1848 129.65 55.9004 130.198 55.4159C130.409 55.2263 130.693 54.9103 131.052 54.4784C131.642 53.878 132.453 52.8879 133.497 51.4975C133.781 51.0656 134.192 50.4125 134.74 49.5383C134.909 49.1591 135.309 48.5692 135.942 47.7792C136.11 47.6107 136.3 47.3052 136.532 46.8417C136.753 46.3783 136.964 46.0517 137.154 45.8621C137.48 45.5356 137.913 44.9352 138.429 44.0609C138.945 43.1867 139.367 42.6073 139.673 42.3019C139.788 42.0069 140.01 41.5645 140.347 40.9957C140.842 40.3743 141.127 39.6791 141.201 38.9101L141.169 38.868C141.032 38.868 140.726 38.9944 140.263 39.2577C139.799 39.5211 139.504 39.7001 139.356 39.8055C139.167 39.9951 138.893 40.1425 138.545 40.2584C138.092 40.4269 137.797 40.5323 137.66 40.5849C136.932 40.9957 135.12 41.9332 132.232 43.4079C131.758 43.5764 131.094 43.9345 130.251 44.5139C129.892 44.872 129.545 45.0405 129.186 45.0405C128.765 45.0405 128.354 44.7772 127.974 44.2611C127.289 43.3025 126.941 42.7232 126.941 42.502C126.941 42.3967 126.973 42.2597 127.047 42.0912C127.637 40.7324 128.28 39.7739 128.965 39.2261C129.271 38.9839 130.209 38.4677 131.768 37.6777C133.117 37.0247 135.099 35.9292 137.723 34.4124C138.576 33.8436 139.694 33.3275 141.074 32.8851C142.455 32.4321 143.635 32.2109 144.605 32.2109C145.005 32.2109 145.321 32.2425 145.564 32.2952C146.017 32.4321 146.291 32.6323 146.417 32.9061C146.46 33.0431 146.523 33.4223 146.576 34.0543C146.639 34.6757 146.66 35.1603 146.66 35.4868C146.66 36.0029 146.597 36.4453 146.481 36.7929C146.27 37.5303 146.091 37.8989 145.954 37.8989C145.817 37.8989 145.743 37.6672 145.743 37.2037C145.743 37.0141 145.785 36.7719 145.88 36.4664C145.975 36.1715 146.017 35.9187 146.017 35.7291C146.017 35.234 145.901 34.7916 145.68 34.4019C145.458 34.0121 145.142 33.812 144.742 33.812H144.636C143.498 33.812 142.76 33.9384 142.402 34.1807C141.38 34.6968 139.81 35.6764 137.681 37.1195C136.996 37.5303 135.994 38.1939 134.667 39.1208C134.456 39.2893 134.35 39.4895 134.35 39.7317C134.35 40.1952 134.487 40.4269 134.772 40.4269C135.151 40.4269 135.731 40.2795 136.532 39.9951C137.322 39.7107 137.881 39.4473 138.218 39.1945C138.829 38.7627 139.514 38.4045 140.273 38.1307C140.537 38.0464 141.169 37.6672 142.191 36.9825C143.108 36.4137 143.72 36.1293 144.004 36.1293C144.236 36.1293 144.362 36.2663 144.362 36.5401C144.362 36.7824 143.994 37.4355 143.266 38.4993C142.434 39.9424 141.137 42.028 139.367 44.7456C139.103 45.1248 138.703 45.6725 138.155 46.3783C137.965 46.7048 137.67 47.1999 137.27 47.8529C136.701 48.6113 136.416 49.1696 136.416 49.5277C136.416 49.612 136.448 49.6541 136.521 49.6541C136.69 49.6541 137.069 49.4119 137.66 48.9168C138.039 48.5587 138.418 48.2216 138.798 47.8951C139.314 47.5685 140.062 47.0208 141.032 46.2624C141.643 45.6304 142.602 44.9036 143.909 44.0609C144.31 43.7344 144.942 43.3025 145.785 42.7548C146.112 42.5968 146.691 42.2281 147.524 41.6488C147.998 41.4065 148.694 41.0273 149.621 40.5007C151.234 39.6053 152.151 39.1524 152.393 39.1524C152.562 39.1524 152.646 39.2367 152.646 39.3947L152.635 39.4052ZM129.123 58.1124C129.102 58.0281 129.081 57.986 129.049 57.986C128.933 57.986 128.533 58.3652 127.837 59.1341C127.11 59.9768 126.646 60.4613 126.457 60.5877C126.267 60.7141 125.993 61.0301 125.645 61.5463C125.287 62.0624 125.002 62.3995 124.792 62.5469C124.581 62.6944 124.359 62.9577 124.117 63.3264C123.885 63.6951 123.685 63.9479 123.516 64.0848C123.253 64.4113 122.842 64.9064 122.273 65.5595C121.704 66.1072 121.419 66.676 121.419 67.2764C121.419 67.6029 121.493 67.7715 121.63 67.7715C121.704 67.7715 121.893 67.5503 122.22 67.1184C122.536 66.6865 122.747 66.4337 122.842 66.3811C123.053 66.2231 123.316 65.9071 123.622 65.4647C123.927 65.0117 124.17 64.7063 124.328 64.5483C124.939 64.0005 125.456 63.3475 125.856 62.5891C126.214 62.2625 126.678 61.6937 127.279 60.8721C127.795 60.2717 128.354 59.566 128.944 58.7444C129.06 58.4495 129.123 58.2388 129.123 58.1335V58.1124Z" fill="white"/>
<path d="M180.48 39.3206C180.48 39.5734 180.269 39.8157 179.837 40.058C178.941 40.6057 178.045 41.1113 177.16 41.5642C176.275 42.0172 174.957 42.6176 173.208 43.3549C172.944 43.5234 172.533 43.7341 171.964 44.0185C170.847 44.5136 169.846 44.7558 168.95 44.7558C168.191 44.7558 167.622 44.6716 167.243 44.5136C166.726 44.2924 166.463 43.7025 166.463 42.744C166.463 42.1962 166.653 41.7012 167.032 41.2588C167.58 40.6268 167.886 40.237 167.949 40.0685C168.023 39.9 168.328 39.5102 168.876 38.8782C169.351 38.3305 169.582 37.9829 169.582 37.846C169.582 37.7406 169.551 37.6774 169.477 37.6774C169.403 37.6774 168.771 37.9934 167.559 38.6149C166.358 39.2469 165.599 39.5945 165.293 39.6788C164.724 39.9842 163.839 40.3845 162.637 40.9006C162.258 41.006 161.699 41.2272 160.972 41.5537C160.498 41.796 159.771 42.1857 158.769 42.7018C158.063 43.1126 157.347 43.534 156.641 43.9658C155.745 44.482 154.975 44.7453 154.333 44.7453C153.574 44.7453 153.194 44.2292 153.194 43.1969C153.194 42.765 153.416 42.2805 153.869 41.7644C154.459 41.0797 154.786 40.6794 154.86 40.5425C154.975 40.3002 155.197 39.9421 155.534 39.4786C155.766 39.2364 156.145 38.815 156.672 38.2146C157.262 37.4773 157.568 37.0454 157.6 36.9085L157.526 36.8242C157.315 36.8242 157.052 36.919 156.746 37.1086C156.367 37.3509 156.124 37.4878 155.998 37.5194C155.713 37.6248 155.344 37.8565 154.902 38.2146C154.543 38.3516 154.059 38.6254 153.447 39.0362C153.163 39.2574 152.646 39.5945 151.888 40.058C151.034 40.553 150.518 40.7953 150.328 40.7953C150.043 40.7953 149.906 40.7005 149.906 40.5109C149.906 40.374 150.233 40.1001 150.897 39.6893C151.318 39.447 151.751 39.1942 152.172 38.952C152.741 38.5412 153.616 37.9408 154.796 37.1508C155.102 36.8242 155.629 36.4345 156.356 35.971C156.525 35.9394 156.746 35.792 157.031 35.5181C157.315 35.2442 157.505 35.1073 157.6 35.1073C157.695 35.1073 157.874 34.9914 158.148 34.7597C158.422 34.528 158.654 34.4121 158.843 34.4121C160.593 34.4121 161.467 34.9598 161.467 36.0448C161.467 36.5609 161.109 37.1613 160.403 37.846C159.507 38.7202 158.991 39.2574 158.875 39.4786C158.685 39.8578 158.316 40.4056 157.779 41.1113C157.305 41.4905 157.073 41.8065 157.073 42.0488C157.073 42.1857 157.147 42.2489 157.284 42.2489C157.378 42.2489 157.61 42.1436 157.99 41.9434C158.369 41.7433 158.601 41.6274 158.696 41.5958C159.455 41.322 160.045 41.0376 160.487 40.7426C160.919 40.4477 161.626 40.1317 162.585 39.8262C163.544 39.5102 164.25 39.1837 164.692 38.8466C165.146 38.5096 165.831 38.1198 166.747 37.6774C167.011 37.6248 167.38 37.4141 167.865 37.0665C168.349 36.7084 168.718 36.4977 168.982 36.4134C169.15 36.3608 169.53 36.1501 170.12 35.8025C170.615 35.5286 171.016 35.3917 171.321 35.3917C171.648 35.3917 172.112 35.5392 172.691 35.8236C173.271 36.108 173.556 36.4345 173.556 36.7821C173.556 37.0244 173.366 37.4141 172.987 37.9302C172.607 38.4464 172.28 38.8045 172.006 38.9941C171.732 39.1837 171.49 39.4576 171.279 39.8157C170.995 40.2476 170.784 40.553 170.636 40.711C170.352 40.9533 169.972 41.3957 169.498 42.0172C169.266 42.6176 169.14 42.9336 169.14 42.9546C169.14 43.2496 169.403 43.4076 169.92 43.4076C170.531 43.4076 171.321 43.218 172.291 42.8388C173.619 42.27 174.388 41.954 174.599 41.9013C174.978 41.7117 175.558 41.4273 176.338 41.0481C176.433 41.0165 177.118 40.6794 178.393 40.0264C179.436 39.4786 180.048 39.2048 180.237 39.2048C180.374 39.2048 180.448 39.2469 180.448 39.3312L180.48 39.3206Z" fill="white"/>
<path d="M202.116 39.3632C202.116 39.5317 201.632 39.8793 200.662 40.427C199.861 40.8589 198.649 41.4804 197.047 42.2704C196.383 42.5969 195.382 43.0182 194.033 43.5344C193.938 43.566 193.316 43.7977 192.157 44.2296C191.398 44.5245 190.766 44.6825 190.239 44.6825C189.86 44.6825 189.301 44.3454 188.574 43.6608C188.268 43.3869 188.11 43.1341 188.11 42.8813C188.11 42.8286 188.121 42.7549 188.142 42.6812V42.481C188.142 42.2598 188.057 42.1545 187.889 42.1545C187.847 42.1545 187.773 42.1861 187.678 42.2388C187.256 42.323 186.635 42.5337 185.834 42.8918C185.507 43.1341 185.054 43.3132 184.485 43.4185C183.726 43.587 183.252 43.7029 183.062 43.7872C182.05 44.198 181.154 44.3981 180.406 44.3981C180.269 44.3981 179.89 44.219 179.268 43.8714C179.036 43.7345 178.783 43.6081 178.52 43.4817C178.256 43.3553 178.056 43.1446 177.919 42.8497C177.75 42.4389 177.666 42.1124 177.666 41.8701C177.666 41.4593 177.929 41.0169 178.446 40.5218C178.73 40.1742 179.215 39.6686 179.9 39.0156C180.49 38.531 181.418 37.8253 182.672 36.8984L184.653 35.5185C185.475 34.9497 186.192 34.581 186.782 34.423C187.33 34.1176 188.173 33.7805 189.333 33.4118C190.091 33.2749 191.072 33.2012 192.273 33.2012C192.884 33.2012 193.306 33.296 193.517 33.4856C193.822 33.7068 193.98 34.1386 193.98 34.7917C193.98 35.2236 193.864 35.6449 193.643 36.0346C193.422 36.4349 193.306 36.6561 193.306 36.7088C193.496 36.9826 193.59 37.2038 193.59 37.3618C193.59 37.7726 193.464 38.1097 193.2 38.3836C192.821 38.8786 192.22 39.5317 191.388 40.3428C191.124 40.5113 190.966 40.6272 190.913 40.6904C190.85 40.7536 190.776 40.9116 190.682 41.1644C190.471 41.7858 190.365 42.0808 190.365 42.0176C190.365 42.3125 190.471 42.5864 190.682 42.8181C190.892 43.0498 191.145 43.1657 191.43 43.1657C191.925 43.1657 192.41 43.1025 192.884 42.9656C193.359 42.8286 193.822 42.6917 194.265 42.5548C194.402 42.5232 195.245 42.144 196.784 41.4066C197.427 41.1328 198.365 40.7009 199.619 40.1005C200.799 39.4474 201.526 39.1209 201.779 39.1209C201.99 39.1209 202.095 39.2052 202.095 39.3632H202.116ZM193 35.3184C193 34.6969 192.747 34.3809 192.252 34.3809C192.115 34.3809 191.883 34.3598 191.577 34.3177C191.272 34.2756 191.05 34.2545 190.903 34.2545C190.618 34.2545 190.218 34.4336 189.701 34.7812C189.038 35.2446 188.637 35.508 188.5 35.5606C188.173 35.6976 187.731 36.003 187.183 36.477C186.635 36.951 186.213 37.267 185.907 37.4145C185.602 37.562 184.854 38.1518 183.673 39.1946C183.505 39.3316 183.325 39.5949 183.146 39.9741C182.957 40.3533 182.809 40.6166 182.704 40.7746C182.598 40.9221 182.546 41.0274 182.546 41.0801C182.546 41.4909 182.841 41.691 183.431 41.691C183.831 41.691 184.2 41.5962 184.527 41.4066C185.475 40.9432 186.413 40.4902 187.362 40.0584C188.468 39.4896 189.343 38.8786 189.986 38.215C190.271 37.8885 190.766 37.5093 191.472 37.0669C191.83 36.93 192.168 36.6877 192.505 36.3506C192.832 36.0136 193 35.666 193 35.3078V35.3184Z" fill="white"/>
<path d="M238.223 29.6404C238.223 29.8827 237.864 30.0091 237.158 30.0091H235.883C235.43 30.0091 234.777 30.0618 233.902 30.1566C233.027 30.2514 232.363 30.304 231.92 30.304H229.012C228.632 30.304 228.074 30.3462 227.325 30.4304C226.577 30.5147 226.029 30.5568 225.671 30.5568C225.407 30.5568 225.049 30.5147 224.575 30.4304C224.101 30.3462 223.742 30.304 223.51 30.304C223.131 30.304 222.572 30.3462 221.845 30.4304C221.118 30.5147 220.559 30.5568 220.18 30.5568C219.917 30.5568 219.537 30.5147 219.042 30.4304C218.547 30.3462 218.167 30.304 217.904 30.304C217.767 30.304 217.556 30.3462 217.282 30.4304C217.008 30.5147 216.808 30.5568 216.66 30.5568H216.165C215.764 30.5568 215.311 30.7886 214.816 31.252C214.415 31.6312 214.004 32.021 213.593 32.4107C213.182 32.8004 212.508 33.3482 211.591 34.0539C211.169 34.3278 210.758 34.7175 210.379 35.2336C209.81 36.0236 209.483 36.466 209.388 36.5714C208.777 37.1928 207.923 38.1935 206.838 39.5734C206.364 40.3318 205.9 40.89 205.457 41.2587C205.004 41.6274 204.783 42.2278 204.783 43.0704C204.783 43.7972 205.394 44.1659 206.627 44.1659C207.997 44.1659 209.62 43.8394 211.485 43.1863C212.339 42.944 213.604 42.5016 215.279 41.8802C215.849 41.659 216.66 41.2798 217.724 40.732C217.935 40.5951 218.525 40.2791 219.495 39.7946C220.465 39.2995 221.013 39.0573 221.129 39.0573C221.339 39.0573 221.445 39.152 221.445 39.3416C221.445 39.5628 220.76 40.0368 219.39 40.7742C218.536 41.206 217.682 41.6274 216.839 42.0382C216.196 42.312 215.258 42.7334 214.004 43.3022C213.625 43.4918 213.035 43.7024 212.234 43.9342C211.433 44.1659 210.821 44.3766 210.421 44.5662C210.115 44.7558 209.62 44.8927 208.946 44.977C208.271 45.0612 207.828 45.1666 207.618 45.3035C207.333 45.4931 206.722 45.5879 205.773 45.5879H205.742C204.751 45.5879 204.034 45.5247 203.592 45.3878C203.149 45.2508 202.738 45.1245 202.348 44.9981C201.958 44.8717 201.663 44.524 201.484 43.9552C201.368 43.6498 201.305 43.3548 201.305 43.0599C201.305 42.4595 201.568 41.7538 202.085 40.9322C202.601 40.1106 202.865 39.6471 202.865 39.5418C202.865 39.4364 202.833 39.3732 202.759 39.3732C202.643 39.3732 202.043 39.6682 200.968 40.2686C199.893 40.869 199.229 41.1639 198.965 41.1639C198.681 41.1639 198.544 41.0796 198.544 40.9216C198.544 40.6794 199.092 40.3318 200.177 39.8999C200.504 39.7314 200.989 39.4996 201.632 39.2047C202.053 38.8992 202.728 38.499 203.655 37.9723C204.055 37.6668 204.688 37.2034 205.531 36.5819C206.142 36.15 206.912 35.4022 207.839 34.3699C208.566 33.4956 209.293 32.6319 209.999 31.7892C210.305 31.4311 210.463 31.1046 210.463 30.8096C210.463 30.1776 209.905 29.8616 208.798 29.8616C208.492 29.8616 208.018 29.9143 207.375 30.0091C206.732 30.1039 206.269 30.1566 205.952 30.1566C205.784 30.1566 205.552 30.1355 205.257 30.0934C204.962 30.0512 204.73 30.0302 204.561 30.0302C204.372 30.0302 204.098 30.0512 203.729 30.0934C203.36 30.1355 203.086 30.1566 202.896 30.1566C202.822 30.1566 202.717 30.1144 202.58 30.0302H202.264C202.053 30.0302 201.747 30.0828 201.336 30.1776C200.936 30.2724 200.63 30.3251 200.42 30.3251C199.85 30.3251 199.176 30.2619 198.396 30.146C197.332 29.9986 196.805 29.809 196.805 29.5983C196.805 29.3244 197.037 29.1875 197.511 29.1875C197.648 29.1875 197.869 29.2296 198.154 29.3139C198.438 29.3982 198.66 29.4403 198.828 29.4403C198.965 29.4403 199.197 29.4192 199.503 29.3771C199.808 29.335 200.03 29.3139 200.177 29.3139H200.599C200.809 29.3982 200.968 29.4403 201.062 29.4403C201.442 29.4403 202.021 29.3771 202.822 29.2402C203.613 29.1032 204.203 29.04 204.582 29.04C204.867 29.04 205.289 29.0716 205.847 29.1243C206.406 29.177 206.827 29.2086 207.101 29.2086H207.175C207.786 29.2086 208.25 29.177 208.556 29.1243C209.125 29.0716 209.346 29.04 209.23 29.04C209.346 29.04 209.536 29.0716 209.778 29.1243C210.031 29.177 210.221 29.2086 210.368 29.2086C211.622 29.2086 212.508 28.9347 213.024 28.3764C213.351 27.9024 213.92 27.302 214.731 26.5858C215.227 26.3962 215.954 26.017 216.892 25.4587C217.061 25.3218 217.25 25.248 217.461 25.248C217.788 25.248 218.199 25.3744 218.684 25.6167C219.168 25.859 219.411 26.1644 219.411 26.512C219.411 26.7859 219.179 27.144 218.705 27.597C218.23 28.0499 217.999 28.3659 217.999 28.5555C217.999 28.7767 218.188 28.9558 218.568 29.1032C218.947 29.2507 219.253 29.3244 219.495 29.3244C219.853 29.3244 220.359 29.3455 221.034 29.3876C221.708 29.4298 222.225 29.4508 222.572 29.4508C222.899 29.4508 223.394 29.4087 224.048 29.3244C224.701 29.2402 225.186 29.198 225.523 29.198C225.755 29.198 226.113 29.2402 226.588 29.3244C227.062 29.4087 227.431 29.4508 227.684 29.4508C228.179 29.4508 228.938 29.4087 229.971 29.3244C231.004 29.2402 231.773 29.198 232.289 29.198C232.5 29.198 232.806 29.2402 233.206 29.3244C233.607 29.4087 233.912 29.4508 234.134 29.4508H234.914C235.546 29.4508 236.062 29.3982 236.442 29.2928C236.937 29.1243 237.232 29.04 237.327 29.04C237.938 29.04 238.254 29.2612 238.254 29.6931L238.223 29.6404Z" fill="white"/>
<path d="M247.666 39.8578C247.666 40.1001 247.36 40.395 246.759 40.7426C246.159 41.0902 245.221 41.5537 243.966 42.1646C243.534 42.3015 242.723 42.7018 241.511 43.3549C240.489 43.8815 239.645 44.1975 238.982 44.3029C238.771 44.3345 238.476 44.4398 238.096 44.6294C237.717 44.819 237.39 44.9138 237.106 44.9138H235.577C234.513 44.9138 233.976 44.4082 233.976 43.397C233.976 43.1547 234.06 42.7966 234.228 42.3331C234.397 41.8697 234.481 41.5326 234.481 41.3114C234.481 41.0165 234.302 40.8585 233.954 40.8585C233.67 40.8585 233.312 40.9638 232.89 41.185C232.247 41.5431 231.92 41.7327 231.899 41.7538C231.351 41.9961 230.529 42.3437 229.412 42.7755C228.864 42.8809 228.095 43.1758 227.104 43.6287C226.704 43.9237 226.071 44.1343 225.228 44.2397C224.301 44.3239 223.711 44.4293 223.458 44.5662C223.384 44.6189 223.3 44.6505 223.205 44.6505C222.067 44.6505 221.497 43.8289 221.497 42.1962C221.497 41.5747 221.75 40.9533 222.256 40.3318C222.762 39.7209 223.015 39.2469 223.015 38.9203C223.015 38.815 222.994 38.6886 222.941 38.5517H222.867C222.773 38.5517 222.14 38.9098 220.992 39.6366C219.832 40.3634 219.137 40.7215 218.894 40.7215C218.684 40.7215 218.578 40.6162 218.578 40.395C218.578 40.2265 218.81 40.0158 219.284 39.7419C219.611 39.5839 219.948 39.4154 220.275 39.2469C221.223 38.6781 222.098 38.0671 222.899 37.4035C224.512 36.0974 225.745 35.4443 226.619 35.4443H226.693C227.621 35.4443 228.074 35.7287 228.074 36.2975C228.074 37.0875 227.852 37.7827 227.399 38.3831C227.136 38.815 226.714 39.4154 226.124 40.1843C225.629 40.6794 225.376 41.2482 225.376 41.9013C225.376 42.4174 225.65 42.6807 226.187 42.6807C226.514 42.6807 226.946 42.5859 227.462 42.3963C228.242 42.0698 228.653 41.8907 228.706 41.8697C229.275 41.7327 230.108 41.4167 231.225 40.9322C232.079 40.553 233.301 39.8262 234.913 38.7623C235.43 38.2673 236.231 37.5405 237.285 36.5609C237.706 36.2027 238.328 36.0342 239.129 36.0342C239.435 36.0342 239.751 36.1711 240.088 36.445C240.415 36.7189 240.583 37.0349 240.583 37.3825C240.583 37.7617 240.067 38.2251 239.024 38.7729C238.792 38.8782 238.539 39.1521 238.275 39.5945C237.917 40.2475 237.727 40.5846 237.706 40.6162C237.095 41.4378 236.779 42.1119 236.779 42.6597C236.779 43.2074 237.042 43.4391 237.559 43.4391C237.538 43.4391 237.812 43.3865 238.37 43.2706C240.942 42.7755 243.461 41.7959 245.927 40.3318C246.728 39.8367 247.202 39.5945 247.349 39.5945C247.539 39.5945 247.634 39.6787 247.634 39.8367L247.666 39.8578Z" fill="white"/>
<path d="M266.456 39.405C266.456 39.6472 266.034 39.9948 265.181 40.4267C264.685 40.6479 263.948 41.0271 262.978 41.5748C262.409 41.8171 261.566 42.2384 260.459 42.8388C259.7 43.355 259.079 43.7131 258.583 43.9027C258.278 44.008 257.551 44.3767 256.423 45.0087C255.548 45.5038 254.8 45.7882 254.189 45.8619C253.809 45.8935 253.282 45.9883 252.597 46.1463C252.408 46.2306 252.176 46.2727 251.891 46.2727C251.396 46.2727 250.943 46.1252 250.542 45.8198C250.068 45.4932 249.836 45.0614 249.836 44.5136C249.836 43.9448 250.121 43.3866 250.69 42.8388C251.47 42.0804 251.912 41.638 252.007 41.5327C252.197 41.2378 252.439 40.9639 252.734 40.7322C253.029 40.5004 253.324 40.2582 253.598 40.0159C253.809 39.7736 254.146 39.3944 254.61 38.8888C255.074 38.3832 255.306 38.0462 255.306 37.8882C255.306 37.8039 255.316 37.7091 255.337 37.6038V37.3194C255.337 37.0244 255.158 36.7716 254.789 36.582C254.42 36.3924 254.083 36.2976 253.778 36.2976C253.493 36.2976 253.156 36.4662 252.745 36.7927C252.081 37.3088 251.132 37.9514 249.91 38.7098C249.699 38.794 249.32 39.0363 248.772 39.4471C248.508 39.6367 248.076 39.9106 247.454 40.2687C246.748 40.6268 246.295 40.7954 246.105 40.7954C245.894 40.7954 245.789 40.7006 245.789 40.511C245.789 40.374 246.074 40.1423 246.643 39.8158C247.022 39.5946 247.391 39.3628 247.76 39.1206C248.129 38.8783 248.687 38.478 249.446 37.9408C249.731 37.6143 250.184 37.1614 250.795 36.5926C251.533 36.0238 251.891 35.3075 251.891 34.4648C251.891 34.3279 251.87 34.1383 251.817 33.896C251.765 33.6538 251.744 33.4642 251.744 33.3272C251.744 32.5056 252.102 32.0316 252.808 31.8947C252.977 31.8631 253.282 31.7683 253.725 31.6103C254.104 31.4734 254.41 31.4102 254.652 31.4102C255.221 31.4102 255.506 31.7894 255.506 32.5583C255.506 32.9691 255.327 33.3272 254.958 33.6432C254.589 33.9592 254.41 34.2331 254.41 34.4859C254.41 34.6755 254.452 34.8124 254.547 34.8967C254.831 35.1179 255.264 35.3075 255.864 35.4655C256.834 35.7394 257.319 36.3819 257.319 37.3826C257.319 38.1199 257.045 38.8678 256.507 39.6262C256.275 39.9211 255.748 40.511 254.947 41.3852C254.642 41.6802 254.42 41.9646 254.273 42.2279C254.136 42.4912 253.757 42.9442 253.135 43.5972C252.966 43.7658 252.882 43.8711 252.882 43.9238C252.882 44.166 253.156 44.2924 253.693 44.2924C255.179 44.2924 256.697 43.8816 258.236 43.0706C258.52 42.9652 258.952 42.7862 259.553 42.5439C260.259 42.112 261.323 41.5327 262.746 40.827C263.073 40.7216 263.558 40.5004 264.201 40.1739C265.381 39.5208 266.045 39.1943 266.182 39.1943C266.372 39.1943 266.466 39.2786 266.466 39.4366L266.456 39.405Z" fill="white"/>
<path d="M281 39.3624C281 39.4467 280.916 39.5625 280.747 39.7311C280.368 40.0787 279.788 40.4368 279.008 40.7844C278.113 41.2163 277.501 41.5323 277.196 41.7219C276.458 42.238 275.162 42.8279 273.296 43.502C272.991 43.66 272.495 43.8812 271.81 44.1551C271.642 44.1867 271.252 44.3341 270.64 44.5975C270.166 44.8081 269.776 44.924 269.471 44.924H269.112C268.996 44.924 268.807 44.9661 268.543 45.0504C268.28 45.1347 268.09 45.1768 267.974 45.1768C267.668 45.1768 267.289 45.082 266.836 44.8924C266.267 44.6712 265.898 44.5343 265.74 44.4816C265.434 44.4816 264.96 44.3447 264.317 44.0708C263.158 43.1439 262.578 42.4065 262.578 41.8693C262.578 41.5744 262.799 41.0899 263.253 40.4368C263.369 40.2472 263.463 40.0049 263.537 39.6995C263.611 39.4045 263.769 39.1307 264.033 38.8779C264.391 38.446 264.97 37.8035 265.771 36.9608C266.572 36.1181 267.215 35.5493 267.69 35.2439C268.164 34.9489 268.933 34.6013 270.008 34.2221C271.083 33.8429 271.884 33.6533 272.4 33.6533H273.602C274.266 33.6533 274.593 33.9377 274.593 34.5065C274.593 34.9911 274.329 35.5809 273.813 36.2551C273.602 36.3604 273.307 36.5395 272.927 36.7817C272.696 37.0029 272.221 37.2663 271.505 37.5928C271.125 37.8351 270.546 38.1616 269.766 38.5724C268.722 38.9832 267.932 39.4256 267.394 39.9101C266.994 40.2577 266.794 40.9003 266.794 41.8272C266.794 42.4276 267.004 42.8805 267.416 43.2071C267.827 43.5336 268.311 43.6916 268.849 43.6916C269.344 43.6916 269.882 43.6389 270.44 43.5231C270.936 43.3861 271.431 43.2597 271.926 43.1544C272.569 43.0175 273.244 42.7647 273.95 42.3749C274.498 42.1537 275.278 41.8061 276.289 41.3111C278.84 39.868 280.336 39.1412 280.758 39.1412C280.895 39.1412 280.969 39.2044 280.969 39.3413L281 39.3624ZM272.032 36.3393C272.032 36.1181 271.895 36.0128 271.61 36.0128C271.441 36.0128 271.125 36.1813 270.651 36.5079C270.609 36.5605 270.198 36.7817 269.45 37.1609C268.933 37.4032 268.564 37.7087 268.353 38.0563C268.185 38.1932 268.027 38.3933 267.858 38.6672L267.89 38.7093C268.501 38.4144 269.228 38.0563 270.05 37.6455C270.356 37.5085 270.777 37.2136 271.325 36.7501C271.462 36.6659 271.694 36.55 272 36.3815L272.032 36.3393Z" fill="white"/>
<path d="M187.73 49.8329C187.983 49.717 188.152 49.7276 188.321 49.7276C190.133 49.7276 191.946 49.6433 193.769 49.6012C196.098 49.559 198.417 49.7276 200.746 49.6328C203.528 49.5274 206.311 49.5064 209.093 49.5169C210.199 49.5169 211.296 49.401 212.402 49.38C214.615 49.3378 216.818 49.717 219.031 49.6117C219.8 49.5696 220.549 49.717 221.318 49.7276C222.288 49.7276 223.257 49.6433 224.206 49.6538C225.449 49.6749 226.703 49.6538 227.947 49.696C229.222 49.7276 230.498 49.696 231.762 49.6012C233.427 49.4642 235.114 49.5169 236.789 49.5169C239.087 49.5169 241.395 49.8013 243.692 49.696C244.335 49.6644 244.999 49.222 245.642 49.2746C248.076 49.4537 250.522 49.3378 252.967 49.3589C255.18 49.38 257.393 49.2957 259.596 49.1798C260.344 49.1377 261.071 49.243 261.798 49.2536C264.633 49.3062 267.479 49.4221 270.314 49.3694C272.137 49.3273 273.939 49.4958 275.762 49.4748C276.563 49.4748 277.354 49.4748 278.144 49.4221C278.313 49.4116 278.492 49.401 278.65 49.4221C278.924 49.4537 279.103 49.5696 279.145 49.7381C279.177 49.8961 279.05 50.012 278.84 50.0752C278.692 50.1278 278.524 50.17 278.365 50.1805C277.575 50.2016 276.795 50.2753 275.994 50.2648C273.496 50.2226 271.009 50.0436 268.501 50.17C267.605 50.2226 266.688 50.1068 265.782 50.1068C263.674 50.1068 261.587 50.012 259.501 49.8224C258.805 49.7592 258.078 49.7697 257.372 49.8013C256.234 49.854 255.106 49.7802 253.978 49.717C252.65 49.6538 251.312 49.6117 249.995 49.7908C249.352 49.875 248.709 49.9066 248.045 49.8961C245.178 49.8645 242.312 50.2226 239.445 50.2542C237.19 50.2753 234.966 50.1384 232.732 49.9909C231.414 49.8961 230.065 49.875 228.738 50.033C228.4 50.0752 228.063 50.0752 227.715 50.0646C225.945 50.0225 224.206 49.9277 222.456 50.033C222.404 50.033 222.33 50.033 222.288 50.0541C221.16 50.4754 219.959 50.4438 218.799 50.4017C216.417 50.3174 214.036 49.854 211.654 49.9382C209.609 50.012 207.586 50.1068 205.531 50.0225C204.403 49.9698 203.265 50.0646 202.137 50.1173C201.347 50.1594 200.556 50.191 199.755 50.1068C199.587 50.0857 199.418 50.0857 199.25 50.0857C196.046 50.0541 192.842 49.9277 189.627 49.9804C189.016 49.9804 188.384 50.0014 187.73 49.8329Z" fill="white"/>
<path d="M146.428 50.0963C144.932 50.0542 143.456 50.1806 141.981 50.2438C141.823 50.2438 141.675 50.2648 141.517 50.2648C141.412 50.2648 141.349 50.2332 141.328 50.17C141.317 50.1068 141.37 50.0647 141.464 50.0542C141.675 50.0226 141.886 49.991 142.097 49.9804C144.342 49.8224 146.608 49.6855 148.852 49.7066C151.434 49.7382 153.974 49.4432 156.546 49.5064C157.758 49.538 158.949 49.4432 160.161 49.5064C160.761 49.538 161.394 49.4538 162.015 49.4538C163.259 49.4432 164.492 49.4327 165.736 49.4327C166.884 49.4327 168.023 49.3484 169.161 49.2642C170.004 49.201 170.826 49.1904 171.638 49.359C171.901 49.4116 172.186 49.4432 172.449 49.4432C174.241 49.4432 176.043 49.5275 177.834 49.359C178.108 49.3379 178.393 49.3274 178.667 49.3484C180.585 49.4748 182.503 49.5064 184.411 49.5275C185.992 49.5486 187.572 49.4959 189.143 49.4748C190.439 49.4643 191.735 49.38 193.032 49.3168C193.685 49.2852 194.328 49.5064 194.981 49.538C195.297 49.5591 195.635 49.6118 195.635 49.833C195.635 50.0858 195.255 50.149 194.908 50.1384C194.222 50.1174 193.548 49.8962 192.873 49.9172C190.091 50.012 187.298 50.0963 184.516 50.0226C183.241 49.991 181.987 49.9067 180.722 49.9278C180.564 49.9278 180.406 49.9699 180.258 49.9594C177.718 49.7803 175.189 50.1174 172.649 50.0015C169.772 49.8646 166.906 50.1068 164.028 50.1384C160.877 50.1806 157.726 50.3386 154.564 50.2754C153.447 50.2543 152.341 50.2332 151.224 50.2964C150.918 50.3175 150.591 50.3175 150.296 50.2648C149.021 50.0542 147.714 50.1279 146.418 50.0858L146.428 50.0963Z" fill="white"/>
<path d="M128.691 50.1068C129.882 50.149 131.051 50.0226 132.221 49.9594C132.348 49.9594 132.464 49.9383 132.59 49.9383C132.674 49.9383 132.727 49.9699 132.738 50.0331C132.748 50.0963 132.706 50.1384 132.622 50.149C132.453 50.1806 132.295 50.2122 132.126 50.2227C130.345 50.3807 128.543 50.5176 126.762 50.4966C124.707 50.465 122.694 50.7599 120.66 50.6967C119.701 50.6651 118.752 50.7599 117.793 50.6967C117.309 50.6651 116.813 50.7494 116.329 50.7494C115.348 50.7599 114.358 50.7704 113.378 50.7704C112.461 50.7704 111.565 50.8547 110.659 50.939C109.995 51.0022 109.331 51.0127 108.688 50.8442C108.477 50.7915 108.256 50.7599 108.034 50.7599C106.612 50.7599 105.178 50.6756 103.756 50.8442C103.534 50.8652 103.313 50.8758 103.092 50.8547C101.563 50.7283 100.046 50.6967 98.5283 50.6756C97.2741 50.6546 96.02 50.7072 94.7658 50.7283C93.733 50.7388 92.7002 50.8231 91.6779 50.8863C91.1615 50.9179 90.6451 50.6967 90.1287 50.6651C89.8758 50.644 89.6123 50.5914 89.6123 50.3702C89.6123 50.1174 89.9074 50.0542 90.1814 50.0647C90.7294 50.0858 91.2564 50.307 91.8044 50.2859C94.0176 50.1911 96.2308 50.1068 98.4439 50.1806C99.4557 50.2122 100.457 50.2964 101.458 50.2754C101.585 50.2754 101.7 50.2332 101.827 50.2438C103.84 50.4228 105.853 50.0858 107.866 50.2016C110.153 50.3386 112.429 50.0963 114.706 50.0647C117.214 50.0226 119.712 49.8646 122.22 49.9278C123.105 49.9489 123.99 49.9699 124.876 49.9067C125.118 49.8856 125.382 49.8856 125.613 49.9383C126.625 50.149 127.668 50.0753 128.691 50.1174V50.1068Z" fill="white"/>
</svg>
