<svg xmlns="http://www.w3.org/2000/svg" width="90" height="90" viewBox="0 0 90 90"><defs><style>.cls-1{fill:#333;}.cls-2{fill:#d0cfcd;}</style></defs><g id="Black_Logos" data-name="Black Logos"><rect class="cls-1" x="1.56" y="1.41" width="87.33" height="87.33"/><path class="cls-2" d="M90,0H0V90H90ZM87.85,2.15v85.7H2.15V2.15Z"/><rect class="cls-2" x="5.39" y="5.39" width="79.21" height="79.22"/><path class="cls-1" d="M18.61,30.67a4.26,4.26,0,0,1,2.18.39,1.56,1.56,0,0,1,.6,1.4V33.9a1.9,1.9,0,0,1-.58,1.58,3.89,3.89,0,0,1-2.2.51Zm0,9a3.85,3.85,0,0,1,2.37.55,2.37,2.37,0,0,1,.65,1.9v1.55a2.38,2.38,0,0,1-.6,1.9,4.22,4.22,0,0,1-2.42.53ZM20.07,50q3.48,0,5.16-1.45a5.62,5.62,0,0,0,1.67-4.48v-2a4.7,4.7,0,0,0-.76-2.81,4.66,4.66,0,0,0-2.44-1.59A4.34,4.34,0,0,0,25.77,36a5.1,5.1,0,0,0,.65-2.74v-1.8a4.24,4.24,0,0,0-1.54-3.59,7.57,7.57,0,0,0-4.64-1.19H13.38V50.05Z"/><path class="cls-1" d="M29.1,50V26.69h5.27V50Z"/><path class="cls-1" d="M45.87,50l0-1.83A5.31,5.31,0,0,1,44,49.82a5.13,5.13,0,0,1-2.39.56A4,4,0,0,1,38,48.55a9.91,9.91,0,0,1-1.2-5.4V33.58a7.52,7.52,0,0,1,1.74-5.42,6.94,6.94,0,0,1,5.22-1.81A6.91,6.91,0,0,1,49,28.15a7.53,7.53,0,0,1,1.74,5.42v1.12H45.4v-2A2.85,2.85,0,0,0,45,31a1.52,1.52,0,0,0-1.26-.52,1.4,1.4,0,0,0-1.22.53,2.79,2.79,0,0,0-.39,1.67V44a2.73,2.73,0,0,0,.39,1.64,1.47,1.47,0,0,0,1.25.51A1.44,1.44,0,0,0,45,45.65,2.73,2.73,0,0,0,45.4,44v-2.6H43.58V37.14h7.15V50Z"/><path class="cls-1" d="M53,42.65V38.19h7.57v4.46Z"/><path class="cls-1" d="M70.79,31.12a2.5,2.5,0,0,1,.44,1.74v11a2.49,2.49,0,0,1-.45,1.74,3,3,0,0,1-2,.45h-.67V30.66h.68A2.93,2.93,0,0,1,70.79,31.12ZM62.84,50h5.6a20.47,20.47,0,0,0,4.12-.29,5.08,5.08,0,0,0,2.07-1,4.79,4.79,0,0,0,1.48-2,8.42,8.42,0,0,0,.45-3.05V33c0-2.4-.5-4.05-1.48-5s-2.88-1.36-5.7-1.36H62.84Z"/><path class="cls-1" d="M18.49,61.24a2.7,2.7,0,0,1-.62,1.93,2.45,2.45,0,0,1-1.85.65,2.45,2.45,0,0,1-1.85-.65,2.65,2.65,0,0,1-.63-1.93v-3.4a2.65,2.65,0,0,1,.63-1.93A2.45,2.45,0,0,1,16,55.27a2.43,2.43,0,0,1,1.85.64,2.7,2.7,0,0,1,.62,1.93v.64H16.58v-.95a1,1,0,0,0-.13-.59.53.53,0,0,0-.44-.18.5.5,0,0,0-.43.18,1,1,0,0,0-.13.59v4a1,1,0,0,0,.13.59.52.52,0,0,0,.44.18.51.51,0,0,0,.43-.18,1,1,0,0,0,.13-.59V60.41h1.91Z"/><path class="cls-1" d="M19.28,57.83a2.69,2.69,0,0,1,.62-1.92,2.49,2.49,0,0,1,1.86-.64,2.45,2.45,0,0,1,1.85.64,2.67,2.67,0,0,1,.61,1.92v3.41a2.69,2.69,0,0,1-.61,1.93,2.45,2.45,0,0,1-1.85.65,2.45,2.45,0,0,1-1.85-.65,2.67,2.67,0,0,1-.63-1.93Zm1.91-.3v4a1,1,0,0,0,.13.59.51.51,0,0,0,.44.18.48.48,0,0,0,.42-.18,1,1,0,0,0,.14-.59v-4a1,1,0,0,0-.14-.59.6.6,0,0,0-.86,0A1,1,0,0,0,21.19,57.53Z"/><path class="cls-1" d="M25.1,63.7V55.39h2.1l1,3.37c.11.37.21.75.31,1.15s.2.81.3,1.26c-.06-.42-.1-.84-.13-1.25s0-.9,0-1.45V55.39h1.82V63.7h-2l-1.08-3.57c-.12-.38-.22-.77-.32-1.16s-.18-.82-.26-1.26c0,.62.09,1.21.12,1.76s0,1.06,0,1.53v2.7Z"/><path class="cls-1" d="M31.17,60.83H33v.68a1,1,0,0,0,.15.62.54.54,0,0,0,.45.2.62.62,0,0,0,.46-.18.73.73,0,0,0,.17-.49,1,1,0,0,0-.16-.52,2.32,2.32,0,0,0-.49-.52l-.43-.33a15.21,15.21,0,0,1-1.26-1.07,2.13,2.13,0,0,1-.48-.77,2.78,2.78,0,0,1-.17-1,2.1,2.1,0,0,1,.64-1.63,2.6,2.6,0,0,1,1.79-.58,2.5,2.5,0,0,1,1.73.53A2.06,2.06,0,0,1,36,57.39v.69H34.24V57.5a1,1,0,0,0-.14-.59.52.52,0,0,0-.44-.18.53.53,0,0,0-.39.16.66.66,0,0,0-.15.45c0,.32.41.81,1.23,1.48l0,0,.14.12a6,6,0,0,1,1.3,1.3,2.12,2.12,0,0,1,.22.58,2.87,2.87,0,0,1,.07.67,2.13,2.13,0,0,1-.67,1.68,2.67,2.67,0,0,1-1.86.6,2.46,2.46,0,0,1-1.81-.61,2.34,2.34,0,0,1-.62-1.76Z"/><path class="cls-1" d="M37.58,63.7V57H36.35V55.39h4.33V57H39.45v6.7Z"/><path class="cls-1" d="M41.15,63.7V55.39h2.69a2.28,2.28,0,0,1,1.57.46,1.77,1.77,0,0,1,.52,1.39v.47a1.88,1.88,0,0,1-.24,1,1.55,1.55,0,0,1-.78.58,1.39,1.39,0,0,1,.78.54,1.88,1.88,0,0,1,.24,1v1.92a2.64,2.64,0,0,0,0,.54,1.21,1.21,0,0,0,.13.35H44.21a1,1,0,0,1-.1-.34,4.88,4.88,0,0,1,0-.62v-1.6a1.26,1.26,0,0,0-.22-.88,1.35,1.35,0,0,0-.85-.21V63.7Zm1.86-5a1.73,1.73,0,0,0,.84-.18.62.62,0,0,0,.23-.55v-.47a.66.66,0,0,0-.21-.57,1.36,1.36,0,0,0-.79-.17H43Z"/><path class="cls-1" d="M48.7,55.39v6.16a1.1,1.1,0,0,0,.13.59.51.51,0,0,0,.43.18.52.52,0,0,0,.44-.18,1,1,0,0,0,.14-.59V55.39h1.87v5.85a2.69,2.69,0,0,1-.61,1.93,2.42,2.42,0,0,1-1.84.65,2.38,2.38,0,0,1-1.82-.65,2.71,2.71,0,0,1-.62-1.93V55.39Z"/><path class="cls-1" d="M57.5,61.24a2.7,2.7,0,0,1-.62,1.93,3,3,0,0,1-3.7,0,2.65,2.65,0,0,1-.62-1.93v-3.4a2.65,2.65,0,0,1,.62-1.93,3,3,0,0,1,3.71,0,2.69,2.69,0,0,1,.61,1.93v.64H55.59v-.95a1,1,0,0,0-.13-.59.52.52,0,0,0-.44-.18.49.49,0,0,0-.42.18,1,1,0,0,0-.14.59v4a1,1,0,0,0,.14.59.6.6,0,0,0,.86,0,1,1,0,0,0,.13-.59V60.41H57.5Z"/><path class="cls-1" d="M59.13,63.7V57H57.9V55.39h4.34V57H61v6.7Z"/><path class="cls-1" d="M62.7,63.7V55.39h1.88V63.7Z"/><path class="cls-1" d="M65.45,57.83a2.69,2.69,0,0,1,.62-1.92,3,3,0,0,1,3.71,0,2.67,2.67,0,0,1,.61,1.92v3.41a2.69,2.69,0,0,1-.61,1.93,3,3,0,0,1-3.7,0,2.67,2.67,0,0,1-.63-1.93Zm1.9-.3v4a1,1,0,0,0,.14.59.62.62,0,0,0,.87,0,1,1,0,0,0,.13-.59v-4a.93.93,0,0,0-.14-.59.51.51,0,0,0-.43-.18.5.5,0,0,0-.43.18A1,1,0,0,0,67.35,57.53Z"/><path class="cls-1" d="M71.27,63.7V55.39h2.11l1,3.37c.11.37.21.75.31,1.15s.2.81.3,1.26c-.06-.42-.1-.84-.13-1.25s0-.9,0-1.45V55.39h1.82V63.7h-2l-1.08-3.57c-.12-.38-.22-.77-.31-1.16s-.19-.82-.27-1.26c0,.62.09,1.21.12,1.76s0,1.06,0,1.53v2.7Z"/></g></svg>