<svg xmlns="http://www.w3.org/2000/svg" width="204.54" height="88.14" viewBox="0 0 204.54 88.14"><defs><style>.cls-1{fill:#d0cfcd;}.cls-2{fill:#333;}</style></defs><g id="Black_Logos" data-name="Black Logos"><polygon class="cls-1" points="38.75 0 0 73.88 204.54 73.88 204.54 20.45 49.94 20.45 38.75 0"/><path class="cls-2" d="M74.88,71.61H3.55L38.88,4.14Zm-36-58.78L10.15,67.43h57.9Z"/><path class="cls-2" d="M76.45,49.72,78.89,27H83L86.4,37.11,89.86,27h4l2.77,22.7H91.44L90.35,39.3,86.61,49.82,82.55,39.3l-.93,10.42Z"/><path class="cls-2" d="M107.6,49.59a9.06,9.06,0,0,1-1.29.28A9.51,9.51,0,0,1,105,50a6.15,6.15,0,0,1-5-2.38,9.55,9.55,0,0,1-1.92-6.2,8.56,8.56,0,0,1,2-5.92,6.72,6.72,0,0,1,5.28-2.27,7.08,7.08,0,0,1,1.13.09,6.38,6.38,0,0,1,1.1.29v5.33c-.45-.13-.82-.23-1.13-.29a3.72,3.72,0,0,0-.82-.1,2.81,2.81,0,0,0-2.14.8,3.49,3.49,0,0,0,0,4.42,2.79,2.79,0,0,0,2.12.84,6.35,6.35,0,0,0,.83-.06c.31,0,.67-.11,1.1-.19Z"/><path class="cls-2" d="M108.68,49.72,115.45,27h5.66l6.4,22.7h-5.32l-.7-2.52h-6.85l-.74,2.52ZM116,41.51h4l-2-7.67Z"/><path class="cls-2" d="M141.44,43.48l-1.58,6.24H129.23V27h5V43.48Z"/><path class="cls-2" d="M145.17,49.72,139.82,27h5.32l3.2,15.58L151.19,27h5l-4.91,22.7Z"/><path class="cls-2" d="M155.39,49.72,162.16,27h5.66l6.4,22.7H168.9l-.7-2.52h-6.85l-.74,2.52Zm7.37-8.21h4l-2-7.67Z"/><path class="cls-2" d="M181.12,49.72h-5V27h5Z"/><path class="cls-2" d="M184.66,49.72V27h2.2L194.07,37V27h5v22.7h-2.28l-7.13-9.85v9.85Z"/><path class="cls-2" d="M84.48,66.52a4.18,4.18,0,0,1-.72.15,5.5,5.5,0,0,1-.84,0,6.16,6.16,0,0,1-4.47-1.64,5.63,5.63,0,0,1-1.71-4.26,5.83,5.83,0,0,1,1.78-4.36A6.23,6.23,0,0,1,83,54.74c.21,0,.43,0,.67,0a7,7,0,0,1,.73.13l.16,3.43a4.62,4.62,0,0,0-.82-.27A4.3,4.3,0,0,0,83,58a3.23,3.23,0,0,0-2.23.76,2.52,2.52,0,0,0-.87,2,2.59,2.59,0,0,0,.86,2,3,3,0,0,0,2.14.8,3.63,3.63,0,0,0,.92-.12,4.77,4.77,0,0,0,.9-.35Z"/><path class="cls-2" d="M91.73,54.63a6.15,6.15,0,0,1,2.1.37,5.29,5.29,0,0,1,1.75,1.07,6.34,6.34,0,0,1,1.54,2.11,6.38,6.38,0,0,1,0,5.09,6.32,6.32,0,0,1-1.54,2.12,5.37,5.37,0,0,1-1.76,1.07,6.09,6.09,0,0,1-4.18,0,5.37,5.37,0,0,1-1.76-1.07,6.25,6.25,0,0,1-1.53-2.11,6.38,6.38,0,0,1-.53-2.56,6.28,6.28,0,0,1,.53-2.54,6,6,0,0,1,1.53-2.11A5.2,5.2,0,0,1,89.64,55,5.82,5.82,0,0,1,91.73,54.63Zm0,3.22a2.64,2.64,0,0,0-2,.83,3,3,0,0,0,0,4.09,2.67,2.67,0,0,0,2,.82,2.64,2.64,0,0,0,2-.83,2.83,2.83,0,0,0,.8-2,2.86,2.86,0,0,0-.8-2A2.64,2.64,0,0,0,91.74,57.85Z"/><path class="cls-2" d="M98.52,66.52,100,54.94h2.47l2.06,5.15,2.09-5.15H109l1.67,11.58h-3.12l-.66-5.31-2.25,5.36-2.45-5.36-.56,5.31Z"/><path class="cls-2" d="M112,66.52V54.94h3a5.68,5.68,0,0,1,3.71,1A3.89,3.89,0,0,1,120,59.1a4.2,4.2,0,0,1-1.18,3.18,4.57,4.57,0,0,1-3.31,1.13h-.46v3.11Zm3-6h.36a1.67,1.67,0,0,0,1.15-.36,1.28,1.28,0,0,0,.41-1,1.33,1.33,0,0,0-.4-1.05,1.67,1.67,0,0,0-1.18-.37h-.34Z"/><path class="cls-2" d="M119.59,66.52l4.08-11.58h3.42L131,66.52h-3.21l-.42-1.29h-4.13l-.45,1.29ZM124,62.33h2.4l-1.2-3.91Z"/><path class="cls-2" d="M132,66.52V54.94h1.32L137.67,60V54.94h3V66.52h-1.37l-4.3-5v5Z"/><path class="cls-2" d="M145.82,66.52h-3V54.94h3Z"/><path class="cls-2" d="M155.25,63.33l-.82,3.19h-6.49V54.94h6.46l.5,3.08H151V59.2h2.63v3.06H151v1.07Z"/><path class="cls-2" d="M156.26,66.56l-.08-3.19a5.39,5.39,0,0,0,.65.21,2.6,2.6,0,0,0,.59.08,1.31,1.31,0,0,0,.83-.26.82.82,0,0,0,.32-.65c0-.34-.29-.78-.87-1.31l-.46-.42a4.39,4.39,0,0,1-.91-1.28,3.56,3.56,0,0,1,.81-4,4,4,0,0,1,2.85-1,6.76,6.76,0,0,1,1,.07,5.73,5.73,0,0,1,.93.22v2.87a4.71,4.71,0,0,0-.71-.28,1.91,1.91,0,0,0-.58-.1,1.43,1.43,0,0,0-.89.24.81.81,0,0,0-.3.67c0,.33.28.71.84,1.15l.51.43a4,4,0,0,1,1,1.34,3.9,3.9,0,0,1,.35,1.62,3.38,3.38,0,0,1-1.16,2.73,4.81,4.81,0,0,1-3.22,1c-.28,0-.55,0-.81,0S156.5,66.6,156.26,66.56Z"/><path class="cls-2" d="M171.37,66.52h-3V54.94h3Z"/><path class="cls-2" d="M173.49,66.52V54.94h1.32L179.16,60V54.94h3V66.52h-1.37l-4.3-5v5Z"/><path class="cls-2" d="M191.37,66.52a4.18,4.18,0,0,1-.72.15,5.58,5.58,0,0,1-.84,0,6.16,6.16,0,0,1-4.47-1.64,5.63,5.63,0,0,1-1.71-4.26,5.8,5.8,0,0,1,1.78-4.36,6.22,6.22,0,0,1,4.5-1.72c.22,0,.44,0,.68,0s.47.07.73.13l.16,3.43a4.62,4.62,0,0,0-.82-.27,4.3,4.3,0,0,0-.78-.08,3.27,3.27,0,0,0-2.24.76,2.67,2.67,0,0,0,0,3.93,3,3,0,0,0,2.14.8,3.63,3.63,0,0,0,.92-.12,4.77,4.77,0,0,0,.9-.35Z"/><path class="cls-2" d="M193.22,66.52v-3H196v3Z"/><path class="cls-1" d="M137.62,80.65h1.22l2,7.34h-.94l-.53-2H137l-.55,2h-.95Zm-.44,4.59h2l-.94-3.55h0Z"/><path class="cls-1" d="M142.78,88V80.61H145a2.43,2.43,0,0,1,1.48.37,1.36,1.36,0,0,1,.49,1.14v.58a1.7,1.7,0,0,1-.2.87,1.43,1.43,0,0,1-.66.53,1.33,1.33,0,0,1,1,1.4v.64a1.75,1.75,0,0,1-.54,1.42,2.43,2.43,0,0,1-1.64.47Zm1.66-4.46a1.28,1.28,0,0,0,.69-.16.6.6,0,0,0,.19-.51v-.46a.52.52,0,0,0-.19-.45,1.39,1.39,0,0,0-.69-.13Zm0,3.21a1.29,1.29,0,0,0,.77-.17.73.73,0,0,0,.19-.6v-.5a.74.74,0,0,0-.21-.6,1.16,1.16,0,0,0-.75-.17Z"/><path class="cls-1" d="M147.77,88V80.61h1.68V88Z"/><path class="cls-1" d="M153.1,88v-.58a1.69,1.69,0,0,1-.59.51,1.61,1.61,0,0,1-.76.18,1.28,1.28,0,0,1-1.13-.58,3.2,3.2,0,0,1-.38-1.72v-3a2.32,2.32,0,0,1,.56-1.71,2.17,2.17,0,0,1,1.65-.58,2.21,2.21,0,0,1,1.66.57,2.39,2.39,0,0,1,.55,1.72v.35H153v-.62a.92.92,0,0,0-.12-.53.48.48,0,0,0-.4-.16.44.44,0,0,0-.38.16.92.92,0,0,0-.12.53v3.6a.89.89,0,0,0,.12.52.56.56,0,0,0,.78,0,.89.89,0,0,0,.12-.52v-.84h-.57V83.92h2.27V88Z"/><path class="cls-1" d="M155.35,85.68V84.27h2.41v1.41Z"/><path class="cls-1" d="M158.49,80.61h2.08a2.73,2.73,0,0,1,1.81.43,2.11,2.11,0,0,1,.47,1.58V86a2.85,2.85,0,0,1-.14,1,1.58,1.58,0,0,1-.47.63,1.67,1.67,0,0,1-.66.3,5.76,5.76,0,0,1-1.31.1h-1.78Zm1.89,1.26h-.21v4.88h.21c.33,0,.54,0,.63-.14a.76.76,0,0,0,.14-.55V82.57A.76.76,0,0,0,161,82,.89.89,0,0,0,160.38,81.87Z"/><path class="cls-1" d="M169.4,85.47c-.08,1.39-.62,2.67-2.23,2.67-2.09,0-2.37-2-2.37-3.82s.34-3.82,2.37-3.82c1.5,0,2.13.85,2.17,2.29h-.94c0-.84-.29-1.55-1.23-1.55-1.25,0-1.42,1.38-1.42,3.08s.17,3.08,1.42,3.08,1.26-1,1.29-1.93Z"/><path class="cls-1" d="M174.88,84.32c0,1.85-.34,3.82-2.37,3.82s-2.36-2-2.36-3.82.34-3.82,2.36-3.82S174.88,82.47,174.88,84.32Zm-3.79,0c0,1.7.17,3.08,1.42,3.08s1.42-1.38,1.42-3.08-.16-3.08-1.42-3.08S171.09,82.62,171.09,84.32Z"/><path class="cls-1" d="M176,80.65h1.52L179,86.47h0l1.47-5.82H182V88h-.91V81.57h0L179.45,88h-.9l-1.63-6.42h0V88H176Z"/><path class="cls-1" d="M183.22,80.65h1.88a1.94,1.94,0,0,1,2.27,2.11,2,2,0,0,1-2.12,2.13h-1.12V88h-.91Zm.91,3.5h1.08c.66,0,1.21-.46,1.21-1.43a1.16,1.16,0,0,0-1.27-1.33h-1Z"/><path class="cls-1" d="M189.24,80.65h1.21l2,7.34h-1L191,86h-2.34l-.55,2h-.94Zm-.45,4.59h2l-.94-3.55h0Z"/><path class="cls-1" d="M192.94,80.65h1.18l2.43,6.13h0V80.65h.9V88h-1.24l-2.36-5.94h0V88h-.91Z"/><path class="cls-1" d="M198.05,80.65h1l1.4,3.43,1.45-3.43h.95l-1.95,4.46V88H200V85.11Z"/><path class="cls-2" d="M57.08,59.14h2.64l-.12-.6a6.56,6.56,0,0,0-4.82-5L44,27.14,38.88,40.9l-5-13.76L19.29,64.79h8.36l5.29-14.86L39,64.79,44.17,49.6l3.25,7.14a6.53,6.53,0,0,0,10.11,8l1.83,0-.59-1.43a6.54,6.54,0,0,0,.83-2.1l.12-.6H57.66Zm-3.9,6.75a6,6,0,1,1,5.93-7.25H55.28a2.41,2.41,0,1,0,0,2.42h3.83A6.05,6.05,0,0,1,53.18,65.89Z"/></g></svg>