<svg width="84" height="38" viewBox="0 0 84 38" fill="none" xmlns="http://www.w3.org/2000/svg">
<g clip-path="url(#clip0_635_5578)">
<path d="M37.5306 0.594727H0.657227V37.4681H37.5306V0.594727Z" fill="white"/>
<path d="M38 0H0V38H38V0ZM37.0925 0.907529V37.0925H0.907529V0.907529H37.0925Z" fill="#333333"/>
<path d="M36.1493 1.85547H1.85547V36.1493H36.1493V1.85547Z" fill="#333333"/>
<path d="M7.85495 12.9514C8.30201 12.9514 8.61048 13.0096 8.78037 13.1169C8.94578 13.2286 9.03072 13.4253 9.03072 13.707V14.315C9.03072 14.6324 8.95025 14.8559 8.78484 14.9811C8.6239 15.1107 8.31095 15.1823 7.85495 15.1957V12.947V12.9514ZM7.85495 16.7559C8.33778 16.7559 8.6686 16.8319 8.85637 16.9839C9.03966 17.1359 9.13354 17.4042 9.13354 17.7886V18.4458C9.13354 18.8392 9.0486 19.1074 8.88319 19.246C8.71778 19.3846 8.37354 19.4606 7.85943 19.4696V16.7559H7.85495ZM8.47637 21.1282C9.45542 21.1282 10.1797 20.9225 10.6535 20.5157C11.123 20.1044 11.3599 19.474 11.3599 18.6246V17.7663C11.3599 17.2745 11.2526 16.8766 11.038 16.5816C10.8234 16.2865 10.4792 16.0585 10.0053 15.9065C10.4077 15.7322 10.6982 15.4997 10.8815 15.2046C11.0648 14.9096 11.1542 14.5251 11.1542 14.0467V13.2912C11.1542 12.6162 10.9352 12.111 10.5015 11.7757C10.0679 11.4404 9.41519 11.2705 8.54343 11.2705H5.64648V21.1326H8.4719L8.47637 21.1282Z" fill="white"/>
<path d="M12.29 21.1282V11.2661H14.5164V21.1282H12.29Z" fill="white"/>
<path d="M19.3712 21.1281L19.3578 20.3592C19.1387 20.6543 18.8749 20.8823 18.5709 21.0387C18.2669 21.1952 17.9272 21.2712 17.5606 21.2712C16.8989 21.2712 16.3982 21.0119 16.0585 20.4978C15.7187 19.9837 15.5488 19.2237 15.5488 18.2178V14.1764C15.5488 13.1616 15.7947 12.4016 16.2865 11.8919C16.7782 11.3823 17.5114 11.1274 18.486 11.1274C19.4606 11.1274 20.2027 11.3823 20.69 11.8874C21.1773 12.3926 21.4232 13.1571 21.4232 14.1764V14.6503H19.1745V13.8143C19.1745 13.4924 19.1208 13.2554 19.0091 13.1079C18.8973 12.9604 18.7229 12.8889 18.4771 12.8889C18.2312 12.8889 18.0702 12.9649 17.9629 13.1124C17.8557 13.2599 17.7975 13.4969 17.7975 13.8187V18.5844C17.7975 18.9018 17.8512 19.1343 17.9629 19.2773C18.0702 19.4204 18.2491 19.4919 18.4905 19.4919C18.7319 19.4919 18.9018 19.4204 19.0135 19.2773C19.1208 19.1343 19.1745 18.9018 19.1745 18.5844V17.4891H18.4055V15.6874H21.4232V21.1326H19.3757L19.3712 21.1281Z" fill="white"/>
<path d="M22.3574 18.0076V16.1255H25.5584V18.0076H22.3574Z" fill="white"/>
<path d="M29.8902 13.1393C30.0154 13.2689 30.078 13.5103 30.078 13.8725V18.5219C30.078 18.884 30.0154 19.1254 29.8902 19.2551C29.765 19.3802 29.4834 19.4428 29.0497 19.4428H28.7636V12.9426H29.0497C29.4879 12.9426 29.7695 13.0096 29.8947 13.1348L29.8902 13.1393ZM26.5373 21.1282H28.5803H28.8977C29.7114 21.1282 30.2926 21.088 30.6368 21.0075C30.981 20.9271 31.2761 20.7929 31.513 20.6007C31.8036 20.3638 32.0093 20.0866 32.1344 19.7647C32.2596 19.4473 32.3222 19.0136 32.3222 18.4727V13.9306C32.3222 12.9158 32.1121 12.2183 31.7008 11.8383C31.285 11.4539 30.4848 11.2661 29.2911 11.2661H26.5283V21.1282H26.5373Z" fill="white"/>
<path d="M7.80554 25.8579C7.80554 26.22 7.7206 26.4883 7.54624 26.6716C7.37189 26.8549 7.1126 26.9443 6.76389 26.9443C6.41519 26.9443 6.16036 26.8549 5.98154 26.6716C5.80719 26.4883 5.71777 26.22 5.71777 25.8579V24.4184C5.71777 24.0563 5.80719 23.788 5.98154 23.6047C6.15589 23.4214 6.41519 23.332 6.76389 23.332C7.1126 23.332 7.37189 23.4214 7.54624 23.6003C7.7206 23.7791 7.80554 24.0518 7.80554 24.4139V24.6866H7.00083V24.2843C7.00083 24.168 6.98295 24.0876 6.94271 24.0339C6.90248 23.9803 6.83989 23.9534 6.75942 23.9534C6.67895 23.9534 6.61636 23.9803 6.5806 24.0339C6.54483 24.0831 6.52248 24.168 6.52248 24.2843V25.9786C6.52248 26.0904 6.54036 26.1753 6.5806 26.229C6.62083 26.2781 6.67895 26.305 6.76389 26.305C6.84883 26.305 6.90695 26.2781 6.94719 26.229C6.98295 26.1753 7.0053 26.0949 7.0053 25.9786V25.5003H7.81001V25.849L7.80554 25.8579Z" fill="white"/>
<path d="M8.14062 24.4183C8.14062 24.0562 8.23004 23.788 8.40439 23.6091C8.57874 23.4258 8.84251 23.3364 9.18674 23.3364C9.53098 23.3364 9.79474 23.4258 9.9691 23.6047C10.1434 23.7835 10.2284 24.0562 10.2284 24.4183V25.8578C10.2284 26.22 10.1434 26.4882 9.9691 26.6715C9.79474 26.8548 9.53545 26.9442 9.18674 26.9442C8.83804 26.9442 8.58321 26.8548 8.40439 26.6715C8.23004 26.4882 8.14062 26.2155 8.14062 25.8578V24.4183ZM8.94533 24.2887V25.9875C8.94533 26.1037 8.96321 26.1842 9.00345 26.2378C9.03921 26.287 9.1018 26.3138 9.18674 26.3138C9.27168 26.3138 9.3298 26.287 9.36557 26.2378C9.40133 26.1842 9.42368 26.1037 9.42368 25.9875V24.2887C9.42368 24.1769 9.4058 24.092 9.36557 24.0428C9.32533 23.9891 9.26721 23.9623 9.18227 23.9623C9.09733 23.9623 9.03921 23.9891 9.00345 24.0428C8.96321 24.0964 8.94533 24.1769 8.94533 24.2887Z" fill="white"/>
<path d="M10.5992 26.8951V23.3901H11.4844L11.8957 24.8118C11.9404 24.9683 11.9851 25.1292 12.0298 25.2991C12.07 25.4645 12.1147 25.6433 12.155 25.8311C12.1326 25.6567 12.1147 25.4779 12.1013 25.3035C12.0924 25.1292 12.0834 24.9235 12.0834 24.6911V23.3901H12.8524V26.8951H11.994L11.538 25.3885C11.4888 25.232 11.4441 25.0666 11.4039 24.9012C11.3637 24.7313 11.3234 24.557 11.2921 24.3692C11.3145 24.633 11.3324 24.8788 11.3458 25.1113C11.3592 25.3438 11.3637 25.5584 11.3637 25.7595V26.8951H10.5947H10.5992Z" fill="white"/>
<path d="M13.1611 25.6836H13.948V25.9652C13.948 26.0814 13.9703 26.1709 14.0105 26.229C14.0508 26.2871 14.1178 26.3139 14.2028 26.3139C14.2833 26.3139 14.3458 26.2871 14.395 26.2334C14.4442 26.1798 14.4665 26.1127 14.4665 26.0278C14.4665 25.9563 14.4442 25.8803 14.3995 25.8087C14.3548 25.7372 14.2833 25.6657 14.1938 25.5897C14.1536 25.5584 14.0955 25.5092 14.015 25.4511C13.7602 25.2499 13.5814 25.1024 13.483 24.9996C13.3936 24.9057 13.3221 24.7984 13.2774 24.6732C13.2327 24.548 13.2103 24.4139 13.2103 24.2664C13.2103 23.9713 13.2997 23.7433 13.4785 23.5779C13.6574 23.4125 13.9122 23.332 14.2341 23.332C14.556 23.332 14.8018 23.408 14.9672 23.5556C15.1282 23.7031 15.2131 23.9266 15.2131 24.2261V24.5167H14.4621V24.2753C14.4621 24.1636 14.4442 24.0786 14.404 24.025C14.3637 23.9713 14.3011 23.9445 14.2162 23.9445C14.1491 23.9445 14.091 23.9713 14.0508 24.016C14.0105 24.0652 13.9882 24.1278 13.9882 24.2038C13.9882 24.3379 14.1625 24.5436 14.5112 24.8297C14.5202 24.8386 14.5291 24.8431 14.5291 24.8476C14.5425 24.861 14.5649 24.8789 14.5917 24.8967C14.9002 25.1516 15.079 25.3349 15.1416 25.4466C15.1818 25.5226 15.2131 25.6031 15.231 25.6925C15.2489 25.7819 15.2623 25.8758 15.2623 25.9786C15.2623 26.2781 15.1684 26.5151 14.9807 26.685C14.7929 26.8549 14.5336 26.9398 14.1938 26.9398C13.8541 26.9398 13.6037 26.8549 13.4294 26.685C13.255 26.5151 13.1701 26.2692 13.1701 25.9429V25.6791L13.1611 25.6836Z" fill="white"/>
<path d="M15.8662 26.8952V24.0653H15.3477V23.3857H17.1761V24.0653H16.6575V26.8952H15.8662Z" fill="white"/>
<path d="M17.373 26.8951V23.3901H18.5086C18.8081 23.3901 19.0272 23.4572 19.1747 23.5824C19.3178 23.712 19.3938 23.9087 19.3938 24.168V24.3692C19.3938 24.5525 19.358 24.6955 19.2909 24.7984C19.2239 24.9057 19.1121 24.9861 18.9601 25.0443C19.1121 25.0934 19.2239 25.165 19.2909 25.2723C19.358 25.3751 19.3938 25.5226 19.3938 25.7148V26.524C19.3938 26.6179 19.3982 26.6939 19.4116 26.752C19.425 26.8057 19.4429 26.8548 19.4698 26.8995H18.6695C18.6472 26.8638 18.6338 26.8146 18.6248 26.7565C18.6159 26.6984 18.6114 26.609 18.6114 26.4972V25.8177C18.6114 25.6254 18.5801 25.5047 18.522 25.4466C18.4594 25.393 18.3432 25.3617 18.1599 25.3572V26.8951H17.373ZM18.1599 24.7939C18.3342 24.7894 18.4549 24.7626 18.5175 24.7179C18.5801 24.6732 18.6114 24.5972 18.6114 24.4854V24.2843C18.6114 24.168 18.5801 24.0875 18.522 24.0428C18.4639 23.9981 18.3521 23.9758 18.1912 23.9758H18.1599V24.7894V24.7939Z" fill="white"/>
<path d="M20.5649 23.3857V25.9876C20.5649 26.1039 20.5828 26.1843 20.6185 26.238C20.6543 26.2872 20.7169 26.314 20.7974 26.314C20.8778 26.314 20.9449 26.2872 20.9806 26.238C21.0209 26.1843 21.0388 26.1039 21.0388 25.9921V23.3902H21.8301V25.8624C21.8301 26.2246 21.7451 26.4928 21.5708 26.6761C21.3964 26.8594 21.1416 26.9488 20.7929 26.9488C20.4442 26.9488 20.1938 26.8594 20.0239 26.6761C19.8541 26.4928 19.7646 26.2201 19.7646 25.8624V23.3902H20.5559L20.5649 23.3857Z" fill="white"/>
<path d="M24.2792 25.8579C24.2792 26.22 24.1898 26.4883 24.0199 26.6716C23.8455 26.8549 23.5862 26.9443 23.2375 26.9443C22.8888 26.9443 22.634 26.8549 22.4552 26.6716C22.2808 26.4883 22.1914 26.22 22.1914 25.8579V24.4184C22.1914 24.0563 22.2808 23.788 22.4552 23.6047C22.6295 23.4214 22.8888 23.332 23.2375 23.332C23.5862 23.332 23.8455 23.4214 24.0199 23.6003C24.1942 23.7791 24.2792 24.0518 24.2792 24.4139V24.6866H23.4745V24.2843C23.4745 24.168 23.4566 24.0876 23.4163 24.0339C23.3761 23.9803 23.318 23.9534 23.2331 23.9534C23.1481 23.9534 23.09 23.9803 23.0542 24.0339C23.0185 24.0831 22.9961 24.168 22.9961 24.2843V25.9786C22.9961 26.0904 23.0185 26.1753 23.0542 26.229C23.09 26.2781 23.1526 26.305 23.2375 26.305C23.3225 26.305 23.3806 26.2781 23.4208 26.229C23.4566 26.1753 23.4789 26.0949 23.4789 25.9786V25.5003H24.2836V25.849L24.2792 25.8579Z" fill="white"/>
<path d="M24.9678 26.8952V24.0653H24.4492V23.3857H26.2777V24.0653H25.7591V26.8952H24.9678Z" fill="white"/>
<path d="M26.4746 26.8951V23.3901H27.2704V26.8951H26.4746Z" fill="white"/>
<path d="M27.6367 24.4183C27.6367 24.0562 27.7261 23.788 27.9005 23.6091C28.0748 23.4258 28.3341 23.3364 28.6828 23.3364C29.0315 23.3364 29.2908 23.4258 29.4652 23.6047C29.6395 23.7835 29.7245 24.0562 29.7245 24.4183V25.8578C29.7245 26.22 29.6351 26.4882 29.4652 26.6715C29.2908 26.8548 29.0315 26.9442 28.6828 26.9442C28.3341 26.9442 28.0793 26.8548 27.9005 26.6715C27.7261 26.4882 27.6367 26.2155 27.6367 25.8578V24.4183ZM28.437 24.2887V25.9875C28.437 26.1037 28.4548 26.1842 28.4951 26.2378C28.5308 26.287 28.5934 26.3138 28.6784 26.3138C28.7633 26.3138 28.8214 26.287 28.8617 26.2378C28.8974 26.1842 28.9153 26.1037 28.9153 25.9875V24.2887C28.9153 24.1769 28.8974 24.092 28.8572 24.0428C28.817 23.9891 28.7544 23.9623 28.6739 23.9623C28.5934 23.9623 28.5308 23.9891 28.4951 24.0428C28.4548 24.0964 28.437 24.1769 28.437 24.2887Z" fill="white"/>
<path d="M30.0918 26.8951V23.3901H30.9814L31.3927 24.8118C31.4374 24.9683 31.4821 25.1292 31.5269 25.2991C31.5716 25.4645 31.6118 25.6433 31.652 25.8311C31.6297 25.6567 31.6118 25.4779 31.5984 25.3035C31.5894 25.1292 31.585 24.9235 31.585 24.6911V23.3901H32.3539V26.8951H31.4956L31.0396 25.3885C30.9904 25.232 30.9457 25.0666 30.9054 24.9012C30.8652 24.7313 30.825 24.557 30.7937 24.3692C30.816 24.633 30.8339 24.8788 30.8473 25.1113C30.8607 25.3438 30.8652 25.5584 30.8652 25.7595V26.8951H30.0963H30.0918Z" fill="white"/>
<path d="M47.9015 10.6533L48.7017 15.1776H48.7241L49.5243 10.6533H52.3676V18.2846H50.5078V12.598H50.4855L49.4259 18.2846H47.9954L46.9358 12.598H46.9135V18.2846H45.0537V10.6533H47.897H47.9015Z" fill="white"/>
<path d="M55.1535 10.6533V18.2846H53.1641V10.6533H55.1535Z" fill="white"/>
<path d="M60.8528 12.835V12.8573H58.9931V12.674C58.9931 12.1912 58.8009 11.8514 58.4253 11.8514C58.0096 11.8514 57.8039 12.1733 57.8039 12.5265C57.8039 13.0183 58.1034 13.3088 59.078 13.6799C59.8604 13.9794 60.3387 14.27 60.6383 14.6724C60.9378 15.0792 61.054 15.5397 61.054 16.0851C61.054 17.6587 60.1554 18.4366 58.3493 18.4366C56.5432 18.4366 55.7832 17.7839 55.7832 16.2684V16.0225H57.7056V16.1924C57.7056 16.7914 57.9201 17.091 58.3583 17.091C58.7964 17.091 58.9976 16.7601 58.9976 16.3533C58.9976 16.1074 58.9216 15.9375 58.783 15.7766C58.5907 15.562 58.2823 15.4145 57.5446 15.115C56.4449 14.6679 55.8771 14.0778 55.8771 12.8931C55.8771 11.3328 56.7131 10.5103 58.3806 10.5103C60.0481 10.5103 60.8484 11.2166 60.8484 12.8394L60.8528 12.835Z" fill="white"/>
<path d="M66.5931 12.835V12.8573H64.7333V12.674C64.7333 12.1912 64.5411 11.8514 64.1656 11.8514C63.7498 11.8514 63.5441 12.1733 63.5441 12.5265C63.5441 13.0183 63.8437 13.3088 64.8183 13.6799C65.6006 13.9794 66.079 14.27 66.3785 14.6724C66.678 15.0792 66.7943 15.5397 66.7943 16.0851C66.7943 17.6587 65.8957 18.4366 64.0896 18.4366C62.2834 18.4366 61.5234 17.7839 61.5234 16.2684V16.0225H63.4458V16.1924C63.4458 16.7914 63.6604 17.091 64.0985 17.091C64.5366 17.091 64.7378 16.7601 64.7378 16.3533C64.7378 16.1074 64.6618 15.9375 64.5232 15.7766C64.331 15.562 64.0225 15.4145 63.2849 15.115C62.1851 14.6679 61.6173 14.0778 61.6173 12.8931C61.6173 11.3328 62.4533 10.5103 64.1208 10.5103C65.7884 10.5103 66.5886 11.2166 66.5886 12.8394L66.5931 12.835Z" fill="white"/>
<path d="M69.4191 10.6533V18.2846H67.4297V10.6533H69.4191Z" fill="white"/>
<path d="M75.5127 14.4713C75.5127 17.1983 74.9047 18.4367 72.7856 18.4367C70.6666 18.4367 70.0586 17.1849 70.0586 14.4713C70.0586 11.7576 70.7113 10.5059 72.7856 10.5059C74.86 10.5059 75.5127 11.7353 75.5127 14.4713ZM72.7856 17.091C73.4071 17.091 73.4607 16.4517 73.4607 14.4713C73.4607 12.2807 73.3534 11.8515 72.7767 11.8515C72.1553 11.8515 72.1151 12.5579 72.1151 14.4713C72.1151 16.5546 72.2 17.091 72.7901 17.091H72.7856Z" fill="white"/>
<path d="M78.4539 10.6533L79.737 15.3564H79.7593V10.6533H81.6191V18.2846H79.4374L78.1097 13.5681H78.0873V18.2846H76.2275V10.6533H78.4494H78.4539Z" fill="white"/>
<path d="M50.106 21.9862V22.4556H48.1836V22.2097C48.1836 21.4184 48.1523 20.9043 47.6382 20.9043C47.0391 20.9043 46.9631 21.4944 46.9631 23.5241C46.9631 25.5537 47.0168 26.1438 47.6382 26.1438C48.0987 26.1438 48.2373 25.7683 48.2373 24.5613V24.2707H50.1596V24.8474C50.1596 26.6133 49.3057 27.4895 47.6248 27.4895C45.3582 27.4895 44.9111 26.2914 44.9111 23.533C44.9111 20.7747 45.5102 19.5542 47.6382 19.5542C49.2118 19.5542 50.106 20.2695 50.106 21.9817V21.9862Z" fill="white"/>
<path d="M54.0312 19.7109C55.3232 19.7109 56.0832 20.4039 56.0832 21.7406C56.0832 22.8314 55.6362 23.4305 54.7778 23.5601V23.5825C55.6541 23.6585 56.0296 24.2039 56.0296 25.25V26.1039C56.0296 26.9265 56.0922 27.0651 56.3515 27.2394V27.3467H54.2369C54.1072 27.1008 54.0446 26.5643 54.0446 26.0636V25.4422C54.0446 24.6062 53.9374 24.2888 53.4009 24.2888H52.8644V27.3467H50.875V19.7154H54.0268L54.0312 19.7109ZM52.8644 22.9387H53.2712C53.7943 22.9387 54.0938 22.6079 54.0938 22.0312C54.0938 21.4098 53.8569 21.146 53.2578 21.146H52.8644V22.9432V22.9387Z" fill="white"/>
<path d="M58.9269 19.7109V27.3422H56.9375V19.7109H58.9269Z" fill="white"/>
<path d="M64.2826 19.7109V21.4008H62.7849V27.3467H60.7955V21.4008H59.2979V19.7109H64.2781H64.2826Z" fill="white"/>
<path d="M66.6476 19.7109V27.3422H64.6582V19.7109H66.6476Z" fill="white"/>
<path d="M72.4858 21.9862V22.4556H70.5635V22.2097C70.5635 21.4184 70.5322 20.9043 70.0181 20.9043C69.419 20.9043 69.343 21.4944 69.343 23.5241C69.343 25.5537 69.3967 26.1438 70.0181 26.1438C70.4785 26.1438 70.6171 25.7683 70.6171 24.5613V24.2707H72.5395V24.8474C72.5395 26.6133 71.6856 27.4895 70.0047 27.4895C67.7381 27.4895 67.291 26.2914 67.291 23.533C67.291 20.7747 67.8901 19.5542 70.0181 19.5542C71.5917 19.5542 72.4858 20.2695 72.4858 21.9817V21.9862Z" fill="white"/>
<path d="M77.0102 19.7109L78.87 27.3422H76.7554L76.5542 26.0055H74.9716L74.766 27.3422H72.6514L74.5111 19.7109H77.0147H77.0102ZM75.1996 24.5123H76.3128L75.7674 21.2712H75.745L75.1996 24.5123Z" fill="white"/>
<path d="M81.19 19.7109V25.7194H83.6399V27.3422H79.2051V19.7109H81.1945H81.19Z" fill="white"/>
</g>
<defs>
<clipPath id="clip0_635_5578">
<rect width="83.6402" height="38" fill="white"/>
</clipPath>
</defs>
</svg>
